<svg width="72" height="93" viewBox="0 0 72 93" fill="none" xmlns="http://www.w3.org/2000/svg">
<path d="M45.2031 9.70362C45.203 7.88343 44.6632 6.10415 43.6519 4.59077C42.6406 3.07739 41.2032 1.89787 39.5216 1.20139C37.8399 0.504899 35.9895 0.322716 34.2043 0.677876C32.4191 1.03304 30.7793 1.90959 29.4922 3.19669C28.2052 4.48379 27.3287 6.12363 26.9737 7.90885C26.6186 9.69407 26.8009 11.5445 27.4975 13.2261C28.194 14.9077 29.3736 16.345 30.8871 17.3563C32.4005 18.3675 34.1798 18.9072 36 18.9072C38.44 18.9043 40.7792 17.9337 42.5046 16.2083C44.2299 14.4829 45.2003 12.1436 45.2031 9.70362V9.70362ZM30.7969 9.70362C30.797 8.67456 31.1022 7.66863 31.674 6.81305C32.2458 5.95746 33.0585 5.29064 34.0092 4.8969C34.96 4.50317 36.0061 4.4002 37.0154 4.60102C38.0247 4.80184 38.9517 5.29743 39.6794 6.02512C40.407 6.75281 40.9025 7.67992 41.1032 8.68922C41.3039 9.69851 41.2009 10.7447 40.807 11.6954C40.4132 12.6461 39.7463 13.4587 38.8907 14.0304C38.035 14.6021 37.0291 14.9072 36 14.9072C34.6205 14.9056 33.2979 14.3568 32.3225 13.3813C31.347 12.4058 30.7984 11.0832 30.7969 9.70362V9.70362Z" fill="black"/>
<path d="M39.5859 90.794C40.4077 91.6108 41.453 92.166 42.5899 92.3897C43.7268 92.6133 44.9045 92.4954 45.9745 92.0507C47.0445 91.6061 47.9589 90.8546 48.6024 89.891C49.246 88.9275 49.5899 87.7949 49.5907 86.6362V32.2271H66.1366C67.6904 32.225 69.1799 31.6064 70.2778 30.507C71.3758 29.4076 71.9925 27.9173 71.9925 26.3635C71.9925 24.8097 71.3758 23.3195 70.2778 22.2201C69.1799 21.1207 67.6904 20.502 66.1366 20.5H5.8632C4.30942 20.502 2.81998 21.1207 1.72201 22.2201C0.624036 23.3195 0.00732422 24.8097 0.00732422 26.3635C0.00732422 27.9173 0.624036 29.4076 1.72201 30.507C2.81998 31.6064 4.30942 32.225 5.8632 32.2271H22.4091V86.6362C22.4091 87.4063 22.5608 88.1688 22.8554 88.8802C23.1501 89.5916 23.5821 90.238 24.1266 90.7825C24.6711 91.327 25.3175 91.759 26.0289 92.0536C26.7403 92.3483 27.5028 92.5 28.2729 92.5C29.0429 92.5 29.8054 92.3483 30.5168 92.0536C31.2283 91.759 31.8747 91.327 32.4192 90.7825C32.9637 90.238 33.3956 89.5916 33.6903 88.8802C33.985 88.1688 34.1366 87.4063 34.1366 86.6362V58.5H37.8632V86.6362C37.8607 87.4088 38.0116 88.1742 38.3073 88.8879C38.6031 89.6017 39.0377 90.2496 39.5859 90.794V90.794ZM32.1366 54.5C31.6062 54.5 31.0975 54.7107 30.7225 55.0858C30.3474 55.4609 30.1367 55.9696 30.1366 56.5V86.6362C30.1374 86.8815 30.0898 87.1245 29.9965 87.3513C29.9032 87.5782 29.7661 87.7844 29.5929 87.9581C29.4198 88.1318 29.214 88.2696 28.9875 88.3637C28.761 88.4577 28.5181 88.5061 28.2729 88.5061C28.0276 88.5061 27.7847 88.4577 27.5582 88.3637C27.3317 88.2696 27.126 88.1318 26.9528 87.9581C26.7797 87.7844 26.6425 87.5782 26.5492 87.3513C26.4559 87.1245 26.4083 86.8815 26.4091 86.6362V30.2271C26.4091 29.6966 26.1983 29.1879 25.8233 28.8129C25.4482 28.4378 24.9395 28.2271 24.4091 28.2271H5.8632C5.61785 28.228 5.37472 28.1806 5.14776 28.0873C4.9208 27.9941 4.71448 27.857 4.54064 27.6839C4.36681 27.5107 4.22887 27.305 4.13475 27.0784C4.04063 26.8518 3.99218 26.6089 3.99218 26.3635C3.99218 26.1182 4.04063 25.8752 4.13475 25.6487C4.22887 25.4221 4.36681 25.2163 4.54064 25.0432C4.71448 24.87 4.9208 24.7329 5.14776 24.6397C5.37472 24.5465 5.61785 24.499 5.8632 24.5H66.1366C66.382 24.499 66.6251 24.5465 66.8521 24.6397C67.079 24.7329 67.2854 24.87 67.4592 25.0432C67.633 25.2163 67.771 25.4221 67.8651 25.6487C67.9592 25.8752 68.0077 26.1182 68.0077 26.3635C68.0077 26.6089 67.9592 26.8518 67.8651 27.0784C67.771 27.305 67.633 27.5107 67.4592 27.6839C67.2854 27.857 67.079 27.9941 66.8521 28.0873C66.6251 28.1806 66.382 28.228 66.1366 28.2271H47.5907C47.0603 28.2271 46.5516 28.4378 46.1766 28.8129C45.8015 29.1879 45.5908 29.6966 45.5907 30.2271V86.6362C45.5915 86.8815 45.5439 87.1245 45.4506 87.3513C45.3573 87.5782 45.2202 87.7844 45.047 87.9581C44.8739 88.1318 44.6681 88.2696 44.4416 88.3637C44.2151 88.4577 43.9722 88.5061 43.727 88.5061C43.4817 88.5061 43.2388 88.4577 43.0123 88.3637C42.7858 88.2696 42.5801 88.1318 42.4069 87.9581C42.2338 87.7844 42.0966 87.5782 42.0033 87.3513C41.91 87.1245 41.8624 86.8815 41.8632 86.6362V56.5C41.8632 55.9696 41.6524 55.4609 41.2774 55.0858C40.9023 54.7107 40.3936 54.5 39.8632 54.5H32.1366Z" fill="black"/>
</svg>
