<svg width="128" height="128" viewBox="0 0 128 128" fill="none" xmlns="http://www.w3.org/2000/svg">
<path d="M125.524 56.0403C124.287 53.7332 115.073 44.5127 103.575 38.2378C98.5083 35.4697 82.8425 27.0466 70.0097 24.6892C68.6211 24.4352 67.4151 23.8255 66.0136 24.1501C65.4322 24.2848 64.5636 23.4431 65.5646 22.8682C66.1138 22.5499 66.6733 22.2868 69.5169 22.3396C67.0994 20.6445 66.2971 20.905 62.445 20.977C63.2649 19.4077 67.7511 19.405 67.7511 19.405C67.7511 19.405 65.6851 18.1268 59.5307 18.5722C60.7755 17.5417 63.192 17.063 63.192 17.063C63.192 17.063 59.8323 15.681 55.9749 17.4494C55.6618 17.592 55.2962 17.8935 54.5452 17.9382C53.7932 17.9832 51.9299 17.7148 51.6244 17.6494C51.3254 17.5801 50.1447 17.3761 50.2768 16.293C50.4 15.2125 51.3303 15.1895 51.5665 15.1675C51.7975 15.1366 54.5784 15.3446 55.3008 14.0088C55.7896 13.1002 56.7071 9.54958 54.1996 8.52659C50.6155 7.06765 48.8073 8.27134 48.2709 8.39814C47.7295 8.51871 46.989 7.9668 46.989 7.9668C46.989 7.9668 44.2236 5.1488 43.3277 4.47633C42.4282 3.80912 39.8474 2.60281 37.8865 2.26411C37.4529 2.19479 36.6802 1.98192 36.5623 1.88304C36.1158 1.50952 34.6411 1.29664 34.1165 1.33902C33.4621 1.39421 32.0426 1.17081 31.2755 2.33211C30.7867 3.06996 30.4079 3.08934 29.4302 3.24703C28.4549 3.40603 25.882 3.25984 25.882 3.25984C25.882 3.25984 22.5659 3.2444 21.4956 2.51313C20.9963 2.16917 19.4513 0.77824 19.0304 0.27397C18.6172 -0.227672 17.9667 0.0775212 18.0219 0.263789C18.2758 1.19414 18.0771 2.88928 17.0889 3.99046C15.9533 5.23914 14.6701 6.41983 14.4467 6.69545C14.2184 6.96877 13.8501 8.29827 14.6444 8.80254C15.4349 9.29925 16.0587 9.67245 16.0587 9.67245C16.0587 9.67245 15.5479 12.9652 15.6582 13.956C14.9102 13.6376 13.6116 12.9333 12.8261 12.3032C7.69308 8.18001 7.26436 3.57062 6.20326 3.39618C5.14085 3.22305 3.68552 8.6396 6.60996 12.3584C9.99005 16.6632 16.4782 17.6698 16.4782 17.6698C16.4782 17.6698 15.4194 19.0134 15.5403 20.8626C14.4135 21.4234 14.2584 21.8071 14.2584 21.8071C14.2584 21.8071 14.1635 22.5397 14.8833 23.1212C34.8921 22.6498 49.352 41.7217 46.0091 63.6293C45.5252 66.8067 43.1411 74.7565 42.1874 77.0663C41.2275 79.376 40.944 83.131 40.944 83.131C40.944 83.131 40.6257 84.2988 40.0432 84.2167C39.4749 84.1372 39.4388 83.6753 39.4595 83.3773C39.5597 82.9411 39.1707 81.2292 39.3261 80.1513C39.489 79.0863 38.8678 78.3163 38.8678 78.3163C38.8678 78.3163 40.4079 74.8898 36.4296 71.923C37.1418 75.8061 35.8612 76.6737 35.8612 76.6737C35.8612 76.6737 34.2108 71.4969 29.0393 71.6691C31.2735 73.581 31.6149 76.3324 31.6957 76.5275C31.058 75.2827 25.9145 71.8744 22.9079 76.512C27.9884 76.8176 28.8314 78.7295 28.8314 78.7295C28.8314 78.7295 22.7821 76.4966 20.1871 82.3123C23.0732 81.563 26.103 82.1428 26.103 82.1428C26.103 82.1428 22.5022 82.9588 22.4585 86.1057C24.4348 85.1457 27.5094 85.7975 27.5094 85.7975C27.5094 85.7975 27.4197 85.7975 27.4516 86.1004C27.9378 86.2545 30.1658 89.5961 32.0212 90.4789C33.8793 91.3566 44.4496 91.9982 48.9654 89.9141C50.1112 89.3856 50.1871 89.5958 50.6132 88.1792C52.0133 83.5235 57.5672 70.7883 61.4644 62.9887C64.0744 57.7506 66.4936 54.129 66.5038 53.8005C66.5245 53.1537 63.2994 49.5272 62.9259 49.1139C62.5603 48.6993 63.2443 48.471 63.2443 48.471C63.2443 48.471 65.6851 49.0587 66.6861 50.4907C67.6946 51.924 67.8717 52.1809 67.6615 52.9431C67.446 53.7079 65.625 59.199 65.625 59.199C65.625 59.199 93.8401 61.4641 94.0248 62.402C94.2173 63.3425 85.214 64.178 82.8553 64.6786C78.8001 65.5397 74.9965 70.3672 75.3944 71.7377C77.0369 77.4355 77.6299 91.7206 77.7607 92.8037C77.8993 93.8869 79.3441 94.4309 79.8986 94.4618C80.4479 94.4874 83.371 94.5156 83.6457 94.9752C83.9101 95.4371 83.4942 95.6168 83.4942 95.6168C83.4942 95.6168 82.8425 96.0892 81.6798 95.9811C80.5172 95.8836 73.7416 93.9999 72.6329 92.7729C71.5343 91.5409 70.9801 90.9148 70.9801 90.9148C70.9801 90.9148 71.6424 85.4069 66.3602 86.0127C68.2594 88.6717 66.8221 89.8524 66.8221 89.8524C66.8221 89.8524 64.7022 85.7923 58.1319 87.7581C62.5708 89.4624 62.6887 90.7302 62.6887 90.7302C62.6887 90.7302 59.0393 89.0876 55.3126 92.5472C60.2328 92.6037 60.8973 94.513 60.8973 94.513C60.8973 94.513 55.3461 93.3632 54.2167 99.2972C58.1769 96.8514 60.3238 98.4296 60.3238 98.4296C60.3238 98.4296 54.2025 100.344 55.8849 105.731C58.2794 103.368 61.3093 102.77 61.3093 102.77L61.3914 103.024C61.3914 103.024 62.8441 103.637 64.1634 103.655C65.4801 103.67 65.8008 103.465 65.625 102.739C65.4492 102.012 65.7278 101.191 65.7406 100.911C65.7587 100.637 66.2268 100.562 66.2268 100.562C66.2268 100.562 66.5245 100.493 66.622 100.919C66.8481 101.871 66.1293 102.651 67.0583 103.739C67.99 104.828 69.4272 104.584 69.8816 104.753C70.3333 104.92 72.8536 105.397 72.8536 105.397C72.8536 105.397 79.9348 106.637 82.17 105.682C83.7511 105.01 88.3914 102.012 89.6591 99.9332C90.2751 98.922 90.5422 97.6283 90.691 96.2065C91.235 90.7502 92.6365 84.2055 96.5734 81.1152C96.8763 80.8688 97.5179 80.6891 97.8566 80.4785C98.2363 80.2476 98.5753 80.1655 98.7189 79.7959C98.8267 78.9335 97.3382 67.8153 97.1227 64.7305C96.7429 59.1484 92.5645 54.8406 92.5645 54.8406C92.5645 54.8406 92.5645 54.475 93.0162 54.3813C93.4706 54.2811 94.1917 54.4621 94.1917 54.4621C94.1917 54.4621 96.8145 54.3491 98.7652 64.6205C100.711 74.8839 100.895 83.107 102.944 86.9904C103.57 88.1658 106.434 92.7906 108.744 97.3103C110.654 101.047 111.218 103.67 111.988 105.21C113.692 108.613 112.05 112.807 111.377 113.266C110.7 113.731 110.654 113.3 110.417 113.159C110.176 113.007 110.499 111.37 110.499 111.37C110.499 111.37 111.162 110.579 110.253 109.162C109.334 107.741 105.181 106.724 105.181 106.724C105.181 106.724 104.565 106.278 104.165 106.062C104.591 101.914 97.6588 101.524 97.6588 101.524C97.6588 101.524 99.6581 104.358 99.3759 107.093C94.3943 103.426 90.3572 107.083 90.3572 107.083C90.3572 107.083 94.1197 107.746 95.8135 110.728C89.2074 109.034 88.4886 113.921 88.4886 113.921C88.4886 113.921 91.1706 112.699 94.0376 114.922C87.8214 115.384 88.7761 120.296 88.7761 120.296C88.7761 120.296 90.3983 118.155 95.2232 119.767C95.1309 119.911 91.2603 122.791 93.668 127.48C94.2327 126.266 95.6854 124.295 97.4101 123.579C97.5845 123.799 97.6154 123.784 97.6719 123.838C97.6719 123.838 101.512 122.195 103.467 122.141C105.428 122.088 107.03 121.97 109.565 121.71C112.101 121.446 113.564 120.252 114.755 119.567C115.941 118.885 120.607 112.894 121.792 111.86C122.978 110.82 123.281 109.055 123.281 109.055C123.281 109.055 124.061 106.55 124.513 100.798C124.965 95.0416 125.299 87.1211 125.176 82.0781C125.001 75.2128 120.889 59.7289 120.889 59.7289C120.889 59.7289 120.874 59.2118 121.244 59.082C121.621 58.9562 121.608 59.086 122.121 59.9046C122.63 60.7144 123.615 65.1123 124.436 65.7525C124.754 65.9976 124.7 66.9332 125.965 66.4441C126.356 66.2966 126.941 63.7952 127.156 62.4313C127.382 61.0462 126.756 58.3449 125.524 56.0403ZM19.3803 11.0785C19.5304 11.1337 19.696 11.2198 19.696 11.2198C19.696 11.2198 19.3599 14.156 19.7883 15.475C17.9726 14.7884 16.5032 14.2585 16.5032 14.2585C16.5032 14.2585 18.2315 11.5828 19.3803 11.0785ZM19.4546 21.0072C19.3826 21.0124 19.1737 20.9816 18.8783 20.9546C17.5413 19.8459 17.4257 17.9224 17.4257 17.9224C17.4257 17.9224 20.3898 18.6448 20.8892 18.8758C20.6507 19.5033 19.6007 20.2976 19.4546 21.0072ZM23.0912 21.6011C22.7256 21.4855 21.8875 20.7234 21.854 20.2293C21.8218 19.5542 21.6615 19.1258 21.6615 19.1258C21.6615 19.1258 25.9927 20.3193 27.2538 22.4737C25.4936 22.0377 23.4572 21.7168 23.0912 21.6011ZM20.24 15.6688C20.24 15.6688 21.6618 13.409 22.8862 12.8314C26.9683 14.9602 28.924 18.6445 29.6221 21.2509C27.357 18.3866 20.24 15.6688 20.24 15.6688Z" fill="#FF0000"/>
<path d="M20.3705 53.6688C25.6333 52.134 31.0601 46.272 34.8623 42.471C37.0233 40.3074 38.5837 39.1859 39.0174 38.8419C39.654 39.359 42.4231 43.9379 43.7641 48.3662C44.7995 51.7848 44.7125 55.3278 44.6622 56.3442C44.4973 59.4382 42.4582 60.0528 42.4582 60.0528C42.4582 60.0528 30.0322 64.1323 27.8932 64.0798C26.9103 64.0502 19.3147 65.8711 17.1127 65.6645C11.3226 65.1077 9.92509 62.3422 9.92509 62.3422L7.0312 57.3169C7.0312 57.3169 6.66557 56.1402 7.72535 56.4944C8.78646 56.8574 8.92509 56.8781 9.88008 57.1412C10.8334 57.4093 10.0713 56.4585 10.0713 56.4585C10.0713 56.4585 9.13074 55.9323 8.30551 55.5693C5.64027 54.3978 5.35643 50.4914 5.35643 50.4914C5.35643 50.4914 5.22043 47.2628 5.35118 44.8991C5.48094 42.5367 0 42.6869 0 42.6869C0 42.6869 2.09822 38.361 8.54138 40.8735C8.5992 38.5522 2.94908 36.8107 2.94908 36.8107C2.94908 36.8107 6.41918 33.1343 12.8019 38.2687C13.1357 34.5345 9.89782 31.5571 9.89782 31.5571C9.89782 31.5571 15.0039 30.6294 17.0916 37.7539C19.2615 36.0009 17.9425 31.226 17.9425 31.226C17.9425 31.226 22.883 33.972 21.338 38.9937C23.9109 38.5394 24.8761 35.1836 24.8761 35.1836C24.8761 35.1836 26.86 38.6816 23.6508 42.1195C22.4445 43.4093 22.1738 43.0305 22.1738 43.0305C22.1738 43.0305 17.0447 49.7306 20.3324 58.2424C20.7519 59.3383 21.4619 58.5131 21.5568 58.0216C21.6488 57.5325 21.3804 55.7194 20.3705 53.6688Z" fill="#FF0000"/>
<path d="M43.6568 3.70104C43.6568 3.70104 47.4282 7.09394 47.7826 7.52528C48.0908 7.8896 50.3631 6.65275 51.5438 6.9287C52.2636 7.0969 51.1601 4.89224 50.7084 4.25295C50.2527 3.62154 48.7449 2.02398 46.9252 2.32687C45.3776 2.58475 43.6568 3.70104 43.6568 3.70104Z" fill="#FF0000"/>
</svg>
