<svg width="304" height="180" viewBox="0 0 304 180" fill="none" xmlns="http://www.w3.org/2000/svg">
<path d="M159.209 9.694C158.994 9.2949 157.397 7.69993 155.404 6.61447C154.525 6.13564 151.809 4.67859 149.585 4.2708C149.344 4.22687 149.135 4.1214 148.892 4.17754C148.791 4.20084 148.641 4.05525 148.814 3.9558C148.909 3.90074 149.006 3.85522 149.499 3.86437C149.08 3.57114 148.941 3.6162 148.273 3.62865C148.415 3.35718 149.193 3.35673 149.193 3.35673C149.193 3.35673 148.835 3.13562 147.768 3.21267C147.984 3.03441 148.403 2.95161 148.403 2.95161C148.403 2.95161 147.82 2.71254 147.152 3.01844C147.097 3.0431 147.034 3.09527 146.904 3.103C146.773 3.11078 146.45 3.06435 146.397 3.05304C146.346 3.04105 146.141 3.00576 146.164 2.81841C146.185 2.6315 146.346 2.62752 146.387 2.62371C146.427 2.61837 146.909 2.65434 147.035 2.42328C147.119 2.2661 147.279 1.65191 146.844 1.47495C146.222 1.22258 145.909 1.4308 145.816 1.45273C145.722 1.47359 145.594 1.37812 145.594 1.37812C145.594 1.37812 145.114 0.890653 144.959 0.774327C144.803 0.658911 144.356 0.450241 144.016 0.391652C143.941 0.379661 143.807 0.342838 143.786 0.325733C143.709 0.26112 143.453 0.224296 143.362 0.231626C143.249 0.241173 143.003 0.20253 142.87 0.403415C142.785 0.531049 142.719 0.534402 142.55 0.561679C142.381 0.589184 141.935 0.563896 141.935 0.563896C141.935 0.563896 141.36 0.561225 141.174 0.434727C141.088 0.375229 140.82 0.134622 140.747 0.047392C140.675 -0.0393833 140.562 0.0134098 140.572 0.0456309C140.616 0.206566 140.582 0.499794 140.41 0.690279C140.213 0.90628 139.991 1.11052 139.952 1.1582C139.913 1.20548 139.849 1.43546 139.986 1.52269C140.124 1.60861 140.232 1.67316 140.232 1.67316C140.232 1.67316 140.143 2.24274 140.162 2.41414C140.033 2.35907 139.807 2.23723 139.671 2.12824C138.781 1.415 138.707 0.617655 138.523 0.587479C138.339 0.557531 138.087 1.4945 138.594 2.13778C139.18 2.88245 140.304 3.05657 140.304 3.05657C140.304 3.05657 140.121 3.28899 140.142 3.60887C139.946 3.70588 139.92 3.77225 139.92 3.77225C139.92 3.77225 139.903 3.89898 140.028 3.99956C143.497 3.91801 146.003 7.21712 145.424 11.0068C145.34 11.5564 144.927 12.9316 144.761 13.3311C144.595 13.7307 144.546 14.3802 144.546 14.3802C144.546 14.3802 144.491 14.5822 144.39 14.568C144.291 14.5543 144.285 14.4744 144.288 14.4228C144.306 14.3474 144.238 14.0512 144.265 13.8648C144.294 13.6805 144.186 13.5473 144.186 13.5473C144.186 13.5473 144.453 12.9546 143.763 12.4414C143.887 13.1131 143.665 13.2632 143.665 13.2632C143.665 13.2632 143.379 12.3677 142.482 12.3975C142.869 12.7282 142.929 13.2042 142.943 13.2379C142.832 13.0226 141.94 12.433 141.419 13.2352C142.3 13.2881 142.446 13.6188 142.446 13.6188C142.446 13.6188 141.397 13.2326 140.947 14.2386C141.448 14.109 141.973 14.2093 141.973 14.2093C141.973 14.2093 141.349 14.3504 141.341 14.8948C141.684 14.7287 142.217 14.8415 142.217 14.8415C142.217 14.8415 142.201 14.8415 142.207 14.8939C142.291 14.9205 142.677 15.4986 142.999 15.6513C143.321 15.8031 145.154 15.9141 145.936 15.5536C146.135 15.4621 146.148 15.4985 146.222 15.2535C146.465 14.4481 147.428 12.2451 148.103 10.896C148.556 9.98984 148.975 9.36337 148.977 9.30655C148.98 9.19465 148.421 8.56734 148.357 8.49585C148.293 8.42413 148.412 8.38464 148.412 8.38464C148.412 8.38464 148.835 8.4863 149.008 8.73401C149.183 8.98195 149.214 9.02639 149.178 9.15823C149.14 9.29052 148.825 10.2404 148.825 10.2404C148.825 10.2404 153.716 10.6322 153.748 10.7945C153.781 10.9572 152.22 11.1017 151.812 11.1883C151.109 11.3372 150.449 12.1723 150.518 12.4094C150.803 13.395 150.906 15.8661 150.928 16.0534C150.952 16.2408 151.203 16.3349 151.299 16.3402C151.394 16.3447 151.901 16.3496 151.949 16.4291C151.994 16.509 151.922 16.54 151.922 16.54C151.922 16.54 151.809 16.6218 151.608 16.6031C151.406 16.5862 150.232 16.2603 150.039 16.0481C149.849 15.835 149.753 15.7267 149.753 15.7267C149.753 15.7267 149.868 14.7739 148.952 14.8787C149.281 15.3387 149.032 15.5429 149.032 15.5429C149.032 15.5429 148.665 14.8406 147.526 15.1806C148.295 15.4754 148.315 15.6947 148.315 15.6947C148.315 15.6947 147.683 15.4106 147.037 16.009C147.89 16.0188 148.005 16.3491 148.005 16.3491C148.005 16.3491 147.043 16.1502 146.847 17.1767C147.533 16.7536 147.906 17.0266 147.906 17.0266C147.906 17.0266 146.844 17.3578 147.136 18.2897C147.551 17.8808 148.076 17.7773 148.076 17.7773L148.091 17.8213C148.091 17.8213 148.342 17.9274 148.571 17.9305C148.799 17.9332 148.855 17.8976 148.825 17.772C148.794 17.6464 148.842 17.5043 148.845 17.4559C148.848 17.4084 148.929 17.3955 148.929 17.3955C148.929 17.3955 148.98 17.3835 148.997 17.4572C149.037 17.6219 148.912 17.7568 149.073 17.9451C149.235 18.1334 149.484 18.0911 149.562 18.1205C149.641 18.1493 150.078 18.2319 150.078 18.2319C150.078 18.2319 151.305 18.4463 151.693 18.2812C151.967 18.1648 152.771 17.6463 152.991 17.2867C153.098 17.1118 153.144 16.888 153.17 16.642C153.264 15.6982 153.507 14.5661 154.19 14.0315C154.242 13.9889 154.354 13.9578 154.412 13.9214C154.478 13.8814 154.537 13.8672 154.562 13.8033C154.58 13.6541 154.322 11.7309 154.285 11.1972C154.219 10.2316 153.495 9.48646 153.495 9.48646C153.495 9.48646 153.495 9.42321 153.573 9.40702C153.652 9.38969 153.777 9.421 153.777 9.421C153.777 9.421 154.232 9.40145 154.57 11.1782C154.907 12.9536 154.939 14.3761 155.294 15.0478C155.403 15.2511 155.899 16.0512 156.3 16.833C156.631 17.4794 156.729 17.9331 156.862 18.1995C157.158 18.7882 156.873 19.5136 156.756 19.5931C156.639 19.6734 156.631 19.5989 156.59 19.5744C156.548 19.5482 156.604 19.265 156.604 19.265C156.604 19.265 156.719 19.1283 156.561 18.8832C156.402 18.6372 155.682 18.4614 155.682 18.4614C155.682 18.4614 155.575 18.3842 155.506 18.3469C155.58 17.6294 154.378 17.5619 154.378 17.5619C154.378 17.5619 154.725 18.052 154.676 18.5253C153.812 17.8909 153.112 18.5235 153.112 18.5235C153.112 18.5235 153.764 18.6381 154.058 19.154C152.913 18.861 152.788 19.7063 152.788 19.7063C152.788 19.7063 153.253 19.4949 153.75 19.8794C152.673 19.9593 152.838 20.8091 152.838 20.8091C152.838 20.8091 153.119 20.4388 153.956 20.7176C153.94 20.7425 153.269 21.2406 153.686 22.0518C153.784 21.8418 154.036 21.5008 154.335 21.377C154.365 21.4151 154.37 21.4125 154.38 21.4218C154.38 21.4218 155.046 21.1377 155.385 21.1283C155.725 21.119 156.002 21.0986 156.442 21.0537C156.882 21.008 157.135 20.8015 157.342 20.683C157.547 20.5649 158.356 19.5287 158.562 19.3498C158.767 19.17 158.82 18.8646 158.82 18.8646C158.82 18.8646 158.955 18.4312 159.033 17.4363C159.112 16.4405 159.17 15.0704 159.148 14.1981C159.118 13.0105 158.405 10.3321 158.405 10.3321C158.405 10.3321 158.403 10.2426 158.467 10.2202C158.532 10.1984 158.53 10.2208 158.619 10.3625C158.707 10.5025 158.878 11.2633 159.02 11.374C159.075 11.4164 159.066 11.5783 159.285 11.4937C159.353 11.4681 159.454 11.0355 159.492 10.7995C159.531 10.5599 159.422 10.0926 159.209 9.694ZM140.808 1.91639C140.834 1.92593 140.862 1.94082 140.862 1.94082C140.862 1.94082 140.804 2.44874 140.878 2.6769C140.563 2.55814 140.309 2.46647 140.309 2.46647C140.309 2.46647 140.608 2.00362 140.808 1.91639ZM140.82 3.63388C140.808 3.63479 140.772 3.62944 140.72 3.62478C140.489 3.43299 140.469 3.10027 140.469 3.10027C140.469 3.10027 140.983 3.22523 141.069 3.26518C141.028 3.37372 140.846 3.51113 140.82 3.63388ZM141.451 3.73662C141.387 3.71662 141.242 3.58478 141.236 3.49931C141.231 3.38253 141.203 3.30843 141.203 3.30843C141.203 3.30843 141.954 3.51488 142.172 3.88755C141.867 3.81214 141.514 3.75662 141.451 3.73662ZM140.957 2.71043C140.957 2.71043 141.203 2.31952 141.415 2.21962C142.123 2.58786 142.462 3.22517 142.583 3.67604C142.19 3.18057 140.957 2.71043 140.957 2.71043Z" fill="#FF0000"/>
<path d="M140.979 9.28358C141.891 9.01808 142.832 8.00406 143.491 7.34656C143.866 6.9723 144.136 6.77829 144.211 6.71879C144.322 6.80824 144.802 7.6003 145.034 8.36633C145.214 8.95767 145.199 9.57056 145.19 9.74638C145.161 10.2816 144.808 10.3879 144.808 10.3879C144.808 10.3879 142.654 11.0936 142.283 11.0845C142.112 11.0794 140.796 11.3944 140.414 11.3586C139.41 11.2623 139.168 10.7839 139.168 10.7839L138.666 9.91465C138.666 9.91465 138.603 9.71109 138.787 9.77235C138.97 9.83514 138.995 9.83872 139.16 9.88424C139.325 9.93061 139.193 9.76616 139.193 9.76616C139.193 9.76616 139.03 9.67512 138.887 9.61232C138.425 9.40968 138.376 8.73395 138.376 8.73395C138.376 8.73395 138.352 8.17545 138.375 7.76658C138.397 7.35793 137.447 7.3839 137.447 7.3839C137.447 7.3839 137.811 6.6356 138.928 7.07021C138.938 6.66867 137.959 6.36743 137.959 6.36743C137.959 6.36743 138.56 5.73148 139.667 6.61963C139.724 5.97367 139.163 5.45865 139.163 5.45865C139.163 5.45865 140.048 5.29817 140.41 6.53058C140.786 6.22735 140.558 5.40137 140.558 5.40137C140.558 5.40137 141.414 5.87639 141.146 6.74505C141.592 6.66646 141.76 6.08597 141.76 6.08597C141.76 6.08597 142.104 6.69106 141.547 7.28576C141.338 7.50886 141.291 7.44334 141.291 7.44334C141.291 7.44334 140.402 8.60233 140.972 10.0747C141.045 10.2643 141.168 10.1216 141.184 10.0365C141.2 9.95192 141.154 9.63829 140.979 9.28358Z" fill="#FF0000"/>
<path d="M145.016 0.640244C145.016 0.640244 145.669 1.22716 145.731 1.30177C145.784 1.36479 146.178 1.15084 146.383 1.19857C146.508 1.22767 146.316 0.8463 146.238 0.735714C146.159 0.626492 145.898 0.350141 145.582 0.402536C145.314 0.447145 145.016 0.640244 145.016 0.640244Z" fill="#FF0000"/>
<g clip-path="url(#clip0)">
<path d="M8.9499 21.2742C4.04516 21.2742 0.0683594 17.5314 0.0683594 12.9143V0.065918H8.94316L8.9499 21.2742Z" fill="#FF0000"/>
<path fill-rule="evenodd" clip-rule="evenodd" d="M-0.0390625 -0.0410156H17.9375V12.914C17.9375 17.5964 13.9062 21.3807 8.94887 21.3807C3.99183 21.3807 -0.0390625 17.5963 -0.0390625 12.914V-0.0410156ZM0.17373 0.172389V12.914C0.17373 17.4659 4.09644 21.1673 8.94887 21.1673C13.8016 21.1673 17.7247 17.4659 17.7247 12.914V0.172389H0.17373Z" fill="#FF0000"/>
</g>
<path d="M287.605 4.98212C287.605 4.98212 286.981 4.7121 286.016 2.23248C285.05 -0.248357 283.487 0.00599496 283.472 0.00840587C283.424 0.019255 283.309 0.0288987 283.281 0.172348C283.256 0.317003 283.369 0.379687 283.406 0.394152C283.442 0.409823 284.359 0.647299 284.778 3.21975C285.241 6.07427 286.795 6.77344 287.12 6.85661C286.327 5.32689 287.605 4.98212 287.605 4.98212" fill="#FF0000"/>
<path d="M299.696 2.23248C300.665 -0.248357 302.226 0.00599496 302.238 0.00840587C302.286 0.019255 302.407 0.0288987 302.431 0.172348C302.455 0.317003 302.347 0.379687 302.31 0.394152C302.274 0.409823 301.354 0.647299 300.931 3.21975C300.471 6.07427 298.91 6.77344 298.595 6.85661C299.382 5.32689 298.111 4.98212 298.111 4.98212" fill="#FF0000"/>
<path d="M298.73 7.19529C298.73 7.19529 299.335 8.32963 298.985 9.97146C299.033 10.0474 299.699 10.6224 300.884 10.2439C302.07 9.86538 302.131 8.49959 303.159 8.16568C302.506 7.07354 301.03 5.67762 298.73 7.19529Z" fill="#FF0000"/>
<path d="M287.051 7.14026C287.051 7.14026 286.44 8.25948 286.796 9.88117C286.749 9.95618 286.072 10.5253 284.86 10.1514C283.648 9.77639 283.586 8.42856 282.529 8.09755C283.197 7.02 284.705 5.64122 287.051 7.14026" fill="#FF0000"/>
<path d="M290.504 20.3384H295.123C295.123 20.3384 295.208 21.1701 294.567 21.1701H290.967C290.469 21.1701 290.504 20.3384 290.504 20.3384Z" fill="#FF0000"/>
<path fill-rule="evenodd" clip-rule="evenodd" d="M290.875 10.1523L287.059 7.56299C287.059 7.56299 286.095 9.5966 288.125 12.6958C287.552 13.5171 288.193 14.2814 288.518 14.669C288.589 14.7536 288.645 14.8203 288.67 14.8657C288.797 15.0923 288.966 15.5101 289.127 15.9097C289.335 16.4241 289.531 16.9081 289.608 16.9149C289.844 16.9149 290.52 16.3604 290.609 16.1314C290.784 15.6492 290.888 15.0103 290.888 15.0103L290.875 10.1523ZM289.738 10.4502C289.118 10.4502 288.616 9.97883 288.616 9.3978C288.616 9.2218 288.663 9.05665 288.743 8.91079L290.527 10.1452C290.323 10.3332 290.046 10.4502 289.738 10.4502Z" fill="#FF0000"/>
<path d="M288.953 9.39765C288.953 9.80389 289.304 10.1342 289.737 10.1342C289.949 10.1342 290.14 10.0546 290.283 9.92684L289.037 9.06494C288.983 9.16499 288.953 9.2771 288.953 9.39765Z" fill="#FF0000"/>
<path fill-rule="evenodd" clip-rule="evenodd" d="M294.809 10.1523L298.633 7.56299C298.633 7.56299 299.589 9.5966 297.568 12.6958C298.131 13.5127 297.5 14.2734 297.177 14.6628C297.105 14.7504 297.048 14.8192 297.023 14.8657C296.898 15.0892 296.732 15.4988 296.573 15.8933C296.362 16.4138 296.162 16.9081 296.08 16.9149C295.85 16.9149 295.172 16.3604 295.075 16.1314C294.906 15.6492 294.797 15.0103 294.797 15.0103L294.809 10.1523ZM295.922 10.4502C296.551 10.4502 297.048 9.97883 297.048 9.3978C297.048 9.2218 296.999 9.05665 296.914 8.91079L295.136 10.1452C295.341 10.3332 295.62 10.4502 295.922 10.4502Z" fill="#FF0000"/>
<path d="M296.708 9.39765C296.708 9.80389 296.357 10.1342 295.921 10.1342C295.716 10.1342 295.522 10.0546 295.377 9.92684L296.623 9.06494C296.672 9.16499 296.708 9.2771 296.708 9.39765Z" fill="#FF0000"/>
<path d="M297.858 5.12442C297.894 5.0328 297.906 4.93275 297.906 4.83028C297.906 4.29385 297.458 3.85989 296.914 3.85989C296.781 3.85989 296.672 3.88279 296.551 3.92378C296.43 3.53562 296.055 3.25475 295.607 3.25475C295.389 3.25475 295.183 3.32828 295.014 3.45244C294.832 3.1776 294.53 2.99316 294.179 2.99316C293.961 2.99316 293.768 3.06188 293.598 3.1788C293.39 3.3331 292.865 3.00401 292.865 3.00401C292.865 3.00401 292.216 3.27886 291.943 3.12094C291.798 3.04018 291.633 2.99316 291.455 2.99316C291.113 2.99316 290.811 3.16675 290.637 3.42954C290.475 3.31382 290.277 3.2439 290.06 3.2439C289.623 3.2439 289.253 3.52839 289.128 3.92137C289.015 3.87435 288.891 3.84904 288.762 3.84904C288.221 3.84904 287.782 4.28421 287.782 4.82064C287.782 4.92431 287.797 5.02436 287.829 5.11718C287.41 5.23291 286.591 5.68616 287.343 6.74937C288.096 7.81379 288.924 7.2641 288.924 7.2641C288.924 7.2641 289.061 7.19057 289.166 7.38947C289.269 7.58837 289.352 7.69204 289.564 7.78486C289.773 7.88009 290.288 7.60766 290.455 7.6607C290.623 7.71253 290.861 8.06814 291.062 8.08864C291.262 8.10913 291.617 7.86924 291.88 7.88974C292.143 7.91144 291.91 8.10913 292.853 8.11998C293.792 8.10913 293.526 7.91144 293.78 7.88974C294.046 7.86924 294.397 8.10913 294.603 8.08864C294.796 8.06814 295.038 7.71253 295.208 7.6607C295.377 7.60766 295.885 7.88009 296.103 7.78486C296.309 7.69204 296.393 7.58837 296.502 7.38947C296.599 7.19057 296.732 7.2641 296.732 7.2641C296.732 7.2641 297.603 7.79812 298.354 6.7337C299.092 5.69098 298.281 5.24858 297.858 5.12442Z" fill="#FF0000"/>
<path fill-rule="evenodd" clip-rule="evenodd" d="M296.44 17.2801C296.466 17.2832 296.483 17.2852 296.49 17.2888C296.768 17.3853 297.083 17.6022 296.768 18.8439C296.441 20.0734 295.897 20.1699 295.897 20.1699H289.8C289.8 20.1699 289.245 20.0734 288.926 18.8439C288.605 17.6022 288.926 17.3853 289.202 17.2888C289.21 17.2852 289.227 17.2832 289.252 17.2803C289.397 17.2633 289.817 17.2143 290.418 16.6499C290.595 16.4812 290.892 16.1075 290.91 16.0351C291.053 15.5047 291.102 14.9261 291.089 14.01C291.072 12.9492 291.085 10.032 291.085 10.032L287.104 7.28473C287.104 7.28473 287.396 6.66874 287.86 6.64825C288.084 6.6386 291.691 6.65307 292.845 6.6591C293.997 6.65307 297.603 6.6386 297.833 6.64825C298.293 6.66874 298.583 7.28473 298.583 7.28473L294.602 10.032C294.602 10.032 294.614 12.9492 294.602 14.01C294.59 14.9261 294.638 15.5047 294.784 16.0351C294.796 16.1075 295.098 16.4812 295.268 16.6499C295.874 17.2127 296.297 17.263 296.44 17.2801ZM291.218 18.7458C291.295 18.8979 291.247 19.0733 291.109 19.1317L290.887 19.237C290.749 19.3072 290.576 19.237 290.499 19.0967L290.055 18.2429C289.977 18.0909 290.024 17.9155 290.161 17.8453L290.383 17.7401C290.52 17.6816 290.695 17.7401 290.772 17.8921L291.218 18.7458ZM290.212 18.1612L290.655 19.0125C290.695 19.0843 290.771 19.097 290.808 19.0783L290.81 19.0772L291.037 18.9693L291.041 18.9678C291.055 18.9619 291.067 18.9497 291.074 18.9259C291.081 18.9011 291.08 18.8653 291.061 18.827L290.615 17.9733C290.579 17.903 290.504 17.8834 290.455 17.9028L290.24 18.0046C290.205 18.0237 290.172 18.0832 290.212 18.1612ZM295.494 18.2429L295.045 19.0967C294.973 19.237 294.791 19.3072 294.657 19.237L294.439 19.1317C294.294 19.0733 294.257 18.8979 294.33 18.7458L294.779 17.8921C294.851 17.7401 295.021 17.6816 295.154 17.7401L295.385 17.8453C295.518 17.9155 295.567 18.0909 295.494 18.2429ZM294.474 18.9291C294.468 18.905 294.469 18.8673 294.488 18.8255L294.937 17.9722L294.938 17.9692C294.971 17.9005 295.04 17.8845 295.083 17.9027L295.306 18.0045C295.339 18.0244 295.371 18.0857 295.336 18.1633L294.889 19.0136L294.888 19.0145C294.853 19.0823 294.772 19.0967 294.74 19.0795L294.737 19.078L294.51 18.9688L294.505 18.9666C294.49 18.9604 294.48 18.9501 294.474 18.9291Z" fill="#FF0000"/>
<path d="M294.72 18.4641C294.927 18.1375 294.988 18.1496 295 18.1496C295.828 18.7665 296.376 19.7342 296.376 20.8107C296.376 22.6736 294.756 24.1856 292.771 24.1856C290.782 24.1856 289.17 22.6736 289.17 20.8107C289.17 19.7342 289.708 18.7665 290.545 18.1496C290.572 18.1375 290.692 18.077 290.819 18.4762C290.948 18.8753 290.944 18.9358 290.933 18.9479C290.385 19.4076 290.038 20.0729 290.038 20.8107C290.038 22.2018 291.263 23.3268 292.771 23.3268C294.281 23.3268 295.499 22.2018 295.499 20.8107C295.499 20.0608 295.146 19.3955 294.586 18.9237C294.586 18.9237 294.488 18.839 294.72 18.4641Z" fill="#FF0000"/>
<g clip-path="url(#clip1)">
<path d="M208.787 90.9936C208.787 95.6114 212.936 99.355 218.054 99.355C221.476 99.355 224.526 97.5824 226.13 95.0928L208.787 78.1313V90.9936V90.9936Z" fill="#FF0000"/>
<path fill-rule="evenodd" clip-rule="evenodd" d="M208.672 78.0151H227.43V90.9705C227.43 95.6505 223.227 99.4369 218.052 99.4369C212.877 99.4369 208.672 95.6505 208.672 90.9705V78.0151ZM208.897 78.2285V90.9705C208.897 95.5232 212.991 99.2234 218.052 99.2234C223.112 99.2234 227.205 95.5233 227.205 90.9705V78.2285H208.897Z" fill="#FF0000"/>
</g>
<path d="M142.139 159.613L144.701 179.677L145.461 179.595L143.085 159.511L142.139 159.613Z" fill="#FF0000"/>
<path fill-rule="evenodd" clip-rule="evenodd" d="M144.701 179.677L142.139 159.613L143.085 159.511L145.461 179.595L144.701 179.677ZM144.847 179.497L142.326 159.757L142.937 159.691L145.275 179.451L144.847 179.497Z" fill="#FF0000"/>
<path d="M142.497 158.853C142.009 158.913 141.648 159.234 141.691 159.571C141.736 159.907 142.168 160.131 142.655 160.071C142.943 160.037 143.2 159.908 143.344 159.728C143.436 159.612 143.478 159.482 143.461 159.354C143.417 159.017 142.984 158.793 142.497 158.853Z" fill="#FF0000"/>
<path fill-rule="evenodd" clip-rule="evenodd" d="M142.518 159.015L142.518 159.015C142.304 159.041 142.126 159.123 142.008 159.228C141.891 159.333 141.845 159.448 141.858 159.55C141.871 159.652 141.946 159.753 142.086 159.826C142.227 159.899 142.421 159.936 142.634 159.91L142.635 159.91C142.888 159.879 143.1 159.767 143.212 159.629C143.281 159.54 143.304 159.453 143.294 159.374L143.294 159.374C143.281 159.272 143.207 159.171 143.066 159.098C142.926 159.025 142.731 158.988 142.518 159.015ZM143.344 159.728C143.2 159.908 142.943 160.037 142.655 160.071C142.168 160.131 141.736 159.907 141.691 159.571C141.648 159.234 142.009 158.913 142.497 158.853C142.984 158.793 143.417 159.017 143.461 159.354C143.478 159.482 143.436 159.612 143.344 159.728Z" fill="#FF0000"/>
<path d="M143.163 163.959C142.692 164.018 142.345 164.33 142.388 164.654C142.432 164.978 142.849 165.195 143.319 165.136C143.79 165.078 144.136 164.766 144.094 164.441C144.051 164.117 143.634 163.901 143.163 163.959Z" fill="#FF0000"/>
<path fill-rule="evenodd" clip-rule="evenodd" d="M143.319 165.136C143.79 165.078 144.136 164.766 144.094 164.441C144.051 164.117 143.634 163.901 143.163 163.959C142.692 164.018 142.345 164.33 142.388 164.654C142.432 164.978 142.849 165.195 143.319 165.136ZM143.185 164.121C143.389 164.095 143.575 164.131 143.71 164.2C143.845 164.27 143.915 164.366 143.927 164.462C143.94 164.558 143.897 164.668 143.785 164.769C143.673 164.869 143.502 164.949 143.298 164.974L143.298 164.975C143.094 165 142.907 164.965 142.773 164.895C142.638 164.825 142.568 164.729 142.555 164.633L142.555 164.633C142.542 164.537 142.585 164.427 142.697 164.327C142.809 164.226 142.98 164.146 143.185 164.121" fill="#FF0000"/>
<path d="M152.108 163.433L152.24 162.459L151.923 163.125H150.984L150.721 162.51L150.838 163.433H152.108Z" fill="white"/>
<path fill-rule="evenodd" clip-rule="evenodd" d="M151.383 163.108C152.873 163.108 154.082 162.039 154.082 160.72C154.082 159.401 152.873 158.332 151.383 158.332C149.892 158.332 148.684 159.401 148.684 160.72C148.684 162.039 149.892 163.108 151.383 163.108ZM151.33 162.346C152.324 162.346 153.13 161.618 153.13 160.72C153.13 159.822 152.324 159.094 151.33 159.094C150.335 159.094 149.529 159.822 149.529 160.72C149.529 161.618 150.335 162.346 151.33 162.346Z" fill="#FF0000"/>
<path fill-rule="evenodd" clip-rule="evenodd" d="M152.115 160.689L152.115 160.689C152.148 160.493 152.127 160.381 152.094 160.316C152.064 160.257 152.016 160.22 151.94 160.195C151.859 160.168 151.757 160.159 151.638 160.158C151.581 160.158 151.525 160.16 151.467 160.161L151.461 160.161C151.402 160.163 151.342 160.165 151.285 160.164C150.905 160.157 150.728 160.257 150.646 160.331C150.604 160.37 150.582 160.407 150.57 160.433C150.564 160.445 150.561 160.455 150.559 160.46C150.559 160.462 150.559 160.463 150.558 160.464L150.558 160.464C150.558 160.464 150.558 160.464 150.558 160.464L150.558 160.464L150.558 160.464L150.558 160.464L150.558 160.468C150.557 160.472 150.556 160.478 150.555 160.486C150.553 160.503 150.55 160.529 150.547 160.563C150.54 160.631 150.535 160.731 150.538 160.856C150.544 161.107 150.583 161.457 150.717 161.854C150.724 161.873 150.731 161.889 150.737 161.904C150.758 161.955 150.771 161.987 150.787 162.015C150.803 162.042 150.814 162.052 150.832 162.061C150.856 162.073 150.904 162.087 151.004 162.094C151.103 162.101 151.238 162.101 151.427 162.095C151.586 162.089 151.704 162.079 151.794 162.06C151.882 162.042 151.933 162.018 151.965 161.992C152.029 161.94 152.074 161.842 152.106 161.566L152.106 161.559L152.108 161.553C152.122 161.48 152.124 161.381 152.122 161.293C152.121 161.25 152.119 161.212 152.117 161.186C152.116 161.172 152.115 161.162 152.114 161.155L152.114 161.147L152.113 161.146L152.113 161.145L152.112 161.136C152.111 161.129 152.11 161.118 152.109 161.104C152.106 161.078 152.103 161.04 152.101 160.997C152.097 160.912 152.097 160.795 152.115 160.689ZM152.28 161.129C152.28 161.129 152.308 161.402 152.273 161.583C152.21 162.13 152.081 162.235 151.433 162.257C150.71 162.282 150.684 162.218 150.578 161.956C150.572 161.942 150.565 161.926 150.559 161.91C150.276 161.076 150.393 160.436 150.393 160.436C150.393 160.436 150.463 159.987 151.289 160.001C151.342 160.002 151.402 160 151.463 159.999C151.876 159.987 152.407 159.973 152.28 160.715C152.25 160.894 152.28 161.129 152.28 161.129Z" fill="#FF0000"/>
<path d="M149.231 178.531C149.231 178.531 148.384 178.531 147.905 178.529C147.585 178.964 146.616 178.834 146.358 178.848C146.131 178.861 145.975 179.003 145.975 179.232C145.975 179.463 146.171 179.619 146.383 179.619H148.816C149.112 179.619 149.2 179.361 149.2 179.361L149.231 178.531Z" fill="#FF0000"/>
<path fill-rule="evenodd" clip-rule="evenodd" d="M149.062 178.531C149.166 178.531 149.231 178.531 149.231 178.531L149.2 179.361C149.2 179.361 149.112 179.619 148.816 179.619H146.383C146.171 179.619 145.975 179.463 145.975 179.232C145.975 179.003 146.131 178.861 146.358 178.848C146.405 178.845 146.475 178.848 146.561 178.85C146.947 178.863 147.643 178.885 147.905 178.529C148.252 178.531 148.791 178.531 149.062 178.531ZM149.057 178.694C148.973 178.694 148.866 178.694 148.747 178.694C148.505 178.694 148.215 178.693 147.984 178.692C147.884 178.797 147.755 178.867 147.622 178.913C147.463 178.97 147.287 178.996 147.121 179.009C146.955 179.021 146.793 179.02 146.659 179.016C146.617 179.015 146.579 179.014 146.545 179.013C146.465 179.01 146.406 179.008 146.367 179.01C146.288 179.015 146.234 179.041 146.2 179.074C146.168 179.105 146.143 179.155 146.143 179.232C146.143 179.361 146.252 179.457 146.383 179.457H148.816C148.906 179.457 148.959 179.42 148.993 179.382C149.012 179.362 149.025 179.342 149.033 179.326C149.033 179.326 149.033 179.325 149.034 179.325L149.057 178.694Z" fill="#FF0000"/>
<path fill-rule="evenodd" clip-rule="evenodd" d="M143.852 166.035V167.058L146.367 167.049L146.267 166.026L142.948 166.023C142.95 166.024 142.952 166.026 142.955 166.027C142.962 166.03 142.975 166.035 142.997 166.035H143.852ZM142.759 166.023C142.781 166.105 142.851 166.197 142.997 166.197H143.684V167.221L146.552 167.211L146.42 165.863L142.752 165.86V165.967C142.752 165.984 142.754 166.003 142.759 166.023Z" fill="#FF0000"/>
<path fill-rule="evenodd" clip-rule="evenodd" d="M146.093 167.212L143.684 167.221V166.197H142.997C142.816 166.197 142.752 166.055 142.752 165.967V165.86L145.498 165.862C147.463 165.642 149.713 164.891 150.749 162.459C151.828 162.459 152.131 162.389 152.131 162.389C152.131 162.389 152.528 162.898 154.425 163.866C154.784 164.049 155.879 167.852 155.879 167.852C155.879 167.852 156.081 168.605 155.516 168.668C154.95 168.73 153.925 168.689 153.925 168.689C153.925 168.689 155.244 178.764 155.253 178.85C155.188 178.867 154.839 179.045 154.411 179.262L154.411 179.262L154.411 179.262L154.411 179.262L154.411 179.262L154.216 179.361C153.708 179.617 153.133 179.905 152.795 179.986C152.773 179.992 152.523 180.052 152.408 179.829C152.292 179.608 152.45 179.44 152.45 179.44L153.56 178.492C153.56 178.492 153.591 178.438 153.589 178.402C153.587 178.364 153.538 178.35 153.538 178.35L151.724 178.336L150.018 169.812L149.818 169.855L151.473 178.362L147.931 178.364L148.867 167.22L146.093 167.212ZM150.693 165.624H153.073V167.175H150.693V165.624ZM150.589 165.624H150.231V167.175H150.589V165.624ZM149.914 165.624H150.138V167.175H149.914V165.624ZM151.836 168.376L151.689 167.278L150.905 167.283H150.173C150.142 167.283 150.116 167.315 150.116 167.352C150.116 167.391 150.141 167.422 150.173 167.422H150.755C150.755 167.422 150.77 167.52 150.727 167.522C150.727 167.522 150.085 167.533 150.056 167.533C150.027 167.533 149.843 167.377 149.843 167.377C149.832 167.366 149.828 167.361 149.824 167.355C149.816 167.345 149.813 167.328 149.813 167.328C149.813 167.296 149.803 167.267 149.766 167.265C149.729 167.263 149.7 167.286 149.696 167.318C149.688 167.382 149.697 167.394 149.703 167.401L149.704 167.403L149.704 167.403C149.709 167.411 149.717 167.424 149.938 167.638C149.949 167.653 149.977 167.662 149.995 167.662L150.581 167.659L150.586 167.764H149.99C149.959 167.764 149.933 167.795 149.933 167.834C149.933 167.872 149.958 167.903 149.99 167.903H150.592L150.597 168.001H150.018C149.987 168.001 149.961 168.032 149.961 168.069C149.961 168.108 149.986 168.138 150.018 168.138H150.604L150.608 168.242H150.056C150.023 168.242 149.998 168.273 149.998 168.31C149.998 168.349 150.023 168.38 150.056 168.38H150.8C150.801 168.38 150.802 168.379 150.804 168.379C150.805 168.378 150.807 168.377 150.809 168.377H151.836V168.376ZM145.188 167.106L145.078 165.969L142.861 165.967C142.861 166.011 142.89 166.093 142.997 166.093H143.793V167.108L145.188 167.106Z" fill="#FF0000"/>
<path fill-rule="evenodd" clip-rule="evenodd" d="M143.793 167.108L145.188 167.105L145.078 165.969L142.861 165.967C142.861 166.011 142.89 166.093 142.997 166.093H143.793V167.108ZM143.961 166.131V166.945L145.004 166.943L144.925 166.132L143.961 166.131Z" fill="#FF0000"/>
<path fill-rule="evenodd" clip-rule="evenodd" d="M143.054 166.26C143.05 166.264 143.047 166.27 143.047 166.28C143.047 166.289 143.05 166.295 143.054 166.299C143.057 166.302 143.06 166.302 143.061 166.302H143.756C143.758 166.302 143.761 166.302 143.764 166.298C143.768 166.295 143.771 166.289 143.771 166.28C143.771 166.27 143.767 166.264 143.764 166.26C143.761 166.257 143.758 166.257 143.756 166.257H143.061C143.06 166.257 143.057 166.257 143.054 166.26ZM142.879 166.28C142.879 166.177 142.961 166.094 143.061 166.094H143.756C143.858 166.094 143.939 166.176 143.939 166.28C143.939 166.382 143.858 166.465 143.756 166.465H143.061C142.961 166.465 142.879 166.382 142.879 166.28Z" fill="#FF0000"/>
<path d="M143.109 166.381C143.008 166.381 142.928 166.463 142.928 166.565C142.928 166.666 143.008 166.748 143.109 166.748H143.781C143.88 166.748 143.962 166.666 143.962 166.565C143.962 166.463 143.88 166.381 143.781 166.381H143.109Z" fill="#FF0000"/>
<path fill-rule="evenodd" clip-rule="evenodd" d="M143.137 166.66C143.038 166.66 142.959 166.736 142.959 166.83C142.959 166.922 143.038 166.999 143.137 166.999H143.815C143.914 166.999 143.994 166.922 143.994 166.83C143.994 166.736 143.914 166.66 143.815 166.66H143.137ZM143.064 166.83C143.064 166.795 143.097 166.767 143.137 166.767H143.815C143.856 166.767 143.887 166.795 143.887 166.83C143.887 166.866 143.856 166.893 143.815 166.893H143.137C143.097 166.893 143.064 166.866 143.064 166.83Z" fill="#FF0000"/>
<path d="M150.857 160.963C150.857 161.022 150.807 161.07 150.748 161.07C150.688 161.07 150.639 161.022 150.639 160.963C150.639 160.904 150.688 160.857 150.748 160.857C150.807 160.857 150.857 160.904 150.857 160.963Z" fill="#FF0000"/>
<path d="M151.85 160.963C151.85 161.022 151.801 161.07 151.74 161.07C151.681 161.07 151.631 161.022 151.631 160.963C151.631 160.904 151.681 160.857 151.74 160.857C151.801 160.857 151.85 160.904 151.85 160.963Z" fill="#FF0000"/>
<path d="M151.445 160.609C151.422 160.628 151.42 160.661 151.438 160.684C151.458 160.707 151.525 160.727 151.548 160.708C151.555 160.703 151.74 160.605 151.786 160.614C151.869 160.629 151.969 160.657 152.085 160.713C152.112 160.726 152.144 160.725 152.162 160.702C152.181 160.678 152.166 160.632 152.14 160.615C151.77 160.355 151.449 160.607 151.445 160.609Z" fill="#FF0000"/>
<path d="M150.597 160.605C150.57 160.616 150.557 160.647 150.569 160.675C150.581 160.702 150.633 160.723 150.661 160.711C150.72 160.687 150.873 160.628 150.966 160.69C151.02 160.728 151.043 160.805 151.035 160.921C151 161.403 151.003 161.542 151.003 161.548C151.004 161.577 151.027 161.6 151.056 161.601L151.506 161.618C151.536 161.619 151.539 161.512 151.51 161.511C151.51 161.511 151.199 161.521 151.116 161.518C151.118 161.444 151.122 161.255 151.146 160.929C151.147 160.911 151.147 160.895 151.147 160.878C151.147 160.75 151.163 160.657 151.086 160.602C150.915 160.48 150.608 160.599 150.597 160.605Z" fill="#FF0000"/>
<path d="M151.057 162.004C151.012 162.004 150.975 162.04 150.975 162.084C150.975 162.128 151.012 162.164 151.057 162.164H151.555C151.601 162.164 151.638 162.128 151.638 162.084C151.638 162.04 151.601 162.004 151.555 162.004H151.057Z" fill="#FF0000"/>
<path d="M78.6387 85.6168H77.322V86.6634H75.2807V85.6168H74.3621V86.6634H72.1166V85.4764H72.9433V84.5313H72.1166V83.3326H74.3621V84.3791H75.2807V83.3326H76.4953V82.4128H75.2807V81.3663H74.3621V82.4128H72.1166V81.2268H72.9433V80.2817H72.1166V79.0957H74.3621V80.1286H75.2807V79.0957H77.322V80.1286H78.6387V85.6168Z" fill="#FF0000"/>
<path d="M82.1217 85.6168H83.4302V86.6634H85.4736V85.6168H86.3952V86.6634H88.6387V85.4764H87.8109V84.5313H88.6387V83.3326H86.3952V84.3791H85.4736V83.3326H84.2579V82.4128H85.4736V81.3663H86.3952V82.4128H88.6387V81.2268H87.8109V80.2817H88.6387V79.0957H86.3952V80.1286H85.4736V79.0957H83.4302V80.1286H82.1217V85.6168Z" fill="#FF0000"/>
<path d="M80.169 78.0623L80.1567 90.6734C80.1567 90.6929 80.1394 91.9609 78.7819 91.9609C78.047 91.9609 77.7204 91.7268 77.4142 91.5122C77.0671 91.2684 76.7201 91.0246 75.8219 91.0148C75.4953 91.0148 74.7298 91.0538 74.2297 91.5317C73.903 91.8438 73.7397 92.273 73.7397 92.8289C73.7397 93.3361 74.0868 93.8335 74.6481 94.1359C75.3932 94.5163 76.3016 94.487 77.0365 94.0189L77.2202 93.9018C77.6387 93.6287 78.2205 93.2483 78.9043 93.5702C79.3432 93.775 79.578 94.1261 79.5474 94.5358C79.5474 94.7894 79.4657 94.9357 79.3636 95.1015C79.2105 95.3453 79.0268 95.6477 79.0268 96.467C79.0268 96.9546 79.1901 97.8032 80.2486 97.8909C81.0967 97.969 81.7153 97.179 81.7194 96.467C81.7245 95.6477 81.5346 95.3453 81.3866 95.1015C81.2856 94.9357 81.1988 94.7894 81.1988 94.5455C81.1713 94.1261 81.407 93.775 81.8469 93.5702C82.5287 93.2483 83.1034 93.6287 83.528 93.9018L83.7097 94.0189C84.4517 94.4968 85.355 94.5163 86.096 94.1359C86.6604 93.8335 87.0105 93.3361 87.0105 92.8289C87.0105 92.273 86.8452 91.8438 86.5206 91.5317C86.0164 91.0538 85.2519 91.0148 84.9467 91.0148C84.0291 91.0246 83.678 91.2684 83.3381 91.5122C83.0227 91.7268 82.6972 91.9609 81.9674 91.9609C80.6089 91.9609 80.5915 90.6929 80.5915 90.6734L80.5803 78.0623L82.247 78.0557V90.0231C82.247 90.2377 82.3083 90.384 82.4206 90.4327C82.5502 90.4912 82.7502 90.4132 82.9676 90.2279C83.5433 89.7305 84.515 89.5062 85.2223 89.5062C85.9347 89.5062 88.5977 90.0621 88.5977 92.8126C88.5977 94.2853 87.4392 95.8751 84.8936 95.8751C84.1128 95.8751 83.3575 95.4947 82.9493 95.2216C83.1616 95.5825 83.3034 96.0019 83.3034 96.4506C83.3034 96.831 83.2289 97.2211 83.0748 97.6015C82.6584 98.6061 81.7928 99.2595 80.7007 99.3766C80.6058 99.3961 80.4588 99.3961 80.3639 99.3961C80.27 99.3961 80.1792 99.3961 80.0965 99.3863C78.9554 99.2595 78.0878 98.6061 77.6693 97.6015C77.5162 97.2308 77.4448 96.831 77.4448 96.4603C77.4448 96.0019 77.5877 95.5825 77.802 95.2216C77.3937 95.4947 76.6384 95.8751 75.8525 95.8751C73.3111 95.8751 72.1475 94.2853 72.1475 92.8126C72.1475 90.0621 74.8114 89.5062 75.5259 89.5062C76.2302 89.5062 77.21 89.7305 77.7816 90.2279C77.9959 90.4132 78.2001 90.4912 78.3328 90.4327C78.4348 90.384 78.4961 90.2377 78.4961 90.0231V78.0557L80.169 78.0623Z" fill="#FF0000"/>
<path d="M77.6795 88.3749C77.6795 88.6577 77.9142 88.882 78.2 88.882H82.5348C82.8267 88.882 83.0625 88.6577 83.0625 88.3749C83.0625 88.092 82.8267 87.8677 82.5348 87.8677H78.2C77.9142 87.8677 77.6795 88.092 77.6795 88.3749Z" fill="#FF0000"/>
<path fill-rule="evenodd" clip-rule="evenodd" d="M18.0577 158.657H9.44725H0.847656V171.585C0.847656 176.231 4.70009 179.998 9.45275 179.998C14.2049 179.998 18.0577 176.231 18.0577 171.585V158.657ZM14.7394 161.829H17.2386V162.67H14.7394V165.21H13.9257V162.67H11.4331V161.829H13.9257V159.3H14.7394V161.829Z" fill="#FF0000"/>
<path d="M291.193 166.218H289.877V167.265H287.835V166.218H286.917V167.265H284.671V166.078H285.498V165.133H284.671V163.934H286.917V164.981H287.835V163.934H289.05V163.014H287.835V161.968H286.917V163.014H284.671V161.828H285.498V160.883H284.671V159.697H286.917V160.73H287.835V159.697H289.877V160.73H291.193V166.218Z" fill="#FF0000"/>
<path d="M294.676 166.218H295.985V167.265H298.028V166.218H298.95V167.265H301.193V166.078H300.366V165.133H301.193V163.934H298.95V164.981H298.028V163.934H296.813V163.014H298.028V161.968H298.95V163.014H301.193V161.828H300.366V160.883H301.193V159.697H298.95V160.73H298.028V159.697H295.985V160.73H294.676V166.218Z" fill="#FF0000"/>
<path d="M292.724 158.664L292.711 171.275C292.711 171.295 292.694 172.562 291.337 172.562C290.602 172.562 290.275 172.328 289.969 172.114C289.622 171.87 289.275 171.626 288.377 171.616C288.05 171.616 287.284 171.655 286.784 172.133C286.458 172.445 286.294 172.875 286.294 173.431C286.294 173.938 286.641 174.435 287.203 174.737C287.948 175.118 288.856 175.089 289.591 174.62L289.775 174.503C290.193 174.23 290.775 173.85 291.459 174.172C291.898 174.377 292.133 174.728 292.102 175.137C292.102 175.391 292.02 175.537 291.918 175.703C291.765 175.947 291.582 176.249 291.582 177.069C291.582 177.556 291.745 178.405 292.803 178.493C293.651 178.571 294.27 177.781 294.274 177.069C294.279 176.249 294.089 175.947 293.941 175.703C293.84 175.537 293.753 175.391 293.753 175.147C293.726 174.728 293.962 174.377 294.402 174.172C295.083 173.85 295.658 174.23 296.083 174.503L296.264 174.62C297.006 175.098 297.91 175.118 298.651 174.737C299.215 174.435 299.565 173.938 299.565 173.431C299.565 172.875 299.4 172.445 299.075 172.133C298.571 171.655 297.807 171.616 297.501 171.616C296.584 171.626 296.233 171.87 295.893 172.114C295.577 172.328 295.252 172.562 294.522 172.562C293.164 172.562 293.146 171.295 293.146 171.275L293.135 158.664L294.802 158.657V170.625C294.802 170.839 294.863 170.986 294.975 171.034C295.105 171.093 295.305 171.015 295.522 170.829C296.098 170.332 297.07 170.108 297.777 170.108C298.489 170.108 301.152 170.664 301.152 173.414C301.152 174.887 299.994 176.477 297.448 176.477C296.668 176.477 295.912 176.096 295.504 175.823C295.716 176.184 295.858 176.603 295.858 177.052C295.858 177.433 295.784 177.823 295.629 178.203C295.213 179.208 294.348 179.861 293.255 179.978C293.16 179.998 293.014 179.998 292.919 179.998C292.825 179.998 292.734 179.998 292.651 179.988C291.51 179.861 290.642 179.208 290.224 178.203C290.071 177.832 289.999 177.433 289.999 177.062C289.999 176.603 290.142 176.184 290.357 175.823C289.948 176.096 289.193 176.477 288.407 176.477C285.866 176.477 284.702 174.887 284.702 173.414C284.702 170.664 287.366 170.108 288.081 170.108C288.785 170.108 289.765 170.332 290.336 170.829C290.551 171.015 290.755 171.093 290.887 171.034C290.99 170.986 291.051 170.839 291.051 170.625V158.657L292.724 158.664Z" fill="#FF0000"/>
<path d="M290.234 168.976C290.234 169.259 290.469 169.484 290.755 169.484H295.089C295.381 169.484 295.617 169.259 295.617 168.976C295.617 168.694 295.381 168.469 295.089 168.469H290.755C290.469 168.469 290.234 168.694 290.234 168.976Z" fill="#FF0000"/>
<defs>
<clipPath id="clip0">
<rect width="17.8984" height="21.3404" fill="white"/>
</clipPath>
<clipPath id="clip1">
<rect width="18.6729" height="21.3404" fill="white" transform="translate(208.715 78.0557)"/>
</clipPath>
</defs>
</svg>
