<svg width="277" height="160" viewBox="0 0 277 160" fill="none" xmlns="http://www.w3.org/2000/svg">
<path fill-rule="evenodd" clip-rule="evenodd" d="M18 7.00014V12.9999H11.7003V20H6.30096V12.9999H0V7.00014H6.30096V0H11.699L11.7003 7.00014H18Z" fill="#FF0000"/>
<path fill-rule="evenodd" clip-rule="evenodd" d="M277 7.00014V12.9999H271.05V20H265.951V12.9999H260V7.00014H265.951V0H271.049L271.05 7.00014H277Z" fill="#FF0000"/>
<path fill-rule="evenodd" clip-rule="evenodd" d="M147 7.00014V12.9999H141.05V20H135.951V12.9999H130V7.00014H135.951V0H141.049L141.05 7.00014H147Z" fill="#FF0000"/>
<path fill-rule="evenodd" clip-rule="evenodd" d="M18 147V153H11.7003V160H6.30096V153H0V147H6.30096V140H11.699L11.7003 147H18Z" fill="#FF0000"/>
<path fill-rule="evenodd" clip-rule="evenodd" d="M277 147V153H271.05V160H265.951V153H260V147H265.951V140H271.049L271.05 147H277Z" fill="#FF0000"/>
<path fill-rule="evenodd" clip-rule="evenodd" d="M147 147V153H141.05V160H135.951V153H130V147H135.951V140H141.049L141.05 147H147Z" fill="#FF0000"/>
<path fill-rule="evenodd" clip-rule="evenodd" d="M81 77.0001V82.9999H74.7003V90H69.301V82.9999H63V77.0001H69.301V70H74.699L74.7003 77.0001H81Z" fill="#FF0000"/>
<path fill-rule="evenodd" clip-rule="evenodd" d="M211 77.0001V82.9999H204.7V90H199.301V82.9999H193V77.0001H199.301V70H204.699L204.7 77.0001H211Z" fill="#FF0000"/>
</svg>
