<svg width="488" height="218" viewBox="0 0 488 218" fill="none" xmlns="http://www.w3.org/2000/svg">
<path fill-rule="evenodd" clip-rule="evenodd" d="M481 20L475 20L475 13.0004L468 13.0004L468 7.00106L475 7.00106L475 -5.68242e-07L481 -3.05986e-07L481 7.00106L488 7.00106L488 12.9989L481 13.0004L481 20Z" fill="#FF0000"/>
<path fill-rule="evenodd" clip-rule="evenodd" d="M223 25L217 25L217 18.0004L210 18.0004L210 12.0011L217 12.0011L217 5L223 5L223 12.0011L230 12.0011L230 17.9989L223 18.0004L223 25Z" fill="#FF0000"/>
<path fill-rule="evenodd" clip-rule="evenodd" d="M481 150L475 150L475 143L468 143L468 137.001L475 137.001L475 130L481 130L481 137.001L488 137.001L488 142.999L481 143L481 150Z" fill="#FF0000"/>
<path fill-rule="evenodd" clip-rule="evenodd" d="M223 154L217 154L217 147L210 147L210 141.001L217 141.001L217 134L223 134L223 141.001L230 141.001L230 146.999L223 147L223 154Z" fill="#FF0000"/>
<path fill-rule="evenodd" clip-rule="evenodd" d="M341 20L335 20L335 13.0004L328 13.0004L328 7.00106L335 7.00106L335 -5.68242e-07L341 -3.05986e-07L341 7.00106L348 7.00106L348 12.9989L341 13.0004L341 20Z" fill="#FF0000"/>
<path fill-rule="evenodd" clip-rule="evenodd" d="M82.9999 25L77.0001 25L77.0001 18.0004L70 18.0004L70 12.0011L77.0001 12.0011L77.0001 5L82.9999 5L82.9999 12.0011L90 12.0011L90 17.9989L82.9999 18.0004L82.9999 25Z" fill="#FF0000"/>
<path fill-rule="evenodd" clip-rule="evenodd" d="M341 150L335 150L335 143L328 143L328 137.001L335 137.001L335 130L341 130L341 137.001L348 137.001L348 142.999L341 143L341 150Z" fill="#FF0000"/>
<path fill-rule="evenodd" clip-rule="evenodd" d="M82.9999 154L77.0001 154L77.0001 147L70 147L70 141.001L77.0001 141.001L77.0001 134L82.9999 134L82.9999 141.001L90 141.001L90 146.999L82.9999 147L82.9999 154Z" fill="#FF0000"/>
<path fill-rule="evenodd" clip-rule="evenodd" d="M411 83L405 83L405 76.0004L398 76.0004L398 70.0011L405 70.0011L405 63L411 63L411 70.0011L418 70.0011L418 75.9989L411 76.0004L411 83Z" fill="#FF0000"/>
<path fill-rule="evenodd" clip-rule="evenodd" d="M153 88L147 88L147 81.0004L140 81.0004L140 75.0011L147 75.0011L147 68L153 68L153 75.0011L160 75.0011L160 80.9989L153 81.0004L153 88Z" fill="#FF0000"/>
<path fill-rule="evenodd" clip-rule="evenodd" d="M411 213L405 213L405 206L398 206L398 200.001L405 200.001L405 193L411 193L411 200.001L418 200.001L418 205.999L411 206L411 213Z" fill="#FF0000"/>
<path fill-rule="evenodd" clip-rule="evenodd" d="M153 218L147 218L147 211L140 211L140 205.001L147 205.001L147 198L153 198L153 205.001L160 205.001L160 210.999L153 211L153 218Z" fill="#FF0000"/>
<path fill-rule="evenodd" clip-rule="evenodd" d="M273 82L267 82L267 75.0004L260 75.0004L260 69.0011L267 69.0011L267 62L273 62L273 69.0011L280 69.0011L280 74.9989L273 75.0004L273 82Z" fill="#FF0000"/>
<path fill-rule="evenodd" clip-rule="evenodd" d="M12.9999 87L7.00014 87L7.00014 80.0004L-1.01397e-06 80.0004L-7.51733e-07 74.0011L7.00014 74.0011L7.00014 67L12.9999 67L12.9999 74.0011L20 74.0011L20 79.9989L12.9999 80.0004L12.9999 87Z" fill="#FF0000"/>
<path fill-rule="evenodd" clip-rule="evenodd" d="M273 212L267 212L267 205L260 205L260 199.001L267 199.001L267 192L273 192L273 199.001L280 199.001L280 204.999L273 205L273 212Z" fill="#FF0000"/>
<path fill-rule="evenodd" clip-rule="evenodd" d="M12.9999 217L7.00014 217L7.00014 210L-1.01397e-06 210L-7.51733e-07 204.001L7.00014 204.001L7.00014 197L12.9999 197L12.9999 204.001L20 204.001L20 209.999L12.9999 210L12.9999 217Z" fill="#FF0000"/>
</svg>
