<svg xmlns="http://www.w3.org/2000/svg" viewBox="0 0 24 24" fill="currentColor">
<path d="M10.988 24c-.827 0-1.5-.673-1.5-1.5v-9.743L1.779 2.399c-.193-.257-.299-.576-.299-.899 0-.827.673-1.5 1.5-1.5h18.019c.323 0 .642.106.9.3.661.496.796 1.438.301 2.099l-7.712 10.356V21c0 .469-.224.918-.6 1.2l-2 1.5c-.258.194-.578.3-.9.3zM2.98 1c-.276 0-.5.224-.5.5 0 .108.036.214.1.3l7.809 10.493c.064.085.099.191.099.298V22.5c0 .276.224.5.5.5.108 0 .214-.035.3-.1l2-1.5c.125-.094.2-.244.2-.4v-8.41c0-.107.035-.213.099-.299L21.399 1.8c.165-.22.12-.535-.1-.7-.086-.064-.192-.1-.3-.1H2.98z"/>
</svg>
