<svg width="86" height="133" viewBox="0 0 86 133" fill="none" xmlns="http://www.w3.org/2000/svg">
<path d="M74.1343 15.674C74.1343 23.4567 67.2067 29.8456 58.5622 29.8456C49.9166 29.8456 42.989 23.4567 42.989 15.674C42.989 7.88645 49.9166 1.5 58.5622 1.5C67.207 1.5 74.1343 7.88642 74.1343 15.674Z" fill="#FF0000" stroke="#FF0000"/>
<path d="M58.5622 1.00209C67.4414 1.00209 74.6366 7.5705 74.6366 15.6737C74.6366 23.7768 67.4414 30.3453 58.5622 30.3453C49.6851 30.3453 42.489 23.7768 42.489 15.6737C42.489 7.5705 49.6854 1.00209 58.5622 1.00209Z" stroke="#FF0000" stroke-miterlimit="10"/>
<path d="M18.7191 129.583L3.58526 7.31418L8.2231 6.79667L22.2585 129.191L18.7191 129.583Z" fill="#FF0000" stroke="#FF0000"/>
<path d="M5.22165 2.69815L5.2227 2.69802C6.58309 2.52382 7.84649 2.76356 8.78446 3.26614C9.72385 3.76948 10.2988 4.51007 10.4034 5.33974L10.4034 5.3398C10.4839 5.978 10.2918 6.64321 9.81111 7.27189C9.049 8.2481 7.65036 8.99002 6.04117 9.19054L6.04024 9.19066C4.68071 9.36267 3.41764 9.12271 2.47917 8.62029C1.53964 8.1173 0.963334 7.3775 0.856417 6.54751C0.75302 5.71762 1.12652 4.85774 1.91139 4.13673C2.69536 3.41655 3.85976 2.86962 5.22165 2.69815Z" fill="#FF0000" stroke="#FF0000"/>
<path d="M5.00985 37.7777L5.00986 37.7778C5.11271 38.5712 5.66476 39.2808 6.56834 39.7634C7.47047 40.2453 8.68529 40.4749 9.99355 40.3066L9.99422 40.3065C11.3032 40.1398 12.4192 39.6103 13.1691 38.9153C13.9201 38.2195 14.2747 37.392 14.1749 36.5973C14.0728 35.8046 13.5216 35.0954 12.6183 34.6128C11.7162 34.131 10.5009 33.9013 9.19141 34.0696L5.00985 37.7777ZM5.00985 37.7777C4.90707 36.9854 5.26018 36.1596 6.01199 35.4637M5.00985 37.7777L6.01199 35.4637M6.01199 35.4637C6.76256 34.769 7.88057 34.2386 9.19126 34.0696L6.01199 35.4637Z" fill="#FF0000" stroke="#FF0000"/>
<path d="M20.9813 45.4702C33.1292 44.4197 47.7673 40.178 54.3022 24.3586C60.7283 24.3586 62.5305 23.9266 62.5305 23.9266C62.5305 23.9266 64.8979 27.0504 76.1934 32.9982C78.3339 34.1217 84.8525 57.4874 84.8525 57.4874C84.8525 57.4874 86.0573 62.1112 82.6888 62.5003C79.3207 62.8789 73.2143 62.6302 73.2143 62.6302C73.2143 62.6302 81.0696 124.523 81.1277 125.051C80.6829 125.177 78.0075 126.594 74.9519 128.193C71.9218 129.768 68.5027 131.533 66.4872 132.033C66.3574 132.071 64.8656 132.436 64.1801 131.07C63.4942 129.712 64.4348 128.679 64.4348 128.679L71.0414 122.855C71.0414 122.855 71.2267 122.524 71.2175 122.299C71.2012 122.068 70.9095 121.98 70.9095 121.98L60.1098 121.896L49.9494 69.5286L48.7565 69.796L58.6133 122.053L37.52 122.067L43.0972 53.6048L21.6855 53.5446C21.6879 53.5446 21.0403 46.1015 20.9813 45.4702Z" fill="#FF0000"/>
<path d="M62.3987 30.3387L63.1815 24.3562L61.296 28.4485H55.706L54.1354 24.6714L54.8352 30.3387H62.3987Z" fill="white"/>
<path d="M68.1435 43.7979H53.9709V53.3293H68.1435V43.7979Z" fill="white"/>
<path d="M53.3476 43.7979H51.2187V53.3293H53.3476V43.7979Z" fill="white"/>
<path d="M50.6652 43.7979H49.3285V53.3293H50.6652V43.7979Z" fill="white"/>
<path d="M68.4706 15.674C68.4706 20.8827 63.9266 25.1606 58.2474 25.1606C52.5637 25.1606 48.0207 20.8829 48.0207 15.674C48.0207 10.4663 52.5636 6.18496 58.2474 6.18496C63.9261 6.18496 68.4706 10.466 68.4706 15.674Z" fill="white" stroke="#FF0000"/>
<path d="M58.0087 11.2553C58.33 11.2615 58.6825 11.2515 59.0508 11.2411C61.5083 11.1714 64.6673 11.0819 63.9159 15.6452C63.7353 16.742 63.9159 18.1863 63.9159 18.1863M58.0087 11.2553C53.0907 11.1717 52.6762 13.9263 52.6762 13.9263M58.0087 11.2553L57.9991 11.7552C57.9993 11.7552 57.9995 11.7552 57.9997 11.7552M58.0087 11.2553L58.0002 11.7552C58 11.7552 57.9999 11.7552 57.9997 11.7552M52.6762 13.9263C52.6762 13.9263 51.9812 17.8611 53.663 22.9852M52.6762 13.9263L53.1706 14.0007L53.1705 14.0015C53.1706 14.0011 53.1706 14.0007 52.6762 13.9263ZM53.663 22.9852C53.7026 23.0837 53.7398 23.1783 53.7756 23.269C54.4086 24.8764 54.564 25.2709 58.8707 25.1174M53.663 22.9852L54.1381 22.8292C54.1364 22.8241 54.1347 22.819 54.1331 22.8139M53.663 22.9852L54.1269 22.7987C54.129 22.8038 54.131 22.8089 54.1331 22.8139M58.8707 25.1174C62.7254 24.9795 63.499 24.3367 63.8697 20.9777C64.0781 19.8658 63.9159 18.1863 63.9159 18.1863M58.8707 25.1174L58.8529 24.6177C58.8529 24.6177 58.8528 24.6177 58.8528 24.6177M58.8707 25.1174L58.8528 24.6177M63.9159 18.1863L63.4182 18.2343L63.4182 18.2344L63.4183 18.2349L63.4185 18.2378L63.4187 18.2399M63.9159 18.1863C63.4198 18.2484 63.4198 18.2483 63.4198 18.2483L63.4197 18.2481L63.4197 18.2477L63.4195 18.2465L63.419 18.2425L63.4187 18.2399M63.4187 18.2399L63.4174 18.2284L63.4115 18.1769C63.4066 18.1326 63.4 18.069 63.3926 17.9896C63.378 17.8309 63.3604 17.6081 63.3487 17.3497C63.3256 16.8395 63.3238 16.1636 63.4226 15.564L63.4226 15.564C63.6295 14.307 63.5125 13.4972 63.2552 12.9725C63.0061 12.4648 62.5936 12.1593 62.0492 11.9736C61.4897 11.7826 60.8134 11.7271 60.0905 11.7233C59.7464 11.7216 59.4025 11.7313 59.0623 11.7409L59.0198 11.7421C58.6701 11.752 58.3215 11.7614 57.9997 11.7552M63.4187 18.2399L63.4197 18.2505L63.4242 18.3024C63.4281 18.3482 63.4334 18.4156 63.4392 18.5002C63.4507 18.6697 63.4641 18.9072 63.4711 19.178C63.4854 19.7288 63.4724 20.3834 63.3782 20.8856L63.3747 20.9042L63.3727 20.9229C63.1864 22.6114 62.9081 23.4145 62.3577 23.8704C62.0803 24.1003 61.6953 24.2735 61.1217 24.3957C60.5449 24.5186 59.8088 24.5835 58.8528 24.6177M58.8528 24.6177C57.7192 24.6581 56.894 24.6595 56.2791 24.6135C55.6599 24.5672 55.2974 24.4752 55.0637 24.3574C54.8513 24.2504 54.7162 24.1078 54.5858 23.8751C54.4722 23.6722 54.3777 23.4326 54.2491 23.1065C54.2135 23.016 54.1751 22.9188 54.1331 22.8139M54.1331 22.8139C53.3143 20.3134 53.0743 18.1045 53.0388 16.523C53.021 15.7309 53.0545 15.0971 53.092 14.6643C53.1107 14.448 53.1305 14.282 53.1452 14.1716C53.1526 14.1165 53.1587 14.0753 53.1628 14.0486L53.1675 14.0198L53.1685 14.0137L53.1686 14.0133M53.1686 14.0133L53.1687 14.0133L53.1699 14.0057M53.1686 14.0133L53.1686 14.013C53.1686 14.0131 53.1686 14.0133 52.6771 13.9265L53.1686 14.0133ZM53.1699 14.0057L53.1714 13.9982C53.1735 13.988 53.1778 13.969 53.1853 13.9423C53.2001 13.8889 53.2273 13.8057 53.2737 13.7025C53.3663 13.4968 53.536 13.2114 53.8414 12.923C54.4429 12.3552 55.6379 11.7152 57.9997 11.7552M53.1699 14.0057L53.1704 14.0023L53.1702 14.0036L53.1699 14.0056C53.1697 14.0065 53.1696 14.0069 53.1697 14.0067L53.1699 14.0057Z" fill="white" stroke="#FF0000"/>
<path d="M44.7393 123.598L44.5812 128.09C44.568 128.121 44.549 128.162 44.5237 128.211C44.4611 128.333 44.3624 128.495 44.22 128.655C43.9418 128.97 43.4982 129.281 42.7902 129.281H28.3016C27.2794 129.281 26.3681 128.508 26.3681 127.405C26.3681 126.815 26.5599 126.376 26.857 126.077C27.1569 125.774 27.6031 125.575 28.1779 125.541C28.4338 125.527 28.8172 125.54 29.3127 125.556C29.5102 125.563 29.7255 125.57 29.9577 125.576C30.7505 125.598 31.6963 125.607 32.6592 125.532C33.6197 125.458 34.6174 125.299 35.5094 124.975C36.318 124.681 37.0655 124.242 37.611 123.583C39.0133 123.591 40.8562 123.594 42.3808 123.596C43.1891 123.597 43.9082 123.598 44.4252 123.598L44.7393 123.598ZM44.6043 128.032L44.6041 128.032L44.6043 128.032Z" fill="#FF0000" stroke="#FF0000"/>
<path d="M60.7745 60.7084L59.9013 53.9627L55.2335 53.995H50.8736C50.6882 53.995 50.5332 54.1895 50.5332 54.4178C50.5332 54.6554 50.6838 54.8451 50.8736 54.8451H54.3392C54.3392 54.8451 54.4273 55.4474 54.1702 55.4613C54.1702 55.4613 50.3502 55.5307 50.1788 55.5307C50.0027 55.5307 48.9083 54.567 48.9083 54.567C48.8445 54.5032 48.8178 54.4742 48.7923 54.4371C48.7473 54.3722 48.7309 54.2657 48.7309 54.2657C48.7309 54.0712 48.6708 53.8951 48.4507 53.8812C48.2272 53.8672 48.057 54.0075 48.0327 54.2067C47.9781 54.6435 48.0501 54.6826 48.0825 54.7304C48.1115 54.7802 48.1542 54.8567 49.4758 56.17C49.5395 56.2628 49.705 56.323 49.8117 56.3206L53.3017 56.301L53.3341 56.9486H49.7859C49.5959 56.9486 49.4444 57.1387 49.4444 57.3759C49.4444 57.6087 49.5938 57.7987 49.7859 57.7987H53.3661L53.3984 58.4009H49.9517C49.764 58.4009 49.6077 58.591 49.6077 58.8226C49.6077 59.0601 49.7619 59.2454 49.9517 59.2454H53.4405L53.4636 59.8814H50.1741C49.9808 59.8814 49.8289 60.0715 49.8289 60.3031C49.8289 60.5406 49.9784 60.7304 50.1741 60.7304H54.6079C54.6218 60.7304 54.6402 60.7152 54.6589 60.7152H60.7745V60.7084Z" fill="white"/>
<path d="M12.7306 47.3214V46.8214H12.2306H8.13841C7.75282 46.8214 7.53088 46.6735 7.39484 46.5044C7.24412 46.3171 7.18015 46.0775 7.18015 45.907V45.7486L28.0701 45.7685L28.7588 53.0502L12.7306 53.1101V47.3214Z" fill="#FF0000" stroke="#FF0000"/>
<path d="M13.3802 46.6794V46.4134L20.0777 46.4204L20.6406 52.4028L13.3802 52.4157V46.6794Z" fill="white" stroke="#FF0000"/>
<path d="M7.93408 47.8284C7.93408 47.4476 8.21982 47.1853 8.52051 47.1853H12.6578C12.964 47.1853 13.2466 47.4457 13.2466 47.8284C13.2466 48.2026 12.9641 48.467 12.6578 48.467H8.52051C8.21825 48.467 7.93408 48.2043 7.93408 47.8284Z" fill="#010202" stroke="#FF0000"/>
<mask id="path-18-inside-1" fill="white">
<path d="M8.52039 47.3326C8.28051 47.3326 8.086 47.555 8.086 47.8284C8.086 48.0958 8.28051 48.3194 8.52039 48.3194H12.6577C12.902 48.3194 13.1013 48.0958 13.1013 47.8284C13.1013 47.555 12.902 47.3326 12.6577 47.3326H8.52039Z"/>
</mask>
<path d="M8.52039 47.3326C8.28051 47.3326 8.086 47.555 8.086 47.8284C8.086 48.0958 8.28051 48.3194 8.52039 48.3194H12.6577C12.902 48.3194 13.1013 48.0958 13.1013 47.8284C13.1013 47.555 12.902 47.3326 12.6577 47.3326H8.52039Z" fill="white"/>
<path d="M8.52039 46.3326C7.60769 46.3326 7.086 47.1315 7.086 47.8284H9.086C9.086 47.9275 9.05087 48.0394 8.96555 48.1368C8.87853 48.2362 8.72354 48.3326 8.52039 48.3326V46.3326ZM7.086 47.8284C7.086 48.5243 7.61202 49.3194 8.52039 49.3194V47.3194C8.72476 47.3194 8.87854 47.4165 8.96392 47.5135C9.04767 47.6087 9.086 47.7215 9.086 47.8284H7.086ZM8.52039 49.3194H12.6577V47.3194H8.52039V49.3194ZM12.6577 49.3194C13.5512 49.3194 14.1013 48.546 14.1013 47.8284H12.1013C12.1013 47.7145 12.1433 47.5992 12.2276 47.5054C12.3134 47.4101 12.4629 47.3194 12.6577 47.3194V49.3194ZM14.1013 47.8284C14.1013 47.1098 13.5556 46.3326 12.6577 46.3326V48.3326C12.2484 48.3326 12.1013 48.0002 12.1013 47.8284H14.1013ZM12.6577 46.3326H8.52039V48.3326H12.6577V46.3326Z" fill="#FF0000" mask="url(#path-18-inside-1)"/>
<path d="M8.24454 49.5808C8.24454 49.2074 8.5229 48.9493 8.82415 48.9493H12.8236C13.1186 48.9493 13.4008 49.208 13.4008 49.5808C13.4008 49.9445 13.1185 50.2079 12.8236 50.2079H8.82415C8.52278 50.2079 8.24454 49.9452 8.24454 49.5808Z" fill="#010202" stroke="#FF0000"/>
<mask id="path-21-inside-2" fill="white">
<path d="M8.82417 49.0969C8.58667 49.0969 8.39215 49.3113 8.39215 49.5787C8.39215 49.837 8.58667 50.0558 8.82417 50.0558H12.8236C13.0587 50.0558 13.2532 49.837 13.2532 49.5787C13.2532 49.3113 13.0587 49.0969 12.8236 49.0969H8.82417Z"/>
</mask>
<path d="M8.82417 49.0969C8.58667 49.0969 8.39215 49.3113 8.39215 49.5787C8.39215 49.837 8.58667 50.0558 8.82417 50.0558H12.8236C13.0587 50.0558 13.2532 49.837 13.2532 49.5787C13.2532 49.3113 13.0587 49.0969 12.8236 49.0969H8.82417Z" fill="white"/>
<path d="M8.82417 48.0969C7.9378 48.0969 7.39215 48.8608 7.39215 49.5787H9.39215C9.39215 49.7618 9.23553 50.0969 8.82417 50.0969V48.0969ZM7.39215 49.5787C7.39215 50.2879 7.93817 51.0558 8.82417 51.0558V49.0558C9.02419 49.0558 9.17597 49.1492 9.26228 49.2451C9.34735 49.3395 9.39215 49.4579 9.39215 49.5787H7.39215ZM8.82417 51.0558H12.8236V49.0558H8.82417V51.0558ZM12.8236 51.0558C13.7106 51.0558 14.2532 50.2842 14.2532 49.5787H12.2532C12.2532 49.458 12.2979 49.3404 12.3821 49.2465C12.4672 49.1516 12.6195 49.0558 12.8236 49.0558V51.0558ZM14.2532 49.5787C14.2532 48.8645 13.7109 48.0969 12.8236 48.0969V50.0969C12.4065 50.0969 12.2532 49.758 12.2532 49.5787H14.2532ZM12.8236 48.0969H8.82417V50.0969H12.8236V48.0969Z" fill="#FF0000" mask="url(#path-21-inside-2)"/>
<path d="M8.41135 51.2084C8.41135 50.9163 8.65011 50.667 8.97109 50.667H13.0111C13.3336 50.667 13.5756 50.9198 13.5756 51.2084C13.5756 51.4936 13.3319 51.7497 13.0111 51.7497H8.97109C8.6516 51.7497 8.41135 51.4972 8.41135 51.2084Z" fill="#010202" stroke="#FF0000"/>
<mask id="path-24-inside-3" fill="white">
<path d="M8.97115 50.8214C8.73364 50.8214 8.53912 50.9928 8.53912 51.2108C8.53912 51.4296 8.73364 51.6001 8.97115 51.6001H13.0112C13.2511 51.6001 13.4396 51.4299 13.4396 51.2108C13.4396 50.9931 13.2508 50.8214 13.0112 50.8214H8.97115Z"/>
</mask>
<path d="M8.97115 50.8214C8.73364 50.8214 8.53912 50.9928 8.53912 51.2108C8.53912 51.4296 8.73364 51.6001 8.97115 51.6001H13.0112C13.2511 51.6001 13.4396 51.4299 13.4396 51.2108C13.4396 50.9931 13.2508 50.8214 13.0112 50.8214H8.97115Z" fill="white"/>
<path d="M8.97115 49.8214C8.28863 49.8214 7.53912 50.339 7.53912 51.2108H9.53912C9.53912 51.6466 9.17864 51.8214 8.97115 51.8214V49.8214ZM7.53912 51.2108C7.53912 52.0848 8.2902 52.6001 8.97115 52.6001V50.6001C9.17707 50.6001 9.53912 50.7744 9.53912 51.2108H7.53912ZM8.97115 52.6001H13.0112V50.6001H8.97115V52.6001ZM13.0112 52.6001C13.709 52.6001 14.4396 52.072 14.4396 51.2108H12.4396C12.4396 50.7878 12.7931 50.6001 13.0112 50.6001V52.6001ZM14.4396 51.2108C14.4396 50.3529 13.7108 49.8214 13.0112 49.8214V51.8214C12.7907 51.8214 12.4396 51.6333 12.4396 51.2108H14.4396ZM13.0112 49.8214H8.97115V51.8214H13.0112V49.8214Z" fill="#FF0000" mask="url(#path-24-inside-3)"/>
<path d="M8.67197 52.634C8.67197 52.3962 8.88917 52.1472 9.22726 52.1472H13.0565C13.3989 52.1472 13.6138 52.3962 13.6138 52.634C13.6138 52.8855 13.392 53.1348 13.0565 53.1348H9.22726C8.89706 53.1348 8.67197 52.8837 8.67197 52.634Z" fill="#010202" stroke="#FF0000"/>
<mask id="path-27-inside-4" fill="white">
<path d="M9.22708 52.2948C9.00232 52.2948 8.81937 52.4466 8.81937 52.6343C8.81937 52.8244 9.00232 52.9807 9.22708 52.9807H13.0563C13.2879 52.9807 13.464 52.8244 13.464 52.6343C13.464 52.449 13.2879 52.2948 13.0563 52.2948H9.22708Z"/>
</mask>
<path d="M9.22708 52.2948C9.00232 52.2948 8.81937 52.4466 8.81937 52.6343C8.81937 52.8244 9.00232 52.9807 9.22708 52.9807H13.0563C13.2879 52.9807 13.464 52.8244 13.464 52.6343C13.464 52.449 13.2879 52.2948 13.0563 52.2948H9.22708Z" fill="white"/>
<path d="M9.22708 51.2948C8.63031 51.2948 7.81937 51.7299 7.81937 52.6343H9.81937C9.81937 52.8831 9.6955 53.0656 9.57844 53.163C9.46358 53.2585 9.33625 53.2948 9.22708 53.2948V51.2948ZM7.81937 52.6343C7.81937 53.522 8.60752 53.9807 9.22708 53.9807V51.9807C9.34394 51.9807 9.47379 52.0208 9.58698 52.1172C9.70148 52.2146 9.81937 52.3932 9.81937 52.6343H7.81937ZM9.22708 53.9807H13.0563V51.9807H9.22708V53.9807ZM13.0563 53.9807C13.6943 53.9807 14.464 53.512 14.464 52.6343H12.464C12.464 52.1367 12.8814 51.9807 13.0563 51.9807V53.9807ZM14.464 52.6343C14.464 51.7461 13.6764 51.2948 13.0563 51.2948V53.2948C12.9517 53.2948 12.8207 53.2597 12.7013 53.1587C12.5804 53.0564 12.464 52.874 12.464 52.6343H14.464ZM13.0563 51.2948H9.22708V53.2948H13.0563V51.2948Z" fill="#FF0000" mask="url(#path-27-inside-4)"/>
<path d="M55.4326 17.1658C55.4326 17.5302 55.1361 17.8202 54.7817 17.8202C54.4227 17.8202 54.1309 17.5299 54.1309 17.1658C54.1309 16.8055 54.4227 16.5137 54.7817 16.5137C55.1361 16.5113 55.4326 16.8055 55.4326 17.1658Z" fill="#FF0000"/>
<path d="M61.3488 17.1658C61.3488 17.5302 61.0571 17.8202 60.6909 17.8202C60.3386 17.8202 60.0421 17.5299 60.0421 17.1658C60.0421 16.8055 60.3386 16.5137 60.6909 16.5137C61.0571 16.5113 61.3488 16.8055 61.3488 17.1658Z" fill="#FF0000"/>
<path d="M62.9795 15.1854C62.9789 15.1852 62.978 15.185 62.9769 15.1848L62.9066 15.3248L62.9795 15.1854ZM62.9795 15.1854C62.9804 15.1858 62.9808 15.1859 62.9808 15.1859L62.9795 15.1854ZM62.9061 15.3244L62.8857 15.3084L62.879 15.3032L62.8176 15.2552C62.831 15.2381 62.8508 15.2202 62.8764 15.2062C62.9014 15.1925 62.9252 15.1864 62.9435 15.1842C62.9527 15.1832 62.9601 15.1831 62.9659 15.1834C62.968 15.1835 62.9698 15.1837 62.9714 15.1839C62.9731 15.1841 62.9746 15.1843 62.9758 15.1846L62.9061 15.3244ZM62.8802 15.3165L62.9019 15.3326L59.1521 15.2639L59.2483 15.3881C59.2487 15.3878 59.2494 15.3872 59.2503 15.3865C59.2577 15.3807 59.2798 15.3632 59.321 15.3346C59.3233 15.333 59.3256 15.3313 59.328 15.3297C59.3285 15.3294 59.329 15.329 59.3294 15.3287C59.3768 15.2961 59.4457 15.2514 59.5336 15.2018C59.7211 15.0959 59.9891 14.9706 60.314 14.8892C60.5229 14.8369 60.7575 14.802 61.0125 14.8035C61.0135 14.8035 61.0145 14.8035 61.0155 14.8035C61.5354 14.8073 62.14 14.9626 62.786 15.4314L62.7859 15.4315L62.7961 15.4385C62.7925 15.436 62.7891 15.4335 62.7861 15.4312C62.7709 15.4192 62.764 15.4098 62.7624 15.4074C62.7618 15.4038 62.7608 15.395 62.7622 15.3808C62.7644 15.3592 62.7738 15.3139 62.8104 15.2646L62.8732 15.3112L62.8802 15.3165Z" fill="#010202" stroke="#FF0000"/>
<path d="M56.6558 16.9165L56.7263 16.9214L56.7263 16.9214L56.9926 16.9401C56.9926 16.9403 56.9926 16.9404 56.9926 16.9405C56.9925 16.9416 56.9924 16.9428 56.9923 16.9439C56.9923 16.9446 56.9922 16.9454 56.9922 16.9461C56.837 19.1546 56.8086 20.1809 56.8041 20.5679C56.804 20.5763 56.8039 20.5843 56.8038 20.592L56.9769 20.5986L59.3147 20.6877M56.6558 16.9165L53.8874 14.965C53.95 14.9315 55.7777 14.2006 56.7995 14.9454C57.1873 15.2317 57.1788 15.6894 57.1675 16.3018C57.1655 16.4105 57.1633 16.524 57.1633 16.6424C57.1633 16.7491 57.1633 16.8487 57.1542 16.9576C57.0209 18.842 56.9927 19.9822 56.9802 20.4865C56.9794 20.5175 56.9787 20.5462 56.978 20.5724C57.0181 20.5742 57.0671 20.5754 57.1235 20.5761L57.4779 20.5852C57.4779 20.5821 57.478 20.5789 57.4781 20.5757C58.2075 20.5685 59.3223 20.5294 59.3223 20.5294M56.6558 16.9165L56.4938 16.9051M56.6558 16.9165L56.6559 16.9155L56.6559 16.9155C56.6631 16.8308 56.6633 16.7516 56.6633 16.6424C56.6633 16.4939 56.6658 16.3653 56.668 16.2506C56.6724 16.0216 56.6757 15.8484 56.6562 15.6851C56.6321 15.4828 56.5818 15.4066 56.5037 15.3485L56.4659 21.0396M59.3147 20.6877C59.1683 20.6825 59.0609 20.7506 59.0047 20.8064C58.9904 20.8206 58.9788 20.8344 58.9696 20.8468C58.9767 20.8578 58.9854 20.8698 58.9959 20.8823C59.0437 20.9391 59.1452 21.0215 59.2984 21.0288L59.3147 20.6877ZM59.3147 20.6877L59.3223 20.5294M59.3223 20.5294L59.3398 21.0291L59.3397 21.0291L59.3394 21.0291L59.3384 21.0291L59.3343 21.0293L59.3185 21.0298L59.3028 21.0304L59.2968 21.1874M59.3223 20.5294C59.496 20.5377 59.4774 21.1942 59.2968 21.1874M59.2968 21.1874L59.3027 21.0304L59.2585 21.0319L59.0409 21.0389C58.8588 21.0447 58.6108 21.0522 58.3471 21.059C57.8298 21.0723 57.223 21.0838 56.9557 21.0719L56.6203 21.0569L56.6189 21.0854M59.2968 21.1874L56.6189 21.0854M56.6189 21.0854L56.62 21.0569L56.4867 21.0509C56.5267 21.071 56.5714 21.0832 56.6189 21.0854ZM56.4659 21.0396L56.473 20.7622H56.3037M56.4659 21.0396C56.3709 20.983 56.307 20.88 56.3037 20.7622M56.4659 21.0396L56.0814 15.4863C56.4057 15.7214 56.5448 16.1964 56.4938 16.9051M56.3037 20.7622L56.4731 20.7575L56.4782 20.5596C56.4789 20.5334 56.4796 20.5047 56.4803 20.4737C56.4929 19.9665 56.5214 18.8178 56.6554 16.9223L56.6558 16.9167L56.4938 16.9051M56.3037 20.7622C56.3037 20.7607 56.3037 20.758 56.3037 20.7539C56.3027 20.6543 56.2935 19.7549 56.4938 16.9051" fill="#010202" stroke="#FF0000"/>
<mask id="path-33-inside-5" fill="white">
<path d="M56.6281 22.562C56.3571 22.562 56.1371 22.7785 56.1371 23.0507C56.1371 23.3217 56.3571 23.5441 56.6281 23.5441H59.5933C59.8667 23.5441 60.089 23.3217 60.089 23.0507C60.089 22.7785 59.8667 22.562 59.5933 22.562H56.6281Z"/>
</mask>
<path d="M56.6281 22.562C56.3571 22.562 56.1371 22.7785 56.1371 23.0507C56.1371 23.3217 56.3571 23.5441 56.6281 23.5441H59.5933C59.8667 23.5441 60.089 23.3217 60.089 23.0507C60.089 22.7785 59.8667 22.562 59.5933 22.562H56.6281Z" fill="#010202"/>
<path d="M56.6281 21.562C55.8127 21.562 55.1371 22.2183 55.1371 23.0507H57.1371C57.1371 23.3386 56.9015 23.562 56.6281 23.562V21.562ZM55.1371 23.0507C55.1371 23.8677 55.7986 24.5441 56.6281 24.5441V22.5441C56.9156 22.5441 57.1371 22.7757 57.1371 23.0507H55.1371ZM56.6281 24.5441H59.5933V22.5441H56.6281V24.5441ZM59.5933 24.5441C60.4158 24.5441 61.089 23.8771 61.089 23.0507H59.089C59.089 22.7663 59.3175 22.5441 59.5933 22.5441V24.5441ZM61.089 23.0507C61.089 22.209 60.4016 21.562 59.5933 21.562V23.562C59.3317 23.562 59.089 23.348 59.089 23.0507H61.089ZM59.5933 21.562H56.6281V23.562H59.5933V21.562Z" fill="#FF0000" mask="url(#path-33-inside-5)"/>
</svg>
