<?xml version="1.0" encoding="utf-8"?>
<!-- Generator: Adobe Illustrator 23.0.2, SVG Export Plug-In . SVG Version: 6.00 Build 0)  -->
<svg version="1.1" id="Calque_1" xmlns="http://www.w3.org/2000/svg" xmlns:xlink="http://www.w3.org/1999/xlink" x="0px" y="0px"
	 viewBox="0 0 283 78" style="enable-background:new 0 0 283 78;" xml:space="preserve">
<style type="text/css">
	.st0{fill-rule:evenodd;clip-rule:evenodd;fill:#1A1919 !important;}
	.st1{fill:#FFFFFF;filter:url(#Adobe_OpacityMaskFilter);}
	.st2{mask:url(#mask0_1_);}
	.st3{fill-rule:evenodd;clip-rule:evenodd;fill:#D8232A;}
	.st4{fill-rule:evenodd;clip-rule:evenodd;fill:#FFFFFE;}
</style>
<path class="st0" d="M54.3,13.7c0.6,0.4,1.2,0.6,2.1,0.6c1.2,0,2.1-0.6,2.1-2c0-1.9-4.4-2.1-4.4-4.6c0-1.5,1.3-2.5,3-2.5
	c0.5,0,1.2,0.1,1.9,0.3l-0.2,0.9C58.4,6.1,57.8,6,57.1,6c-1,0-2.1,0.4-2.1,1.7c0,1.9,4.4,1.9,4.4,4.7c0,1.9-1.6,2.7-3.1,2.7
	c-0.9,0-1.6-0.2-2.2-0.4L54.3,13.7z"/>
<path class="st0" d="M66.8,8.9c-0.5-0.2-1-0.4-1.5-0.4c-1.7,0-2.6,1.2-2.6,2.9c0,1.6,1,2.9,2.5,2.9c0.5,0,1.1-0.1,1.6-0.3l0.1,0.8
	c-0.6,0.2-1.1,0.2-1.8,0.2c-2.2,0-3.3-1.7-3.3-3.7c0-2.2,1.4-3.7,3.4-3.7c0.8,0,1.4,0.2,1.7,0.3L66.8,8.9z"/>
<path class="st0" d="M69.4,4.6h0.9v4.5h0c0.4-0.8,1.1-1.3,2.2-1.3c1.9,0,2.4,1.3,2.4,3V15H74v-4.2c0-1.2-0.2-2.3-1.6-2.3
	c-1.5,0-2.1,1.5-2.1,2.7V15h-0.9V4.6z"/>
<path class="st0" d="M85.2,15h-1l-1.9-6.1h0L80.3,15h-1l-2.2-7H78l1.8,6.1h0l1.9-6.1h1l1.8,6.1h0l1.9-6.1h0.9L85.2,15z"/>
<path class="st0" d="M93.9,11c0-1.2-0.5-2.4-1.8-2.4c-1.3,0-2,1.3-2,2.4H93.9z M94.3,14.7c-0.6,0.2-1.4,0.4-2,0.4
	c-2.3,0-3.2-1.6-3.2-3.7c0-2.1,1.2-3.7,2.9-3.7c2,0,2.8,1.6,2.8,3.5v0.4h-4.8c0,1.5,0.8,2.7,2.3,2.7c0.6,0,1.5-0.3,1.9-0.5V14.7z"/>
<path class="st0" d="M97.6,15h0.9v-7h-0.9V15z M97.6,6.1h0.9V4.9h-0.9V6.1z"/>
<path class="st0" d="M101,14.2l4.2-5.5h-4V7.9h5v0.7l-4.2,5.5h4.2V15H101V14.2z"/>
<path class="st0" d="M113,11c0-1.2-0.5-2.4-1.8-2.4c-1.3,0-2,1.3-2,2.4H113z M113.4,14.7c-0.6,0.2-1.4,0.4-2,0.4
	c-2.3,0-3.2-1.6-3.2-3.7c0-2.1,1.2-3.7,2.9-3.7c2,0,2.8,1.6,2.8,3.5v0.4h-4.8c0,1.5,0.8,2.7,2.3,2.7c0.6,0,1.5-0.3,1.9-0.5V14.7z"/>
<path class="st0" d="M116.6,9.5c0-0.8,0-1.1-0.1-1.6h0.9v1.3h0c0.3-0.8,0.9-1.5,1.8-1.5c0.2,0,0.4,0,0.6,0.1v0.9
	c-0.2-0.1-0.4-0.1-0.6-0.1c-1.4,0-1.7,1.5-1.7,2.8V15h-0.9V9.5z"/>
<path class="st0" d="M122.2,15h0.9v-7h-0.9V15z M122.2,6.1h0.9V4.9h-0.9V6.1z"/>
<path class="st0" d="M125.8,13.9c0.5,0.3,1.1,0.4,1.8,0.4c0.8,0,1.5-0.5,1.5-1.3c0-1.7-3.3-1.4-3.3-3.4c0-1.4,1.1-1.9,2.3-1.9
	c0.4,0,1.1,0.1,1.7,0.3l-0.1,0.8c-0.4-0.2-1.1-0.3-1.5-0.3c-0.9,0-1.5,0.3-1.5,1.2c0,1.3,3.4,1.1,3.4,3.4c0,1.5-1.4,2-2.4,2
	c-0.7,0-1.3-0.1-1.9-0.3L125.8,13.9z"/>
<path class="st0" d="M137.2,8.9c-0.5-0.2-1-0.4-1.5-0.4c-1.7,0-2.6,1.2-2.6,2.9c0,1.6,1,2.9,2.5,2.9c0.5,0,1-0.1,1.6-0.3l0.1,0.8
	c-0.6,0.2-1.1,0.2-1.8,0.2c-2.2,0-3.3-1.7-3.3-3.7c0-2.2,1.4-3.7,3.4-3.7c0.8,0,1.4,0.2,1.7,0.3L137.2,8.9z"/>
<path class="st0" d="M139.8,4.6h0.9v4.5h0c0.4-0.8,1.1-1.3,2.2-1.3c1.9,0,2.4,1.3,2.4,3V15h-0.9v-4.2c0-1.2-0.2-2.3-1.6-2.3
	c-1.5,0-2.1,1.5-2.1,2.7V15h-0.9V4.6z"/>
<path class="st0" d="M152.6,11c0-1.2-0.5-2.4-1.8-2.4c-1.3,0-2,1.3-2,2.4H152.6z M153,14.7c-0.6,0.2-1.4,0.4-2,0.4
	c-2.3,0-3.2-1.6-3.2-3.7c0-2.1,1.2-3.7,2.9-3.7c2,0,2.8,1.6,2.8,3.5v0.4h-4.8c0,1.5,0.8,2.7,2.3,2.7c0.6,0,1.5-0.3,1.9-0.5V14.7z"/>
<path class="st0" d="M160.8,5.4h4.7v0.8h-3.7v3.4h3.5v0.8h-3.5v3.7h3.9V15h-4.8V5.4z"/>
<path class="st0" d="M168.6,15h0.9v-7h-0.9V15z M168.6,6.1h0.9V4.9h-0.9V6.1z"/>
<path class="st0" d="M175.2,14.4c1.5,0,2.1-1.7,2.1-2.9c0-1.3-0.5-2.9-2.1-2.9c-1.6,0-2.1,1.6-2.1,2.9
	C173.2,12.8,173.6,14.4,175.2,14.4z M178.1,15h-0.9v-1.1h0c-0.5,0.9-1.2,1.3-2.2,1.3c-1.9,0-2.9-1.6-2.9-3.7c0-2.1,0.8-3.7,2.9-3.7
	c1.4,0,2,1,2.2,1.3h0V4.6h0.9V15z"/>
<path class="st0" d="M183.8,14.2c1.6,0,2.1-1.5,2.1-2.8c0-1.7-0.5-2.9-2.1-2.9c-1.6,0-2.1,1.6-2.1,2.9
	C181.8,12.8,182.3,14.2,183.8,14.2z M186.8,14.4c0,2-0.9,3.5-3.3,3.5c-0.9,0-1.7-0.3-2.1-0.4l0.1-0.9c0.5,0.3,1.3,0.5,2,0.5
	c2.2,0,2.4-1.6,2.4-3.6h0c-0.5,1-1.2,1.4-2.1,1.4c-2.2,0-2.9-2-2.9-3.5c0-2.1,0.8-3.7,2.9-3.7c0.9,0,1.5,0.1,2.2,1h0V7.9h0.9V14.4z"
	/>
<path class="st0" d="M194.1,11c0-1.2-0.5-2.4-1.8-2.4c-1.3,0-2,1.3-2,2.4H194.1z M194.6,14.7c-0.6,0.2-1.4,0.4-2,0.4
	c-2.3,0-3.2-1.6-3.2-3.7c0-2.1,1.2-3.7,2.9-3.7c2,0,2.8,1.6,2.8,3.5v0.4h-4.8c0,1.5,0.8,2.7,2.3,2.7c0.6,0,1.5-0.3,1.9-0.5V14.7z"/>
<path class="st0" d="M197.8,9.6c0-0.5,0-1.1-0.1-1.7h0.8v1.3h0c0.3-0.6,0.8-1.4,2.2-1.4c1.7,0,2.4,1.2,2.4,2.7V15h-0.9v-4.3
	c0-1.3-0.5-2.2-1.6-2.2c-1.6,0-2.1,1.4-2.1,2.6V15h-0.9V9.6z"/>
<path class="st0" d="M209.1,14.4c1.5,0,2.3-1.3,2.3-2.9c0-1.6-0.8-2.9-2.3-2.9c-1.5,0-2.3,1.3-2.3,2.9
	C206.8,13.1,207.6,14.4,209.1,14.4z M209.1,7.8c2.2,0,3.2,1.8,3.2,3.7c0,1.9-1,3.7-3.2,3.7s-3.2-1.8-3.2-3.7
	C205.9,9.5,206.9,7.8,209.1,7.8z"/>
<path class="st0" d="M214.5,13.9c0.5,0.3,1.1,0.4,1.8,0.4c0.8,0,1.5-0.5,1.5-1.3c0-1.7-3.3-1.4-3.3-3.4c0-1.4,1.1-1.9,2.3-1.9
	c0.4,0,1.1,0.1,1.7,0.3l-0.1,0.8c-0.4-0.2-1.1-0.3-1.5-0.3c-0.9,0-1.5,0.3-1.5,1.2c0,1.3,3.4,1.1,3.4,3.4c0,1.5-1.4,2-2.4,2
	c-0.7,0-1.3-0.1-1.9-0.3L214.5,13.9z"/>
<path class="st0" d="M220.9,13.9c0.5,0.3,1.1,0.4,1.8,0.4c0.8,0,1.5-0.5,1.5-1.3c0-1.7-3.3-1.4-3.3-3.4c0-1.4,1.1-1.9,2.3-1.9
	c0.4,0,1.1,0.1,1.7,0.3l-0.1,0.8c-0.4-0.2-1.1-0.3-1.5-0.3c-0.9,0-1.5,0.3-1.5,1.2c0,1.3,3.4,1.1,3.4,3.4c0,1.5-1.4,2-2.4,2
	c-0.7,0-1.3-0.1-1.9-0.3L220.9,13.9z"/>
<path class="st0" d="M232,11c0-1.2-0.5-2.4-1.8-2.4c-1.3,0-2,1.3-2,2.4H232z M232.4,14.7c-0.6,0.2-1.4,0.4-2,0.4
	c-2.3,0-3.2-1.6-3.2-3.7c0-2.1,1.2-3.7,2.9-3.7c2,0,2.8,1.6,2.8,3.5v0.4h-4.8c0,1.5,0.8,2.7,2.3,2.7c0.6,0,1.5-0.3,1.9-0.5V14.7z"/>
<path class="st0" d="M235.6,9.6c0-0.5,0-1.1-0.1-1.7h0.8v1.3h0c0.3-0.6,0.8-1.4,2.2-1.4c1.7,0,2.4,1.2,2.4,2.7V15h-0.9v-4.3
	c0-1.3-0.5-2.2-1.6-2.2c-1.6,0-2.1,1.4-2.1,2.6V15h-0.9V9.6z"/>
<path class="st0" d="M243.7,13.9c0.5,0.3,1.1,0.4,1.8,0.4c0.8,0,1.5-0.5,1.5-1.3c0-1.7-3.3-1.4-3.3-3.4c0-1.4,1.1-1.9,2.3-1.9
	c0.4,0,1.1,0.1,1.7,0.3l-0.1,0.8c-0.4-0.2-1.1-0.3-1.5-0.3c-0.9,0-1.5,0.3-1.5,1.2c0,1.3,3.4,1.1,3.4,3.4c0,1.5-1.4,2-2.4,2
	c-0.7,0-1.3-0.1-1.9-0.3L243.7,13.9z"/>
<path class="st0" d="M255.1,8.9c-0.5-0.2-1-0.4-1.5-0.4c-1.7,0-2.6,1.2-2.6,2.9c0,1.6,1,2.9,2.5,2.9c0.5,0,1-0.1,1.6-0.3l0.1,0.8
	c-0.6,0.2-1.1,0.2-1.8,0.2c-2.2,0-3.3-1.7-3.3-3.7c0-2.2,1.4-3.7,3.4-3.7c0.8,0,1.4,0.2,1.7,0.3L255.1,8.9z"/>
<path class="st0" d="M257.7,4.6h0.9v4.5h0c0.4-0.8,1.1-1.3,2.2-1.3c1.9,0,2.4,1.3,2.4,3V15h-0.9v-4.2c0-1.2-0.2-2.3-1.6-2.3
	c-1.5,0-2.1,1.5-2.1,2.7V15h-0.9V4.6z"/>
<path class="st0" d="M270.2,11.4H270c-1.5,0-3.3,0.2-3.3,1.7c0,0.9,0.7,1.3,1.4,1.3c2,0,2.1-1.8,2.1-2.5V11.4z M270.3,13.8
	L270.3,13.8c-0.4,0.8-1.4,1.3-2.2,1.3c-2,0-2.3-1.3-2.3-2c0-2.4,2.5-2.5,4.3-2.5h0.2v-0.4c0-1.2-0.4-1.8-1.6-1.8
	c-0.7,0-1.4,0.2-2,0.6V8.3c0.5-0.3,1.4-0.5,2-0.5c1.7,0,2.4,0.8,2.4,2.6v3.1c0,0.6,0,1,0.1,1.5h-0.8V13.8z"/>
<path class="st0" d="M274.8,8.7h-1.4V7.9h1.4V7.4c0-1.5,0.1-3,1.8-3c0.3,0,0.6,0,0.8,0.1l-0.1,0.8c-0.2-0.1-0.4-0.2-0.7-0.2
	c-1.2,0-1,1.3-1,2.1v0.6h1.6v0.7h-1.6V15h-0.9V8.7z"/>
<path class="st0" d="M282.8,8.7h-1.6v4.5c0,0.6,0.2,1.2,0.9,1.2c0.3,0,0.5-0.1,0.8-0.2l0.1,0.7c-0.2,0.1-0.6,0.2-1,0.2
	c-1.5,0-1.6-1.1-1.6-2.3V8.7H279V7.9h1.4V6.3l0.9-0.3v2h1.6V8.7z"/>
<path class="st0" d="M60.9,25.4c-0.6-0.3-1.5-0.4-2.1-0.4c-2.5,0-3.9,1.8-3.9,4.1c0,2.4,1.3,4.1,3.9,4.1c0.6,0,1.6-0.1,2.1-0.4
	l0.1,0.8c-0.5,0.3-1.6,0.4-2.2,0.4c-3,0-4.8-2-4.8-5c0-2.9,1.9-5,4.8-5c0.6,0,1.7,0.1,2.2,0.4L60.9,25.4z"/>
<path class="st0" d="M66.8,33.4c1.5,0,2.3-1.3,2.3-2.9c0-1.6-0.8-2.9-2.3-2.9c-1.5,0-2.3,1.3-2.3,2.9C64.5,32.1,65.3,33.4,66.8,33.4
	z M66.8,26.8c2.2,0,3.2,1.8,3.2,3.7s-1,3.7-3.2,3.7c-2.2,0-3.2-1.8-3.2-3.7S64.6,26.8,66.8,26.8z"/>
<path class="st0" d="M72.8,28.6c0-0.5,0-1.1-0.1-1.7h0.8v1.3h0c0.3-0.6,0.8-1.4,2.2-1.4c1.7,0,2.4,1.2,2.4,2.7v4.5h-0.9v-4.3
	c0-1.3-0.5-2.2-1.6-2.2c-1.6,0-2.1,1.4-2.1,2.6v3.9h-0.9V28.6z"/>
<path class="st0" d="M82,27.7h-1.4v-0.7H82v-0.5c0-1.5,0.1-3,1.8-3c0.3,0,0.6,0,0.8,0.1l-0.1,0.8c-0.2-0.1-0.4-0.2-0.7-0.2
	c-1.2,0-1,1.3-1,2.1v0.6h1.6v0.7h-1.6v6.3H82V27.7z"/>
<path class="st0" d="M89.8,24.2h1.1l-1.7,2h-0.6L89.8,24.2z M91.2,29.9c0-1.2-0.5-2.4-1.8-2.4c-1.3,0-2,1.3-2,2.4H91.2z M91.6,33.7
	c-0.6,0.2-1.4,0.4-2,0.4c-2.3,0-3.2-1.6-3.2-3.7c0-2.1,1.2-3.7,2.9-3.7c2,0,2.8,1.6,2.8,3.5v0.4h-4.8c0,1.5,0.8,2.7,2.3,2.7
	c0.6,0,1.5-0.3,1.9-0.5V33.7z"/>
<path class="st0" d="M97.4,33.4c1.5,0,2.1-1.7,2.1-2.9c0-1.3-0.5-2.9-2.1-2.9c-1.6,0-2.1,1.6-2.1,2.9C95.4,31.8,95.8,33.4,97.4,33.4
	z M100.3,33.9h-0.9v-1.1h0c-0.5,0.9-1.2,1.3-2.2,1.3c-1.9,0-2.9-1.6-2.9-3.7c0-2.1,0.8-3.7,2.9-3.7c1.4,0,2,1,2.2,1.3h0v-4.5h0.9
	V33.9z"/>
<path class="st0" d="M106.3,24.2h1.1l-1.7,2H105L106.3,24.2z M107.7,29.9c0-1.2-0.5-2.4-1.8-2.4c-1.3,0-2,1.3-2,2.4H107.7z
	 M108.1,33.7c-0.6,0.2-1.4,0.4-2,0.4c-2.3,0-3.2-1.6-3.2-3.7c0-2.1,1.2-3.7,2.9-3.7c2,0,2.8,1.6,2.8,3.5v0.4h-4.8
	c0,1.5,0.8,2.7,2.3,2.7c0.6,0,1.5-0.3,1.9-0.5V33.7z"/>
<path class="st0" d="M111.3,28.5c0-0.8,0-1.1-0.1-1.6h0.9v1.3h0c0.3-0.8,0.9-1.5,1.8-1.5c0.2,0,0.4,0,0.6,0.1v0.9
	c-0.2-0.1-0.4-0.1-0.6-0.1c-1.4,0-1.7,1.5-1.7,2.8v3.5h-0.9V28.5z"/>
<path class="st0" d="M120.8,30.4h-0.2c-1.5,0-3.3,0.2-3.3,1.7c0,0.9,0.7,1.3,1.4,1.3c2,0,2.1-1.8,2.1-2.5V30.4z M120.9,32.8
	L120.9,32.8c-0.4,0.8-1.4,1.3-2.2,1.3c-2,0-2.3-1.3-2.3-2c0-2.4,2.5-2.5,4.3-2.5h0.2v-0.4c0-1.2-0.4-1.8-1.6-1.8
	c-0.7,0-1.4,0.2-2,0.6v-0.8c0.5-0.3,1.4-0.5,2-0.5c1.7,0,2.4,0.8,2.4,2.6v3.1c0,0.6,0,1,0.1,1.5h-0.8V32.8z"/>
<path class="st0" d="M127.8,27.7h-1.6v4.5c0,0.6,0.2,1.2,0.9,1.2c0.3,0,0.5-0.1,0.8-0.2l0.1,0.7c-0.2,0.1-0.6,0.2-1,0.2
	c-1.5,0-1.6-1.1-1.6-2.3v-4.1H124v-0.7h1.4v-1.7l0.9-0.3v2h1.6V27.7z"/>
<path class="st0" d="M130.4,33.9h0.9v-7h-0.9V33.9z M130.4,25h0.9v-1.2h-0.9V25z"/>
<path class="st0" d="M137.2,33.4c1.5,0,2.3-1.3,2.3-2.9c0-1.6-0.8-2.9-2.3-2.9c-1.5,0-2.3,1.3-2.3,2.9
	C134.9,32.1,135.7,33.4,137.2,33.4z M137.2,26.8c2.2,0,3.2,1.8,3.2,3.7s-1,3.7-3.2,3.7c-2.2,0-3.2-1.8-3.2-3.7
	S134.9,26.8,137.2,26.8z"/>
<path class="st0" d="M143.1,28.6c0-0.5,0-1.1-0.1-1.7h0.8v1.3h0c0.3-0.6,0.8-1.4,2.2-1.4c1.7,0,2.4,1.2,2.4,2.7v4.5h-0.9v-4.3
	c0-1.3-0.5-2.2-1.6-2.2c-1.6,0-2.1,1.4-2.1,2.6v3.9h-0.9V28.6z"/>
<path class="st0" d="M155.9,32.9c0.5,0.3,1.1,0.4,1.8,0.4c0.8,0,1.5-0.5,1.5-1.3c0-1.7-3.3-1.4-3.3-3.4c0-1.4,1.1-1.9,2.3-1.9
	c0.4,0,1.1,0.1,1.7,0.3l-0.1,0.8c-0.4-0.2-1.1-0.3-1.5-0.3c-0.9,0-1.5,0.3-1.5,1.2c0,1.3,3.4,1.1,3.4,3.4c0,1.5-1.4,2-2.4,2
	c-0.7,0-1.3-0.1-1.9-0.3L155.9,32.9z"/>
<path class="st0" d="M168.2,32.3c0,0.5,0,1.1,0.1,1.7h-0.8v-1.3h0c-0.3,0.6-0.8,1.4-2.2,1.4c-1.7,0-2.4-1.2-2.4-2.7v-4.5h0.9v4.3
	c0,1.3,0.5,2.2,1.6,2.2c1.6,0,2.1-1.4,2.1-2.6v-3.9h0.9V32.3z"/>
<path class="st0" d="M171.4,33.9h0.9v-7h-0.9V33.9z M171.4,25h0.9v-1.2h-0.9V25z"/>
<path class="st0" d="M175,32.9c0.5,0.3,1.1,0.4,1.8,0.4c0.8,0,1.5-0.5,1.5-1.3c0-1.7-3.3-1.4-3.3-3.4c0-1.4,1.1-1.9,2.3-1.9
	c0.4,0,1.1,0.1,1.7,0.3l-0.1,0.8c-0.4-0.2-1.1-0.3-1.5-0.3c-0.9,0-1.5,0.3-1.5,1.2c0,1.3,3.4,1.1,3.4,3.4c0,1.5-1.4,2-2.4,2
	c-0.7,0-1.3-0.1-1.9-0.3L175,32.9z"/>
<path class="st0" d="M181.4,32.9c0.5,0.3,1.1,0.4,1.8,0.4c0.8,0,1.5-0.5,1.5-1.3c0-1.7-3.3-1.4-3.3-3.4c0-1.4,1.1-1.9,2.3-1.9
	c0.4,0,1.1,0.1,1.7,0.3l-0.1,0.8c-0.4-0.2-1.1-0.3-1.5-0.3c-0.9,0-1.5,0.3-1.5,1.2c0,1.3,3.4,1.1,3.4,3.4c0,1.5-1.4,2-2.4,2
	c-0.7,0-1.3-0.1-1.9-0.3L181.4,32.9z"/>
<path class="st0" d="M192.5,29.9c0-1.2-0.5-2.4-1.8-2.4c-1.3,0-2,1.3-2,2.4H192.5z M192.9,33.7c-0.6,0.2-1.4,0.4-2,0.4
	c-2.3,0-3.2-1.6-3.2-3.7c0-2.1,1.2-3.7,2.9-3.7c2,0,2.8,1.6,2.8,3.5v0.4h-4.8c0,1.5,0.8,2.7,2.3,2.7c0.6,0,1.5-0.3,1.9-0.5V33.7z"/>
<path class="st0" d="M60.9,44.4c-0.6-0.3-1.5-0.4-2.1-0.4c-2.5,0-3.9,1.8-3.9,4.1c0,2.4,1.3,4.1,3.9,4.1c0.6,0,1.6-0.1,2.1-0.4
	l0.1,0.8c-0.5,0.3-1.6,0.4-2.2,0.4c-3,0-4.8-2-4.8-5c0-2.9,1.9-5,4.8-5c0.6,0,1.7,0.1,2.2,0.4L60.9,44.4z"/>
<path class="st0" d="M66.8,52.3c1.5,0,2.3-1.3,2.3-2.9c0-1.6-0.8-2.9-2.3-2.9c-1.5,0-2.3,1.3-2.3,2.9C64.5,51,65.3,52.3,66.8,52.3z
	 M66.8,45.7c2.2,0,3.2,1.8,3.2,3.7s-1,3.7-3.2,3.7c-2.2,0-3.2-1.8-3.2-3.7S64.6,45.7,66.8,45.7z"/>
<path class="st0" d="M72.8,47.5c0-0.5,0-1.1-0.1-1.7h0.8v1.3h0c0.3-0.6,0.8-1.4,2.2-1.4c1.7,0,2.4,1.2,2.4,2.7v4.5h-0.9v-4.3
	c0-1.3-0.5-2.2-1.6-2.2c-1.6,0-2.1,1.4-2.1,2.6v3.9h-0.9V47.5z"/>
<path class="st0" d="M82,46.6h-1.4v-0.7H82v-0.5c0-1.5,0.1-3,1.8-3c0.3,0,0.6,0,0.8,0.1l-0.1,0.8c-0.2-0.1-0.4-0.2-0.7-0.2
	c-1.2,0-1,1.3-1,2.1v0.6h1.6v0.7h-1.6v6.3H82V46.6z"/>
<path class="st0" d="M91.2,48.9c0-1.2-0.5-2.4-1.8-2.4c-1.3,0-2,1.3-2,2.4H91.2z M91.6,52.7c-0.6,0.2-1.4,0.4-2,0.4
	c-2.3,0-3.2-1.6-3.2-3.7c0-2.1,1.2-3.7,2.9-3.7c2,0,2.8,1.6,2.8,3.5v0.4h-4.8c0,1.5,0.8,2.7,2.3,2.7c0.6,0,1.5-0.3,1.9-0.5V52.7z"/>
<path class="st0" d="M97.4,52.3c1.5,0,2.1-1.7,2.1-2.9c0-1.3-0.5-2.9-2.1-2.9c-1.6,0-2.1,1.6-2.1,2.9C95.4,50.8,95.8,52.3,97.4,52.3
	z M100.3,52.9h-0.9v-1.1h0c-0.5,0.9-1.2,1.3-2.2,1.3c-1.9,0-2.9-1.6-2.9-3.7c0-2.1,0.8-3.7,2.9-3.7c1.4,0,2,1,2.2,1.3h0v-4.5h0.9
	V52.9z"/>
<path class="st0" d="M107.7,48.9c0-1.2-0.5-2.4-1.8-2.4c-1.3,0-2,1.3-2,2.4H107.7z M108.1,52.7c-0.6,0.2-1.4,0.4-2,0.4
	c-2.3,0-3.2-1.6-3.2-3.7c0-2.1,1.2-3.7,2.9-3.7c2,0,2.8,1.6,2.8,3.5v0.4h-4.8c0,1.5,0.8,2.7,2.3,2.7c0.6,0,1.5-0.3,1.9-0.5V52.7z"/>
<path class="st0" d="M111.3,47.5c0-0.8,0-1.1-0.1-1.6h0.9v1.3h0c0.3-0.8,0.9-1.5,1.8-1.5c0.2,0,0.4,0,0.6,0.1v0.9
	c-0.2-0.1-0.4-0.1-0.6-0.1c-1.4,0-1.7,1.5-1.7,2.8v3.5h-0.9V47.5z"/>
<path class="st0" d="M120.8,49.4h-0.2c-1.5,0-3.3,0.2-3.3,1.7c0,0.9,0.7,1.3,1.4,1.3c2,0,2.1-1.8,2.1-2.5V49.4z M120.9,51.8
	L120.9,51.8c-0.4,0.8-1.4,1.3-2.2,1.3c-2,0-2.3-1.3-2.3-2c0-2.4,2.5-2.5,4.3-2.5h0.2v-0.4c0-1.2-0.4-1.8-1.6-1.8
	c-0.7,0-1.4,0.2-2,0.6v-0.8c0.5-0.3,1.4-0.5,2-0.5c1.7,0,2.4,0.8,2.4,2.6v3.1c0,0.6,0,1,0.1,1.5h-0.8V51.8z"/>
<path class="st0" d="M124.2,52.2l4.2-5.5h-4v-0.7h5v0.7l-4.2,5.5h4.2v0.7h-5.2V52.2z"/>
<path class="st0" d="M131.9,52.9h0.9v-7h-0.9V52.9z M131.9,44h0.9v-1.2h-0.9V44z"/>
<path class="st0" d="M138.7,52.3c1.5,0,2.3-1.3,2.3-2.9c0-1.6-0.8-2.9-2.3-2.9c-1.5,0-2.3,1.3-2.3,2.9
	C136.4,51,137.2,52.3,138.7,52.3z M138.7,45.7c2.2,0,3.2,1.8,3.2,3.7s-1,3.7-3.2,3.7c-2.2,0-3.2-1.8-3.2-3.7S136.5,45.7,138.7,45.7z
	"/>
<path class="st0" d="M144.6,47.5c0-0.5,0-1.1-0.1-1.7h0.8v1.3h0c0.3-0.6,0.8-1.4,2.2-1.4c1.7,0,2.4,1.2,2.4,2.7v4.5h-0.9v-4.3
	c0-1.3-0.5-2.2-1.6-2.2c-1.6,0-2.1,1.4-2.1,2.6v3.9h-0.9V47.5z"/>
<path class="st0" d="M157.5,48.9c0-1.2-0.5-2.4-1.8-2.4c-1.3,0-2,1.3-2,2.4H157.5z M157.9,52.7c-0.6,0.2-1.4,0.4-2,0.4
	c-2.3,0-3.2-1.6-3.2-3.7c0-2.1,1.2-3.7,2.9-3.7c2,0,2.8,1.6,2.8,3.5v0.4h-4.8c0,1.5,0.8,2.7,2.3,2.7c0.6,0,1.5-0.3,1.9-0.5V52.7z"/>
<path class="st0" d="M165.7,51.7c0.6,0.4,1.2,0.6,2.1,0.6c1.2,0,2.1-0.6,2.1-2c0-1.9-4.4-2.1-4.4-4.6c0-1.5,1.3-2.5,3-2.5
	c0.5,0,1.2,0.1,1.9,0.3l-0.1,0.9c-0.4-0.2-1.1-0.4-1.7-0.4c-1,0-2.1,0.4-2.1,1.6c0,1.9,4.4,1.9,4.4,4.7c0,1.9-1.6,2.7-3.1,2.7
	c-0.9,0-1.6-0.2-2.2-0.4L165.7,51.7z"/>
<path class="st0" d="M176.1,52.9h-1l-2.4-7h0.9l1.9,6.1h0l2-6.1h0.9L176.1,52.9z"/>
<path class="st0" d="M180.8,52.9h0.9v-7h-0.9V52.9z M180.8,44h0.9v-1.2h-0.9V44z"/>
<path class="st0" d="M184.3,52.2l4.2-5.5h-4v-0.7h5v0.7l-4.2,5.5h4.2v0.7h-5.2V52.2z"/>
<path class="st0" d="M191.4,52.2l4.2-5.5h-4v-0.7h5v0.7l-4.2,5.5h4.2v0.7h-5.2V52.2z"/>
<path class="st0" d="M203.3,48.9c0-1.2-0.5-2.4-1.8-2.4c-1.3,0-2,1.3-2,2.4H203.3z M203.8,52.7c-0.6,0.2-1.4,0.4-2,0.4
	c-2.3,0-3.2-1.6-3.2-3.7c0-2.1,1.2-3.7,2.9-3.7c2,0,2.8,1.6,2.8,3.5v0.4h-4.8c0,1.5,0.8,2.7,2.3,2.7c0.6,0,1.5-0.3,1.9-0.5V52.7z"/>
<path class="st0" d="M207,47.5c0-0.8,0-1.1-0.1-1.6h0.9v1.3h0c0.3-0.8,0.9-1.5,1.8-1.5c0.2,0,0.4,0,0.6,0.1v0.9
	c-0.2-0.1-0.4-0.1-0.6-0.1c-1.4,0-1.7,1.5-1.7,2.8v3.5H207V47.5z"/>
<path class="st0" d="M216.5,49.4h-0.2c-1.5,0-3.3,0.2-3.3,1.7c0,0.9,0.7,1.3,1.4,1.3c2,0,2.1-1.8,2.1-2.5V49.4z M216.6,51.8
	L216.6,51.8c-0.4,0.8-1.4,1.3-2.2,1.3c-2,0-2.3-1.3-2.3-2c0-2.4,2.5-2.5,4.3-2.5h0.2v-0.4c0-1.2-0.4-1.8-1.6-1.8
	c-0.7,0-1.4,0.2-2,0.6v-0.8c0.5-0.3,1.4-0.5,2-0.5c1.7,0,2.4,0.8,2.4,2.6v3.1c0,0.6,0,1,0.1,1.5h-0.8V51.8z"/>
<path class="st0" d="M60.9,63.4c-0.6-0.3-1.5-0.4-2.1-0.4c-2.5,0-3.9,1.8-3.9,4.1c0,2.4,1.3,4.1,3.9,4.1c0.6,0,1.6-0.1,2.1-0.4
	l0.1,0.8c-0.5,0.3-1.6,0.4-2.2,0.4c-3,0-4.8-2-4.8-5c0-2.9,1.9-5,4.8-5c0.6,0,1.7,0.1,2.2,0.4L60.9,63.4z"/>
<path class="st0" d="M66.8,71.3c1.5,0,2.3-1.3,2.3-2.9c0-1.6-0.8-2.9-2.3-2.9c-1.5,0-2.3,1.3-2.3,2.9C64.5,70,65.3,71.3,66.8,71.3z
	 M66.8,64.7c2.2,0,3.2,1.8,3.2,3.7c0,1.9-1,3.7-3.2,3.7c-2.2,0-3.2-1.8-3.2-3.7C63.6,66.5,64.6,64.7,66.8,64.7z"/>
<path class="st0" d="M72.8,66.5c0-0.5,0-1.1-0.1-1.7h0.8v1.3h0c0.3-0.6,0.8-1.4,2.2-1.4c1.7,0,2.4,1.2,2.4,2.7v4.5h-0.9v-4.3
	c0-1.3-0.5-2.2-1.6-2.2c-1.6,0-2.1,1.4-2.1,2.6v3.9h-0.9V66.5z"/>
<path class="st0" d="M82,65.6h-1.4v-0.7H82v-0.5c0-1.5,0.1-3,1.8-3c0.3,0,0.6,0,0.8,0.1l-0.1,0.8c-0.2-0.1-0.4-0.2-0.7-0.2
	c-1.2,0-1,1.3-1,2.1v0.6h1.6v0.7h-1.6v6.3H82V65.6z"/>
<path class="st0" d="M91.2,67.9c0-1.2-0.5-2.4-1.8-2.4c-1.3,0-2,1.3-2,2.4H91.2z M91.6,71.7c-0.6,0.2-1.4,0.4-2,0.4
	c-2.3,0-3.2-1.6-3.2-3.7c0-2.1,1.2-3.7,2.9-3.7c2,0,2.8,1.6,2.8,3.5v0.4h-4.8c0,1.5,0.8,2.7,2.3,2.7c0.6,0,1.5-0.3,1.9-0.5V71.7z"/>
<path class="st0" d="M97.4,71.3c1.5,0,2.1-1.7,2.1-2.9c0-1.3-0.5-2.9-2.1-2.9c-1.6,0-2.1,1.6-2.1,2.9C95.4,69.7,95.8,71.3,97.4,71.3
	z M100.3,71.9h-0.9v-1.1h0c-0.5,0.9-1.2,1.3-2.2,1.3c-1.9,0-2.9-1.6-2.9-3.7c0-2.1,0.8-3.7,2.9-3.7c1.4,0,2,1,2.2,1.3h0v-4.5h0.9
	V71.9z"/>
<path class="st0" d="M107.7,67.9c0-1.2-0.5-2.4-1.8-2.4c-1.3,0-2,1.3-2,2.4H107.7z M108.1,71.7c-0.6,0.2-1.4,0.4-2,0.4
	c-2.3,0-3.2-1.6-3.2-3.7c0-2.1,1.2-3.7,2.9-3.7c2,0,2.8,1.6,2.8,3.5v0.4h-4.8c0,1.5,0.8,2.7,2.3,2.7c0.6,0,1.5-0.3,1.9-0.5V71.7z"/>
<path class="st0" d="M111.3,66.4c0-0.8,0-1.1-0.1-1.6h0.9v1.3h0c0.3-0.8,0.9-1.5,1.8-1.5c0.2,0,0.4,0,0.6,0.1v0.9
	c-0.2-0.1-0.4-0.1-0.6-0.1c-1.4,0-1.7,1.5-1.7,2.8v3.5h-0.9V66.4z"/>
<path class="st0" d="M120.8,68.3h-0.2c-1.5,0-3.3,0.2-3.3,1.7c0,0.9,0.7,1.3,1.4,1.3c2,0,2.1-1.8,2.1-2.5V68.3z M120.9,70.8
	L120.9,70.8c-0.4,0.8-1.4,1.3-2.2,1.3c-2,0-2.3-1.3-2.3-2c0-2.4,2.5-2.5,4.3-2.5h0.2v-0.4c0-1.2-0.4-1.8-1.6-1.8
	c-0.7,0-1.4,0.2-2,0.6v-0.8c0.5-0.3,1.4-0.5,2-0.5c1.7,0,2.4,0.8,2.4,2.6v3.1c0,0.6,0,1,0.1,1.5h-0.8V70.8z"/>
<path class="st0" d="M124.2,71.2l4.2-5.5h-4v-0.7h5v0.7l-4.2,5.5h4.2v0.7h-5.2V71.2z"/>
<path class="st0" d="M131.9,71.9h0.9v-7h-0.9V71.9z M131.9,63h0.9v-1.2h-0.9V63z"/>
<path class="st0" d="M141.4,70.2c0,0.5,0,1.1,0.1,1.7h-0.8v-1.3h0c-0.3,0.6-0.8,1.4-2.2,1.4c-1.7,0-2.4-1.2-2.4-2.7v-4.5h0.9v4.3
	c0,1.3,0.5,2.2,1.6,2.2c1.6,0,2.1-1.4,2.1-2.6v-3.9h0.9V70.2z"/>
<path class="st0" d="M144.6,66.5c0-0.5,0-1.1-0.1-1.7h0.8v1.3h0c0.3-0.6,0.8-1.4,2.2-1.4c1.7,0,2.4,1.2,2.4,2.7v4.5h-0.9v-4.3
	c0-1.3-0.5-2.2-1.6-2.2c-1.6,0-2.1,1.4-2.1,2.6v3.9h-0.9V66.5z"/>
<path class="st0" d="M157.4,70.9c0.5,0.3,1.1,0.4,1.8,0.4c0.8,0,1.5-0.5,1.5-1.3c0-1.7-3.3-1.4-3.3-3.4c0-1.4,1.1-1.9,2.3-1.9
	c0.4,0,1.1,0.1,1.7,0.3l-0.1,0.8c-0.4-0.2-1.1-0.3-1.5-0.3c-0.9,0-1.5,0.3-1.5,1.2c0,1.3,3.4,1.1,3.4,3.4c0,1.5-1.4,2-2.4,2
	c-0.7,0-1.3-0.1-1.9-0.3L157.4,70.9z"/>
<path class="st0" d="M166.7,71.9h-1l-2.4-7h0.9l1.9,6.1h0l2-6.1h0.9L166.7,71.9z"/>
<path class="st0" d="M171.4,71.9h0.9v-7h-0.9V71.9z M171.4,63h0.9v-1.2h-0.9V63z"/>
<path class="st0" d="M174.9,71.2l4.2-5.5h-4v-0.7h5v0.7l-4.2,5.5h4.2v0.7h-5.2V71.2z"/>
<path class="st0" d="M182.6,66.4c0-0.8,0-1.1-0.1-1.6h0.9v1.3h0c0.3-0.8,0.9-1.5,1.8-1.5c0.2,0,0.4,0,0.6,0.1v0.9
	c-0.2-0.1-0.4-0.1-0.6-0.1c-1.4,0-1.7,1.5-1.7,2.8v3.5h-0.9V66.4z"/>
<defs>
	<filter id="Adobe_OpacityMaskFilter" filterUnits="userSpaceOnUse" x="0" y="1.7" width="38.6" height="43.2">
		<feColorMatrix  type="matrix" values="1 0 0 0 0  0 1 0 0 0  0 0 1 0 0  0 0 0 1 0"/>
	</filter>
</defs>
<mask maskUnits="userSpaceOnUse" x="0" y="1.7" width="38.6" height="43.2" id="mask0_1_">
	<path class="st1" d="M0,1.7h190v108.1H0V1.7z"/>
</mask>
<g class="st2">
	<path class="st3" d="M38.6,4.9c0,0-7.2-3.2-19.3-3.2h0C7.3,1.7,0.1,4.9,0.1,4.9S-0.6,19,2.2,27c4.8,14,17.2,18,17.2,18h0
		c0,0,12.3-3.9,17.2-18C39.2,19,38.6,4.9,38.6,4.9z"/>
</g>
<path class="st4" d="M32.1,17.1v7.8h-9v9.1h-7.7v-9.1h-9v-7.8h9V8h7.7l0,9.1H32.1z"/>
</svg>
