<svg width="283" height="110" viewBox="0 0 283 110" fill="none" xmlns="http://www.w3.org/2000/svg">
<path fill-rule="evenodd" clip-rule="evenodd" d="M54.267 13.7357C54.8258 14.0932 55.4789 14.3004 56.3623 14.3004C57.5342 14.3004 58.5011 13.6954 58.5011 12.3332C58.5011 10.4486 54.1437 10.2139 54.1437 7.69672C54.1437 6.15672 55.4789 5.19238 57.1533 5.19238C57.6159 5.19238 58.3633 5.26205 59.0182 5.50955L58.8676 6.37672C58.4467 6.14205 57.7791 6.01922 57.1388 6.01922C56.1591 6.01922 55.0834 6.43172 55.0834 7.66922C55.0834 9.59605 59.439 9.60888 59.439 12.4157C59.439 14.3554 57.7918 15.1254 56.3224 15.1254C55.3972 15.1254 54.6752 14.9329 54.1709 14.7129L54.267 13.7357Z" fill="#1A1919"/>
<path fill-rule="evenodd" clip-rule="evenodd" d="M66.817 8.8793C66.3544 8.67396 65.7974 8.5218 65.333 8.5218C63.6586 8.5218 62.7189 9.74646 62.7189 11.4515C62.7189 13.0483 63.6731 14.383 65.2369 14.383C65.7829 14.383 66.2872 14.2583 66.8043 14.0658L66.8859 14.878C66.2999 15.0833 65.7557 15.1255 65.1026 15.1255C62.8695 15.1255 61.781 13.4058 61.781 11.4515C61.781 9.2918 63.1543 7.7793 65.2115 7.7793C66.0405 7.7793 66.6392 7.9718 66.8859 8.0543L66.817 8.8793Z" fill="#1A1919"/>
<path fill-rule="evenodd" clip-rule="evenodd" d="M69.4042 4.6416H70.2604V9.12594H70.2895C70.6559 8.35777 71.4323 7.77844 72.4519 7.77844C74.3186 7.77844 74.8211 9.0306 74.8211 10.7631V14.9596H73.963V10.7778C73.963 9.56777 73.7326 8.52094 72.3176 8.52094C70.792 8.52094 70.2604 9.98027 70.2604 11.2049V14.9596H69.4042V4.6416Z" fill="#1A1919"/>
<path fill-rule="evenodd" clip-rule="evenodd" d="M85.1667 14.9605H84.1327L82.2406 8.894H82.2134L80.3213 14.9605H79.2872L77.0541 7.94434H77.9938L79.817 14.0108H79.8442L81.778 7.94434H82.812L84.6497 14.0108H84.6769L86.5962 7.94434H87.4543L85.1667 14.9605Z" fill="#1A1919"/>
<path fill-rule="evenodd" clip-rule="evenodd" d="M93.9198 10.9565C93.9198 9.73363 93.43 8.5218 92.1511 8.5218C90.8848 8.5218 90.1084 9.80146 90.1084 10.9565H93.9198ZM94.3425 14.7405C93.7439 14.988 92.9674 15.1255 92.327 15.1255C90.0268 15.1255 89.1687 13.5561 89.1687 11.4515C89.1687 9.30646 90.3406 7.7793 92.0966 7.7793C94.0559 7.7793 94.8595 9.37613 94.8595 11.2608V11.7008H90.1084C90.1084 13.1858 90.8975 14.383 92.396 14.383C93.0218 14.383 93.9343 14.1226 94.3425 13.8605V14.7405Z" fill="#1A1919"/>
<path fill-rule="evenodd" clip-rule="evenodd" d="M97.5532 14.9601H98.4113V7.94395H97.5532V14.9601ZM97.5532 6.07395H98.4113V4.91895H97.5532V6.07395Z" fill="#1A1919"/>
<path fill-rule="evenodd" clip-rule="evenodd" d="M100.998 14.2327L105.178 8.68684H101.161V7.94434H106.17V8.68684L101.992 14.218H106.17V14.9605H100.998V14.2327Z" fill="#1A1919"/>
<path fill-rule="evenodd" clip-rule="evenodd" d="M112.977 10.9565C112.977 9.73363 112.487 8.5218 111.208 8.5218C109.942 8.5218 109.166 9.80146 109.166 10.9565H112.977ZM113.4 14.7405C112.801 14.988 112.025 15.1255 111.384 15.1255C109.084 15.1255 108.226 13.5561 108.226 11.4515C108.226 9.30646 109.398 7.7793 111.152 7.7793C113.113 7.7793 113.917 9.37613 113.917 11.2608V11.7008H109.166C109.166 13.1858 109.955 14.383 111.453 14.383C112.079 14.383 112.991 14.1226 113.4 13.8605V14.7405Z" fill="#1A1919"/>
<path fill-rule="evenodd" clip-rule="evenodd" d="M116.612 9.5118C116.612 8.7418 116.612 8.45396 116.558 7.9443H117.416V9.2918H117.441C117.755 8.50896 118.341 7.7793 119.227 7.7793C119.43 7.7793 119.675 7.82146 119.825 7.8618V8.77113C119.647 8.7143 119.417 8.6868 119.199 8.6868C117.837 8.6868 117.469 10.2286 117.469 11.4936V14.9605H116.612V9.5118Z" fill="#1A1919"/>
<path fill-rule="evenodd" clip-rule="evenodd" d="M122.207 14.9601H123.065V7.94395H122.207V14.9601ZM122.207 6.07395H123.065V4.91895H122.207V6.07395Z" fill="#1A1919"/>
<path fill-rule="evenodd" clip-rule="evenodd" d="M125.759 13.943C126.276 14.2033 126.903 14.383 127.569 14.383C128.386 14.383 129.108 13.9283 129.108 13.1308C129.108 11.4661 125.773 11.7283 125.773 9.69146C125.773 8.3018 126.889 7.7793 128.032 7.7793C128.4 7.7793 129.135 7.8618 129.746 8.09646L129.666 8.85363C129.216 8.64646 128.605 8.5218 128.128 8.5218C127.243 8.5218 126.63 8.7968 126.63 9.69146C126.63 10.9986 130.047 10.8336 130.047 13.1308C130.047 14.6176 128.672 15.1255 127.624 15.1255C126.956 15.1255 126.29 15.043 125.677 14.7955L125.759 13.943Z" fill="#1A1919"/>
<path fill-rule="evenodd" clip-rule="evenodd" d="M137.166 8.8793C136.703 8.67396 136.145 8.5218 135.682 8.5218C134.008 8.5218 133.068 9.74646 133.068 11.4515C133.068 13.0483 134.02 14.383 135.586 14.383C136.132 14.383 136.635 14.2583 137.153 14.0658L137.233 14.878C136.649 15.0833 136.103 15.1255 135.452 15.1255C133.219 15.1255 132.13 13.4058 132.13 11.4515C132.13 9.2918 133.503 7.7793 135.561 7.7793C136.39 7.7793 136.988 7.9718 137.233 8.0543L137.166 8.8793Z" fill="#1A1919"/>
<path fill-rule="evenodd" clip-rule="evenodd" d="M139.753 4.6416H140.609V9.12594H140.636C141.005 8.35777 141.781 7.77844 142.801 7.77844C144.667 7.77844 145.17 9.0306 145.17 10.7631V14.9596H144.312V10.7778C144.312 9.56777 144.081 8.52094 142.666 8.52094C141.141 8.52094 140.609 9.98027 140.609 11.2049V14.9596H139.753V4.6416Z" fill="#1A1919"/>
<path fill-rule="evenodd" clip-rule="evenodd" d="M152.617 10.9565C152.617 9.73363 152.125 8.5218 150.846 8.5218C149.58 8.5218 148.804 9.80146 148.804 10.9565H152.617ZM153.038 14.7405C152.439 14.988 151.665 15.1255 151.024 15.1255C148.722 15.1255 147.866 13.5561 147.866 11.4515C147.866 9.30646 149.036 7.7793 150.792 7.7793C152.753 7.7793 153.557 9.37613 153.557 11.2608V11.7008H148.804C148.804 13.1858 149.595 14.383 151.091 14.383C151.717 14.383 152.63 14.1226 153.038 13.8605V14.7405Z" fill="#1A1919"/>
<path fill-rule="evenodd" clip-rule="evenodd" d="M160.784 5.35742H165.439V6.18242H161.722V9.60892H165.248V10.4339H161.722V14.1354H165.602V14.9604H160.784V5.35742Z" fill="#1A1919"/>
<path fill-rule="evenodd" clip-rule="evenodd" d="M168.557 14.9601H169.415V7.94395H168.557V14.9601ZM168.557 6.07395H169.415V4.91895H168.557V6.07395Z" fill="#1A1919"/>
<path fill-rule="evenodd" clip-rule="evenodd" d="M175.226 14.3821C176.751 14.3821 177.281 12.7303 177.281 11.4506C177.281 10.1728 176.751 8.52094 175.226 8.52094C173.593 8.52094 173.17 10.0903 173.17 11.4506C173.17 12.8146 173.593 14.3821 175.226 14.3821ZM178.139 14.9596H177.281V13.8449H177.256C176.791 14.7396 176.084 15.1246 175.09 15.1246C173.185 15.1246 172.231 13.5296 172.231 11.4506C172.231 9.31844 173.049 7.77844 175.09 7.77844C176.452 7.77844 177.132 8.7831 177.256 9.12594H177.281V4.6416H178.139V14.9596Z" fill="#1A1919"/>
<path fill-rule="evenodd" clip-rule="evenodd" d="M183.803 14.218C185.354 14.218 185.913 12.7311 185.913 11.4515C185.913 9.76113 185.423 8.5218 183.858 8.5218C182.225 8.5218 181.802 10.0911 181.802 11.4515C181.802 12.8283 182.346 14.218 183.803 14.218ZM186.771 14.383C186.771 16.3373 185.9 17.9323 183.518 17.9323C182.606 17.9323 181.775 17.6701 181.421 17.5601L181.488 16.693C182.02 16.9698 182.782 17.1898 183.531 17.1898C185.737 17.1898 185.927 15.5655 185.927 13.5855H185.9C185.438 14.603 184.674 14.9605 183.79 14.9605C181.57 14.9605 180.862 13.008 180.862 11.4515C180.862 9.3193 181.679 7.7793 183.721 7.7793C184.647 7.7793 185.245 7.90213 185.886 8.7418H185.913V7.9443H186.771V14.383Z" fill="#1A1919"/>
<path fill-rule="evenodd" clip-rule="evenodd" d="M194.134 10.9565C194.134 9.73363 193.645 8.5218 192.366 8.5218C191.099 8.5218 190.323 9.80146 190.323 10.9565H194.134ZM194.557 14.7405C193.958 14.988 193.182 15.1255 192.542 15.1255C190.241 15.1255 189.385 13.5561 189.385 11.4515C189.385 9.30646 190.555 7.7793 192.311 7.7793C194.27 7.7793 195.074 9.37613 195.074 11.2608V11.7008H190.323C190.323 13.1858 191.114 14.383 192.61 14.383C193.236 14.383 194.149 14.1226 194.557 13.8605V14.7405Z" fill="#1A1919"/>
<path fill-rule="evenodd" clip-rule="evenodd" d="M197.77 9.59613C197.77 9.05896 197.77 8.50896 197.715 7.9443H198.546V9.19646H198.573C198.858 8.56396 199.375 7.7793 200.819 7.7793C202.535 7.7793 203.187 8.9343 203.187 10.4761V14.9605H202.33V10.6961C202.33 9.37613 201.868 8.5218 200.683 8.5218C199.118 8.5218 198.628 9.91146 198.628 11.0811V14.9605H197.77V9.59613Z" fill="#1A1919"/>
<path fill-rule="evenodd" clip-rule="evenodd" d="M209.11 14.383C210.606 14.383 211.41 13.0758 211.41 11.4515C211.41 9.82896 210.606 8.5218 209.11 8.5218C207.611 8.5218 206.808 9.82896 206.808 11.4515C206.808 13.0758 207.611 14.383 209.11 14.383ZM209.11 7.7793C211.356 7.7793 212.35 9.54113 212.35 11.4515C212.35 13.3636 211.356 15.1255 209.11 15.1255C206.864 15.1255 205.87 13.3636 205.87 11.4515C205.87 9.54113 206.864 7.7793 209.11 7.7793Z" fill="#1A1919"/>
<path fill-rule="evenodd" clip-rule="evenodd" d="M214.499 13.943C215.016 14.2033 215.644 14.383 216.31 14.383C217.126 14.383 217.848 13.9283 217.848 13.1308C217.848 11.4661 214.514 11.7283 214.514 9.69146C214.514 8.3018 215.63 7.7793 216.773 7.7793C217.141 7.7793 217.876 7.8618 218.487 8.09646L218.407 8.85363C217.957 8.64646 217.346 8.5218 216.869 8.5218C215.983 8.5218 215.37 8.7968 215.37 9.69146C215.37 10.9986 218.788 10.8336 218.788 13.1308C218.788 14.6176 217.413 15.1255 216.364 15.1255C215.697 15.1255 215.031 15.043 214.418 14.7955L214.499 13.943Z" fill="#1A1919"/>
<path fill-rule="evenodd" clip-rule="evenodd" d="M220.856 13.943C221.373 14.2033 222.001 14.383 222.667 14.383C223.483 14.383 224.205 13.9283 224.205 13.1308C224.205 11.4661 220.869 11.7283 220.869 9.69146C220.869 8.3018 221.986 7.7793 223.129 7.7793C223.498 7.7793 224.232 7.8618 224.844 8.09646L224.762 8.85363C224.314 8.64646 223.703 8.5218 223.225 8.5218C222.34 8.5218 221.727 8.7968 221.727 9.69146C221.727 10.9986 225.145 10.8336 225.145 13.1308C225.145 14.6176 223.77 15.1255 222.721 15.1255C222.053 15.1255 221.388 15.043 220.775 14.7955L220.856 13.943Z" fill="#1A1919"/>
<path fill-rule="evenodd" clip-rule="evenodd" d="M231.978 10.9565C231.978 9.73363 231.487 8.5218 230.208 8.5218C228.941 8.5218 228.165 9.80146 228.165 10.9565H231.978ZM232.399 14.7405C231.8 14.988 231.026 15.1255 230.385 15.1255C228.085 15.1255 227.227 13.5561 227.227 11.4515C227.227 9.30646 228.397 7.7793 230.153 7.7793C232.114 7.7793 232.918 9.37613 232.918 11.2608V11.7008H228.165C228.165 13.1858 228.956 14.383 230.453 14.383C231.078 14.383 231.991 14.1226 232.399 13.8605V14.7405Z" fill="#1A1919"/>
<path fill-rule="evenodd" clip-rule="evenodd" d="M235.612 9.59613C235.612 9.05896 235.612 8.50896 235.558 7.9443H236.389V9.19646H236.416C236.701 8.56396 237.218 7.7793 238.662 7.7793C240.376 7.7793 241.029 8.9343 241.029 10.4761V14.9605H240.173V10.6961C240.173 9.37613 239.71 8.5218 238.526 8.5218C236.96 8.5218 236.47 9.91146 236.47 11.0811V14.9605H235.612V9.59613Z" fill="#1A1919"/>
<path fill-rule="evenodd" clip-rule="evenodd" d="M243.712 13.943C244.229 14.2033 244.855 14.383 245.522 14.383C246.339 14.383 247.059 13.9283 247.059 13.1308C247.059 11.4661 243.725 11.7283 243.725 9.69146C243.725 8.3018 244.84 7.7793 245.985 7.7793C246.351 7.7793 247.088 7.8618 247.699 8.09646L247.618 8.85363C247.17 8.64646 246.556 8.5218 246.079 8.5218C245.196 8.5218 244.583 8.7968 244.583 9.69146C244.583 10.9986 248.001 10.8336 248.001 13.1308C248.001 14.6176 246.624 15.1255 245.577 15.1255C244.909 15.1255 244.242 15.043 243.629 14.7955L243.712 13.943Z" fill="#1A1919"/>
<path fill-rule="evenodd" clip-rule="evenodd" d="M255.119 8.8793C254.656 8.67396 254.098 8.5218 253.635 8.5218C251.961 8.5218 251.021 9.74646 251.021 11.4515C251.021 13.0483 251.973 14.383 253.539 14.383C254.085 14.383 254.588 14.2583 255.106 14.0658L255.186 14.878C254.602 15.0833 254.056 15.1255 253.405 15.1255C251.172 15.1255 250.081 13.4058 250.081 11.4515C250.081 9.2918 251.456 7.7793 253.514 7.7793C254.343 7.7793 254.941 7.9718 255.186 8.0543L255.119 8.8793Z" fill="#1A1919"/>
<path fill-rule="evenodd" clip-rule="evenodd" d="M257.706 4.6416H258.562V9.12594H258.59C258.958 8.35777 259.734 7.77844 260.754 7.77844C262.619 7.77844 263.123 9.0306 263.123 10.7631V14.9596H262.267V10.7778C262.267 9.56777 262.034 8.52094 260.619 8.52094C259.094 8.52094 258.562 9.98027 258.562 11.2049V14.9596H257.706V4.6416Z" fill="#1A1919"/>
<path fill-rule="evenodd" clip-rule="evenodd" d="M270.242 11.424H269.998C268.513 11.424 266.746 11.5761 266.746 13.118C266.746 14.0383 267.397 14.383 268.186 14.383C270.202 14.383 270.242 12.6083 270.242 11.8511V11.424ZM270.323 13.833H270.298C269.917 14.6708 268.948 15.1255 268.092 15.1255C266.118 15.1255 265.804 13.778 265.804 13.1436C265.804 10.7933 268.282 10.6833 270.078 10.6833H270.242V10.324C270.242 9.1268 269.821 8.5218 268.663 8.5218C267.943 8.5218 267.263 8.6868 266.621 9.0993V8.26146C267.152 7.9993 268.05 7.7793 268.663 7.7793C270.378 7.7793 271.1 8.56396 271.1 10.3936V13.4883C271.1 14.053 271.1 14.4783 271.169 14.9605H270.323V13.833Z" fill="#1A1919"/>
<path fill-rule="evenodd" clip-rule="evenodd" d="M274.787 8.6859H273.387V7.9434H274.787V7.43556C274.787 5.9634 274.842 4.47656 276.627 4.47656C276.897 4.47656 277.266 4.51873 277.429 4.61406L277.374 5.37123C277.197 5.27406 276.939 5.2209 276.694 5.2209C275.522 5.2209 275.646 6.49873 275.646 7.3384V7.9434H277.211V8.6859H275.646V14.9596H274.787V8.6859Z" fill="#1A1919"/>
<path fill-rule="evenodd" clip-rule="evenodd" d="M282.791 8.68639H281.213V13.2276C281.213 13.8601 281.445 14.3826 282.14 14.3826C282.467 14.3826 282.684 14.3147 282.928 14.2176L282.984 14.9326C282.779 15.0151 282.358 15.1251 281.935 15.1251C280.411 15.1251 280.355 14.0654 280.355 12.7876V8.68639H278.995V7.94389H280.355V6.25172L281.213 5.94922V7.94389H282.791V8.68639Z" fill="#1A1919"/>
<path fill-rule="evenodd" clip-rule="evenodd" d="M60.9376 25.4064C60.3389 25.0893 59.4808 24.9939 58.8133 24.9939C56.3497 24.9939 54.9601 26.7539 54.9601 29.1354C54.9601 31.5554 56.3098 33.2751 58.8133 33.2751C59.4391 33.2751 60.3933 33.1926 60.9376 32.8626L60.992 33.6876C60.4732 34.0048 59.4119 34.1001 58.8133 34.1001C55.8182 34.1001 54.0222 32.1054 54.0222 29.1354C54.0222 26.2186 55.8726 24.1689 58.8133 24.1689C59.372 24.1689 60.5022 24.2643 60.992 24.5264L60.9376 25.4064Z" fill="#1A1919"/>
<path fill-rule="evenodd" clip-rule="evenodd" d="M66.8317 33.3576C68.3301 33.3576 69.1319 32.0504 69.1319 30.4279C69.1319 28.8036 68.3301 27.4964 66.8317 27.4964C65.335 27.4964 64.5314 28.8036 64.5314 30.4279C64.5314 32.0504 65.335 33.3576 66.8317 33.3576ZM66.8317 26.7539C69.0775 26.7539 70.0717 28.5157 70.0717 30.4279C70.0717 32.3401 69.0775 34.1001 66.8317 34.1001C64.5858 34.1001 63.5917 32.3401 63.5917 30.4279C63.5917 28.5157 64.5858 26.7539 66.8317 26.7539Z" fill="#1A1919"/>
<path fill-rule="evenodd" clip-rule="evenodd" d="M72.7529 28.5707C72.7529 28.0336 72.7529 27.4836 72.6985 26.9189H73.5293V28.1711H73.5566C73.8414 27.5386 74.3584 26.7539 75.8024 26.7539C77.5168 26.7539 78.1698 27.9107 78.1698 29.4507V33.9351H77.3136V29.6707C77.3136 28.3507 76.851 27.4964 75.6664 27.4964C74.1008 27.4964 73.611 28.8861 73.611 30.0557V33.9351H72.7529V28.5707Z" fill="#1A1919"/>
<path fill-rule="evenodd" clip-rule="evenodd" d="M81.9686 27.6615H80.5663V26.919H81.9686V26.4111C81.9686 24.939 82.023 23.4521 83.8063 23.4521C84.0784 23.4521 84.4466 23.4943 84.6099 23.5896L84.5555 24.3468C84.3777 24.2496 84.1201 24.1965 83.8734 24.1965C82.7033 24.1965 82.8267 25.4743 82.8267 26.314V26.919H84.3922V27.6615H82.8267V33.9351H81.9686V27.6615Z" fill="#1A1919"/>
<path fill-rule="evenodd" clip-rule="evenodd" d="M89.7817 24.209H90.8575L89.1431 26.1908H88.5155L89.7817 24.209ZM91.2112 29.9327C91.2112 28.708 90.7214 27.4962 89.4425 27.4962C88.1744 27.4962 87.3998 28.7758 87.3998 29.9327H91.2112ZM91.6339 33.7148C91.0353 33.9623 90.2588 34.0998 89.6184 34.0998C87.3182 34.0998 86.4601 32.5323 86.4601 30.4277C86.4601 28.2808 87.632 26.7537 89.3862 26.7537C91.3473 26.7537 92.1509 28.3505 92.1509 30.2352V30.6752H87.3998C87.3998 32.1602 88.1889 33.3573 89.6856 33.3573C90.3132 33.3573 91.2257 33.097 91.6339 32.8348V33.7148Z" fill="#1A1919"/>
<path fill-rule="evenodd" clip-rule="evenodd" d="M97.432 33.3577C98.9558 33.3577 99.4874 31.7059 99.4874 30.428C99.4874 29.1484 98.9558 27.4965 97.432 27.4965C95.7993 27.4965 95.3766 29.0659 95.3766 30.428C95.3766 31.7902 95.7993 33.3577 97.432 33.3577ZM100.345 33.9352H99.4874V32.8205H99.4602C98.9976 33.7152 98.2901 34.1002 97.2959 34.1002C95.3911 34.1002 94.4369 32.5052 94.4369 30.428C94.4369 28.2959 95.2532 26.754 97.2959 26.754C98.6565 26.754 99.3368 27.7587 99.4602 28.1034H99.4874V23.6172H100.345V33.9352Z" fill="#1A1919"/>
<path fill-rule="evenodd" clip-rule="evenodd" d="M106.279 24.209H107.355L105.639 26.1908H105.015L106.279 24.209ZM107.709 29.9327C107.709 28.708 107.219 27.4962 105.94 27.4962C104.674 27.4962 103.897 28.7758 103.897 29.9327H107.709ZM108.131 33.7148C107.533 33.9623 106.756 34.0998 106.116 34.0998C103.816 34.0998 102.958 32.5323 102.958 30.4277C102.958 28.2808 104.129 26.7537 105.885 26.7537C107.845 26.7537 108.648 28.3505 108.648 30.2352V30.6752H103.897C103.897 32.1602 104.688 33.3573 106.185 33.3573C106.811 33.3573 107.723 33.097 108.131 32.8348V33.7148Z" fill="#1A1919"/>
<path fill-rule="evenodd" clip-rule="evenodd" d="M111.344 28.4864C111.344 27.7182 111.344 27.4286 111.29 26.9189H112.148V28.2682H112.173C112.487 27.4836 113.073 26.7539 113.958 26.7539C114.161 26.7539 114.406 26.7961 114.557 26.8364V27.7457C114.379 27.6889 114.149 27.6614 113.931 27.6614C112.569 27.6614 112.202 29.2032 112.202 30.4682V33.9351H111.344V28.4864Z" fill="#1A1919"/>
<path fill-rule="evenodd" clip-rule="evenodd" d="M120.846 30.4004H120.6C119.118 30.4004 117.347 30.5507 117.347 32.0926C117.347 33.0129 118 33.3576 118.789 33.3576C120.805 33.3576 120.846 31.5829 120.846 30.8257V30.4004ZM120.928 32.8076H120.901C120.52 33.6454 119.553 34.1001 118.695 34.1001C116.721 34.1001 116.407 32.7526 116.407 32.1182C116.407 29.7679 118.885 29.6579 120.681 29.6579H120.846V29.2986C120.846 28.1032 120.424 27.4964 119.266 27.4964C118.544 27.4964 117.864 27.6614 117.226 28.0739V27.2361C117.755 26.9739 118.653 26.7539 119.266 26.7539C120.981 26.7539 121.703 27.5386 121.703 29.3682V32.4629C121.703 33.0276 121.703 33.4529 121.772 33.9351H120.928V32.8076Z" fill="#1A1919"/>
<path fill-rule="evenodd" clip-rule="evenodd" d="M127.801 27.661H126.221V32.2022C126.221 32.8347 126.454 33.3572 127.147 33.3572C127.475 33.3572 127.693 33.2893 127.937 33.1922L127.992 33.9072C127.787 33.9897 127.366 34.0997 126.943 34.0997C125.419 34.0997 125.363 33.04 125.363 31.7622V27.661H124.003V26.9185H125.363V25.2263L126.221 24.9238V26.9185H127.801V27.661Z" fill="#1A1919"/>
<path fill-rule="evenodd" clip-rule="evenodd" d="M130.401 33.9347H131.259V26.9186H130.401V33.9347ZM130.401 25.0486H131.259V23.8936H130.401V25.0486Z" fill="#1A1919"/>
<path fill-rule="evenodd" clip-rule="evenodd" d="M137.193 33.3576C138.692 33.3576 139.493 32.0504 139.493 30.4279C139.493 28.8036 138.692 27.4964 137.193 27.4964C135.696 27.4964 134.893 28.8036 134.893 30.4279C134.893 32.0504 135.696 33.3576 137.193 33.3576ZM137.193 26.7539C139.439 26.7539 140.433 28.5157 140.433 30.4279C140.433 32.3401 139.439 34.1001 137.193 34.1001C134.947 34.1001 133.953 32.3401 133.953 30.4279C133.953 28.5157 134.947 26.7539 137.193 26.7539Z" fill="#1A1919"/>
<path fill-rule="evenodd" clip-rule="evenodd" d="M143.115 28.5707C143.115 28.0336 143.115 27.4836 143.06 26.9189H143.891V28.1711H143.918C144.203 27.5386 144.72 26.7539 146.164 26.7539C147.88 26.7539 148.532 27.9107 148.532 29.4507V33.9351H147.675V29.6707C147.675 28.3507 147.213 27.4964 146.028 27.4964C144.463 27.4964 143.973 28.8861 143.973 30.0557V33.9351H143.115V28.5707Z" fill="#1A1919"/>
<path fill-rule="evenodd" clip-rule="evenodd" d="M155.926 32.9176C156.443 33.1797 157.068 33.3576 157.736 33.3576C158.552 33.3576 159.273 32.9029 159.273 32.1054C159.273 30.4407 155.938 30.7029 155.938 28.6661C155.938 27.2764 157.054 26.7539 158.199 26.7539C158.565 26.7539 159.302 26.8364 159.913 27.0711L159.831 27.8282C159.381 27.6211 158.77 27.4964 158.293 27.4964C157.41 27.4964 156.796 27.7714 156.796 28.6661C156.796 29.9732 160.212 29.8082 160.212 32.1054C160.212 33.5922 158.837 34.1001 157.789 34.1001C157.123 34.1001 156.455 34.0176 155.842 33.7701L155.926 32.9176Z" fill="#1A1919"/>
<path fill-rule="evenodd" clip-rule="evenodd" d="M168.229 32.2851C168.229 32.8205 168.229 33.3723 168.285 33.9351H167.454V32.6848H167.427C167.14 33.3154 166.623 34.1001 165.181 34.1001C163.465 34.1001 162.812 32.9451 162.812 31.4033V26.9189H163.67V31.1833C163.67 32.5051 164.133 33.3576 165.317 33.3576C166.883 33.3576 167.373 31.9679 167.373 30.7983V26.9189H168.229V32.2851Z" fill="#1A1919"/>
<path fill-rule="evenodd" clip-rule="evenodd" d="M171.442 33.9347H172.3V26.9186H171.442V33.9347ZM171.442 25.0486H172.3V23.8936H171.442V25.0486Z" fill="#1A1919"/>
<path fill-rule="evenodd" clip-rule="evenodd" d="M174.995 32.9176C175.512 33.1797 176.138 33.3576 176.806 33.3576C177.622 33.3576 178.344 32.9029 178.344 32.1054C178.344 30.4407 175.008 30.7029 175.008 28.6661C175.008 27.2764 176.126 26.7539 177.269 26.7539C177.637 26.7539 178.371 26.8364 178.983 27.0711L178.901 27.8282C178.453 27.6211 177.84 27.4964 177.365 27.4964C176.479 27.4964 175.866 27.7714 175.866 28.6661C175.866 29.9732 179.282 29.8082 179.282 32.1054C179.282 33.5922 177.907 34.1001 176.86 34.1001C176.193 34.1001 175.525 34.0176 174.914 33.7701L174.995 32.9176Z" fill="#1A1919"/>
<path fill-rule="evenodd" clip-rule="evenodd" d="M181.352 32.9176C181.871 33.1797 182.497 33.3576 183.165 33.3576C183.981 33.3576 184.701 32.9029 184.701 32.1054C184.701 30.4407 181.367 30.7029 181.367 28.6661C181.367 27.2764 182.483 26.7539 183.627 26.7539C183.994 26.7539 184.73 26.8364 185.342 27.0711L185.26 27.8282C184.812 27.6211 184.199 27.4964 183.722 27.4964C182.838 27.4964 182.225 27.7714 182.225 28.6661C182.225 29.9732 185.643 29.8082 185.643 32.1054C185.643 33.5922 184.266 34.1001 183.219 34.1001C182.552 34.1001 181.884 34.0176 181.271 33.7701L181.352 32.9176Z" fill="#1A1919"/>
<path fill-rule="evenodd" clip-rule="evenodd" d="M192.475 29.9329C192.475 28.7082 191.985 27.4964 190.706 27.4964C189.438 27.4964 188.663 28.7761 188.663 29.9329H192.475ZM192.897 33.7151C192.297 33.9626 191.522 34.1001 190.882 34.1001C188.581 34.1001 187.723 32.5326 187.723 30.4279C187.723 28.2811 188.895 26.7539 190.65 26.7539C192.611 26.7539 193.414 28.3507 193.414 30.2354V30.6754H188.663C188.663 32.1604 189.452 33.3576 190.949 33.3576C191.577 33.3576 192.487 33.0972 192.897 32.8351V33.7151Z" fill="#1A1919"/>
<path fill-rule="evenodd" clip-rule="evenodd" d="M60.9376 44.3811C60.3389 44.0657 59.4808 43.9686 58.8133 43.9686C56.3497 43.9686 54.9601 45.7286 54.9601 48.1101C54.9601 50.5301 56.3098 52.2497 58.8133 52.2497C59.4391 52.2497 60.3933 52.1672 60.9376 51.8372L60.992 52.6622C60.4732 52.9794 59.4119 53.0747 58.8133 53.0747C55.8182 53.0747 54.0222 51.0801 54.0222 48.1101C54.0222 45.1932 55.8726 43.1436 58.8133 43.1436C59.372 43.1436 60.5022 43.2389 60.992 43.4992L60.9376 44.3811Z" fill="#1A1919"/>
<path fill-rule="evenodd" clip-rule="evenodd" d="M66.8317 52.3322C68.3301 52.3322 69.1319 51.025 69.1319 49.4025C69.1319 47.7782 68.3301 46.4728 66.8317 46.4728C65.335 46.4728 64.5314 47.7782 64.5314 49.4025C64.5314 51.025 65.335 52.3322 66.8317 52.3322ZM66.8317 45.7285C69.0775 45.7285 70.0717 47.4903 70.0717 49.4025C70.0717 51.3147 69.0775 53.0747 66.8317 53.0747C64.5858 53.0747 63.5917 51.3147 63.5917 49.4025C63.5917 47.4903 64.5858 45.7285 66.8317 45.7285Z" fill="#1A1919"/>
<path fill-rule="evenodd" clip-rule="evenodd" d="M72.7529 47.5453C72.7529 47.0082 72.7529 46.4582 72.6985 45.8935H73.5293V47.1457H73.5566C73.8414 46.5132 74.3584 45.7285 75.8024 45.7285C77.5168 45.7285 78.1698 46.8853 78.1698 48.4253V52.9097H77.3136V48.6453C77.3136 47.3253 76.851 46.4728 75.6664 46.4728C74.1008 46.4728 73.611 47.8607 73.611 49.0303V52.9097H72.7529V47.5453Z" fill="#1A1919"/>
<path fill-rule="evenodd" clip-rule="evenodd" d="M81.9686 46.6361H80.5663V45.8936H81.9686V45.3858C81.9686 43.9136 82.023 42.4268 83.8063 42.4268C84.0784 42.4268 84.4466 42.4689 84.6099 42.5661L84.5555 43.3214C84.3777 43.2261 84.1201 43.1711 83.8734 43.1711C82.7033 43.1711 82.8267 44.4508 82.8267 45.2886V45.8936H84.3922V46.6361H82.8267V52.9097H81.9686V46.6361Z" fill="#1A1919"/>
<path fill-rule="evenodd" clip-rule="evenodd" d="M91.2112 48.9075C91.2112 47.6828 90.7214 46.4728 89.4425 46.4728C88.1744 46.4728 87.3998 47.7507 87.3998 48.9075H91.2112ZM91.6339 52.6897C91.0353 52.9372 90.2588 53.0747 89.6184 53.0747C87.3182 53.0747 86.4601 51.5072 86.4601 49.4025C86.4601 47.2557 87.632 45.7285 89.3862 45.7285C91.3473 45.7285 92.1509 47.3253 92.1509 49.21V49.65H87.3998C87.3998 51.135 88.1889 52.3322 89.6856 52.3322C90.3132 52.3322 91.2257 52.0719 91.6339 51.8097V52.6897Z" fill="#1A1919"/>
<path fill-rule="evenodd" clip-rule="evenodd" d="M97.432 52.3323C98.9558 52.3323 99.4874 50.6804 99.4874 49.4026C99.4874 48.123 98.9558 46.473 97.432 46.473C95.7993 46.473 95.3766 48.0405 95.3766 49.4026C95.3766 50.7648 95.7993 52.3323 97.432 52.3323ZM100.345 52.9098H99.4874V51.7951H99.4602C98.9976 52.6898 98.2901 53.0748 97.2959 53.0748C95.3911 53.0748 94.4369 51.4798 94.4369 49.4026C94.4369 47.2705 95.2532 45.7286 97.2959 45.7286C98.6565 45.7286 99.3368 46.7333 99.4602 47.078H99.4874V42.5918H100.345V52.9098Z" fill="#1A1919"/>
<path fill-rule="evenodd" clip-rule="evenodd" d="M107.709 48.9075C107.709 47.6828 107.219 46.4728 105.94 46.4728C104.674 46.4728 103.897 47.7507 103.897 48.9075H107.709ZM108.131 52.6897C107.533 52.9372 106.756 53.0747 106.116 53.0747C103.816 53.0747 102.958 51.5072 102.958 49.4025C102.958 47.2557 104.129 45.7285 105.885 45.7285C107.845 45.7285 108.648 47.3253 108.648 49.21V49.65H103.897C103.897 51.135 104.688 52.3322 106.185 52.3322C106.811 52.3322 107.723 52.0719 108.131 51.8097V52.6897Z" fill="#1A1919"/>
<path fill-rule="evenodd" clip-rule="evenodd" d="M111.344 47.4628C111.344 46.6928 111.344 46.4032 111.29 45.8935H112.148V47.241H112.173C112.487 46.4582 113.073 45.7285 113.958 45.7285C114.161 45.7285 114.406 45.7707 114.557 45.811V46.7203C114.379 46.6653 114.149 46.636 113.931 46.636C112.569 46.636 112.202 48.1778 112.202 49.4428V52.9097H111.344V47.4628Z" fill="#1A1919"/>
<path fill-rule="evenodd" clip-rule="evenodd" d="M120.846 49.375H120.6C119.118 49.375 117.347 49.5272 117.347 51.0672C117.347 51.9875 118 52.3322 118.789 52.3322C120.805 52.3322 120.846 50.5575 120.846 49.8004V49.375ZM120.928 51.7822H120.901C120.52 52.6219 119.553 53.0747 118.695 53.0747C116.721 53.0747 116.407 51.7272 116.407 51.0947C116.407 48.7425 118.885 48.6325 120.681 48.6325H120.846V48.2732C120.846 47.0778 120.424 46.4728 119.266 46.4728C118.544 46.4728 117.864 46.636 117.226 47.0485V46.2107C117.755 45.9485 118.653 45.7285 119.266 45.7285C120.981 45.7285 121.703 46.5132 121.703 48.3428V51.4394C121.703 52.0022 121.703 52.4294 121.772 52.9097H120.928V51.7822Z" fill="#1A1919"/>
<path fill-rule="evenodd" clip-rule="evenodd" d="M124.166 52.1819L128.346 46.6361H124.33V45.8936H129.338V46.6361L125.16 52.1672H129.338V52.9097H124.166V52.1819Z" fill="#1A1919"/>
<path fill-rule="evenodd" clip-rule="evenodd" d="M131.912 52.9103H132.77V45.8941H131.912V52.9103ZM131.912 44.0241H132.77V42.8691H131.912V44.0241Z" fill="#1A1919"/>
<path fill-rule="evenodd" clip-rule="evenodd" d="M138.704 52.3322C140.203 52.3322 141.005 51.025 141.005 49.4025C141.005 47.7782 140.203 46.4728 138.704 46.4728C137.208 46.4728 136.404 47.7782 136.404 49.4025C136.404 51.025 137.208 52.3322 138.704 52.3322ZM138.704 45.7285C140.95 45.7285 141.944 47.4903 141.944 49.4025C141.944 51.3147 140.95 53.0747 138.704 53.0747C136.459 53.0747 135.464 51.3147 135.464 49.4025C135.464 47.4903 136.459 45.7285 138.704 45.7285Z" fill="#1A1919"/>
<path fill-rule="evenodd" clip-rule="evenodd" d="M144.626 47.5453C144.626 47.0082 144.626 46.4582 144.571 45.8935H145.402V47.1457H145.429C145.714 46.5132 146.231 45.7285 147.675 45.7285C149.391 45.7285 150.044 46.8853 150.044 48.4253V52.9097H149.186V48.6453C149.186 47.3253 148.724 46.4728 147.539 46.4728C145.973 46.4728 145.484 47.8607 145.484 49.0303V52.9097H144.626V47.5453Z" fill="#1A1919"/>
<path fill-rule="evenodd" clip-rule="evenodd" d="M157.489 48.9075C157.489 47.6828 156.999 46.4728 155.721 46.4728C154.454 46.4728 153.678 47.7507 153.678 48.9075H157.489ZM157.912 52.6897C157.313 52.9372 156.537 53.0747 155.897 53.0747C153.596 53.0747 152.738 51.5072 152.738 49.4025C152.738 47.2557 153.91 45.7285 155.666 45.7285C157.625 45.7285 158.429 47.3253 158.429 49.21V49.65H153.678C153.678 51.135 154.467 52.3322 155.965 52.3322C156.591 52.3322 157.504 52.0719 157.912 51.8097V52.6897Z" fill="#1A1919"/>
<path fill-rule="evenodd" clip-rule="evenodd" d="M165.671 51.6851C166.23 52.0444 166.883 52.2497 167.766 52.2497C168.938 52.2497 169.905 51.6447 169.905 50.2826C169.905 48.3979 165.548 48.1632 165.548 45.6461C165.548 44.1061 166.883 43.1436 168.557 43.1436C169.02 43.1436 169.769 43.2114 170.422 43.4589L170.272 44.3261C169.851 44.0914 169.183 43.9686 168.543 43.9686C167.563 43.9686 166.488 44.3811 166.488 45.6186C166.488 47.5454 170.843 47.5582 170.843 50.3651C170.843 52.3047 169.198 53.0747 167.727 53.0747C166.801 53.0747 166.079 52.8822 165.575 52.6622L165.671 51.6851Z" fill="#1A1919"/>
<path fill-rule="evenodd" clip-rule="evenodd" d="M176.111 52.9097H175.104L172.75 45.8936H173.689L175.609 51.9619H175.634L177.65 45.8936H178.548L176.111 52.9097Z" fill="#1A1919"/>
<path fill-rule="evenodd" clip-rule="evenodd" d="M180.808 52.9103H181.666V45.8941H180.808V52.9103ZM180.808 44.0241H181.666V42.8691H180.808V44.0241Z" fill="#1A1919"/>
<path fill-rule="evenodd" clip-rule="evenodd" d="M184.253 52.1819L188.433 46.6361H184.416V45.8936H189.425V46.6361L185.247 52.1672H189.425V52.9097H184.253V52.1819Z" fill="#1A1919"/>
<path fill-rule="evenodd" clip-rule="evenodd" d="M191.359 52.1819L195.539 46.6361H191.522V45.8936H196.531V46.6361L192.353 52.1672H196.531V52.9097H191.359V52.1819Z" fill="#1A1919"/>
<path fill-rule="evenodd" clip-rule="evenodd" d="M203.336 48.9075C203.336 47.6828 202.846 46.4728 201.567 46.4728C200.301 46.4728 199.524 47.7507 199.524 48.9075H203.336ZM203.758 52.6897C203.16 52.9372 202.385 53.0747 201.745 53.0747C199.442 53.0747 198.586 51.5072 198.586 49.4025C198.586 47.2557 199.756 45.7285 201.512 45.7285C203.473 45.7285 204.275 47.3253 204.275 49.21V49.65H199.524C199.524 51.135 200.315 52.3322 201.812 52.3322C202.438 52.3322 203.35 52.0719 203.758 51.8097V52.6897Z" fill="#1A1919"/>
<path fill-rule="evenodd" clip-rule="evenodd" d="M206.971 47.4628C206.971 46.6928 206.971 46.4032 206.918 45.8935H207.774V47.241H207.802C208.116 46.4582 208.7 45.7285 209.585 45.7285C209.79 45.7285 210.035 45.7707 210.184 45.811V46.7203C210.008 46.6653 209.775 46.636 209.558 46.636C208.197 46.636 207.829 48.1778 207.829 49.4428V52.9097H206.971V47.4628Z" fill="#1A1919"/>
<path fill-rule="evenodd" clip-rule="evenodd" d="M216.473 49.375H216.228C214.745 49.375 212.974 49.5272 212.974 51.0672C212.974 51.9875 213.629 52.3322 214.418 52.3322C216.432 52.3322 216.473 50.5575 216.473 49.8004V49.375ZM216.555 51.7822H216.528C216.147 52.6219 215.18 53.0747 214.322 53.0747C212.348 53.0747 212.036 51.7272 212.036 51.0947C212.036 48.7425 214.514 48.6325 216.31 48.6325H216.473V48.2732C216.473 47.0778 216.051 46.4728 214.895 46.4728C214.173 46.4728 213.493 46.636 212.852 47.0485V46.2107C213.384 45.9485 214.282 45.7285 214.895 45.7285C216.609 45.7285 217.331 46.5132 217.331 48.3428V51.4394C217.331 52.0022 217.331 52.4294 217.399 52.9097H216.555V51.7822Z" fill="#1A1919"/>
<path fill-rule="evenodd" clip-rule="evenodd" d="M60.9376 63.3565C60.3389 63.0394 59.4808 62.9422 58.8133 62.9422C56.3497 62.9422 54.9601 64.704 54.9601 67.0837C54.9601 69.5055 56.3098 71.2252 58.8133 71.2252C59.4391 71.2252 60.3933 71.1427 60.9376 70.8109L60.992 71.6377C60.4732 71.953 59.4119 72.0502 58.8133 72.0502C55.8182 72.0502 54.0222 70.0555 54.0222 67.0837C54.0222 64.1669 55.8726 62.1172 58.8133 62.1172C59.372 62.1172 60.5022 62.2125 60.992 62.4747L60.9376 63.3565Z" fill="#1A1919"/>
<path fill-rule="evenodd" clip-rule="evenodd" d="M66.8317 71.3078C68.3301 71.3078 69.1319 70.0006 69.1319 68.3763C69.1319 66.7538 68.3301 65.4466 66.8317 65.4466C65.335 65.4466 64.5314 66.7538 64.5314 68.3763C64.5314 70.0006 65.335 71.3078 66.8317 71.3078ZM66.8317 64.7041C69.0775 64.7041 70.0717 66.4641 70.0717 68.3763C70.0717 70.2884 69.0775 72.0503 66.8317 72.0503C64.5858 72.0503 63.5917 70.2884 63.5917 68.3763C63.5917 66.4641 64.5858 64.7041 66.8317 64.7041Z" fill="#1A1919"/>
<path fill-rule="evenodd" clip-rule="evenodd" d="M72.7529 66.5209C72.7529 65.9838 72.7529 65.4338 72.6985 64.8691H73.5293V66.1213H73.5566C73.8414 65.4888 74.3584 64.7041 75.8024 64.7041C77.5168 64.7041 78.1698 65.8591 78.1698 67.4009V71.8853H77.3136V67.6209C77.3136 66.2991 76.851 65.4466 75.6664 65.4466C74.1008 65.4466 73.611 66.8363 73.611 68.0059V71.8853H72.7529V66.5209Z" fill="#1A1919"/>
<path fill-rule="evenodd" clip-rule="evenodd" d="M81.9686 65.6117H80.5663V64.8692H81.9686V64.3595C81.9686 62.8892 82.023 61.4023 83.8063 61.4023C84.0784 61.4023 84.4466 61.4445 84.6099 61.5398L84.5555 62.297C84.3777 62.1998 84.1201 62.1448 83.8734 62.1448C82.7033 62.1448 82.8267 63.4245 82.8267 64.2642V64.8692H84.3922V65.6117H82.8267V71.8853H81.9686V65.6117Z" fill="#1A1919"/>
<path fill-rule="evenodd" clip-rule="evenodd" d="M91.2112 67.8813C91.2112 66.6566 90.7214 65.4466 89.4425 65.4466C88.1744 65.4466 87.3998 66.7263 87.3998 67.8813H91.2112ZM91.6339 71.6653C91.0353 71.9128 90.2588 72.0503 89.6184 72.0503C87.3182 72.0503 86.4601 70.4809 86.4601 68.3763C86.4601 66.2313 87.632 64.7041 89.3862 64.7041C91.3473 64.7041 92.1509 66.2991 92.1509 68.1838V68.6256H87.3998C87.3998 70.1106 88.1889 71.3078 89.6856 71.3078C90.3132 71.3078 91.2257 71.0456 91.6339 70.7853V71.6653Z" fill="#1A1919"/>
<path fill-rule="evenodd" clip-rule="evenodd" d="M97.432 71.3079C98.9558 71.3079 99.4874 69.6561 99.4874 68.3764C99.4874 67.0986 98.9558 65.4467 97.432 65.4467C95.7993 65.4467 95.3766 67.0161 95.3766 68.3764C95.3766 69.7386 95.7993 71.3079 97.432 71.3079ZM100.345 71.8854H99.4874V70.7707H99.4602C98.9976 71.6654 98.2901 72.0504 97.2959 72.0504C95.3911 72.0504 94.4369 70.4554 94.4369 68.3764C94.4369 66.2442 95.2532 64.7042 97.2959 64.7042C98.6565 64.7042 99.3368 65.7089 99.4602 66.0517H99.4874V61.5674H100.345V71.8854Z" fill="#1A1919"/>
<path fill-rule="evenodd" clip-rule="evenodd" d="M107.709 67.8813C107.709 66.6566 107.219 65.4466 105.94 65.4466C104.674 65.4466 103.897 66.7263 103.897 67.8813H107.709ZM108.131 71.6653C107.533 71.9128 106.756 72.0503 106.116 72.0503C103.816 72.0503 102.958 70.4809 102.958 68.3763C102.958 66.2313 104.129 64.7041 105.885 64.7041C107.845 64.7041 108.648 66.2991 108.648 68.1838V68.6256H103.897C103.897 70.1106 104.688 71.3078 106.185 71.3078C106.811 71.3078 107.723 71.0456 108.131 70.7853V71.6653Z" fill="#1A1919"/>
<path fill-rule="evenodd" clip-rule="evenodd" d="M111.344 66.4366C111.344 65.6666 111.344 65.3788 111.29 64.8691H112.148V66.2166H112.173C112.487 65.4338 113.073 64.7041 113.958 64.7041C114.161 64.7041 114.406 64.7444 114.557 64.7866V65.6941C114.379 65.6391 114.149 65.6116 113.931 65.6116C112.569 65.6116 112.202 67.1534 112.202 68.4184V71.8853H111.344V66.4366Z" fill="#1A1919"/>
<path fill-rule="evenodd" clip-rule="evenodd" d="M120.846 68.3488H120.6C119.118 68.3488 117.347 68.5009 117.347 70.0409C117.347 70.9631 118 71.3078 118.789 71.3078C120.805 71.3078 120.846 69.5331 120.846 68.7759V68.3488ZM120.928 70.7578H120.901C120.52 71.5956 119.553 72.0503 118.695 72.0503C116.721 72.0503 116.407 70.7009 116.407 70.0684C116.407 67.7163 118.885 67.6063 120.681 67.6063H120.846V67.2488C120.846 66.0516 120.424 65.4466 119.266 65.4466C118.544 65.4466 117.864 65.6116 117.226 66.0241V65.1863C117.755 64.9241 118.653 64.7041 119.266 64.7041C120.981 64.7041 121.703 65.4888 121.703 67.3184V70.4131C121.703 70.9778 121.703 71.4031 121.772 71.8853H120.928V70.7578Z" fill="#1A1919"/>
<path fill-rule="evenodd" clip-rule="evenodd" d="M124.166 71.1575L128.346 65.6116H124.33V64.8691H129.338V65.6116L125.16 71.1428H129.338V71.8853H124.166V71.1575Z" fill="#1A1919"/>
<path fill-rule="evenodd" clip-rule="evenodd" d="M131.912 71.8848H132.77V64.8686H131.912V71.8848ZM131.912 62.9968H132.77V61.8418H131.912V62.9968Z" fill="#1A1919"/>
<path fill-rule="evenodd" clip-rule="evenodd" d="M141.413 70.2335C141.413 70.7706 141.413 71.3206 141.467 71.8853H140.637V70.6331H140.611C140.325 71.2656 139.808 72.0503 138.364 72.0503C136.649 72.0503 135.996 70.8953 135.996 69.3535V64.8691H136.852V69.1335C136.852 70.4553 137.317 71.3078 138.501 71.3078C140.065 71.3078 140.555 69.9181 140.555 68.7485V64.8691H141.413V70.2335Z" fill="#1A1919"/>
<path fill-rule="evenodd" clip-rule="evenodd" d="M144.626 66.5209C144.626 65.9838 144.626 65.4338 144.571 64.8691H145.402V66.1213H145.429C145.714 65.4888 146.231 64.7041 147.675 64.7041C149.391 64.7041 150.044 65.8591 150.044 67.4009V71.8853H149.186V67.6209C149.186 66.2991 148.724 65.4466 147.539 65.4466C145.973 65.4466 145.484 66.8363 145.484 68.0059V71.8853H144.626V66.5209Z" fill="#1A1919"/>
<path fill-rule="evenodd" clip-rule="evenodd" d="M157.435 70.8678C157.952 71.1281 158.58 71.3078 159.246 71.3078C160.062 71.3078 160.784 70.8531 160.784 70.0556C160.784 68.3909 157.45 68.6531 157.45 66.6163C157.45 65.2266 158.565 64.7041 159.708 64.7041C160.076 64.7041 160.811 64.7866 161.423 65.0213L161.343 65.7766C160.893 65.5713 160.281 65.4466 159.804 65.4466C158.919 65.4466 158.306 65.7216 158.306 66.6163C158.306 67.9234 161.722 67.7584 161.722 70.0556C161.722 71.5406 160.349 72.0503 159.3 72.0503C158.632 72.0503 157.967 71.9678 157.354 71.7203L157.435 70.8678Z" fill="#1A1919"/>
<path fill-rule="evenodd" clip-rule="evenodd" d="M166.732 71.8853H165.726L163.371 64.8691H164.311L166.23 70.9357H166.255L168.271 64.8691H169.171L166.732 71.8853Z" fill="#1A1919"/>
<path fill-rule="evenodd" clip-rule="evenodd" d="M171.429 71.8848H172.287V64.8686H171.429V71.8848ZM171.429 62.9968H172.287V61.8418H171.429V62.9968Z" fill="#1A1919"/>
<path fill-rule="evenodd" clip-rule="evenodd" d="M174.872 71.1575L179.052 65.6116H175.035V64.8691H180.046V65.6116L175.866 71.1428H180.046V71.8853H174.872V71.1575Z" fill="#1A1919"/>
<path fill-rule="evenodd" clip-rule="evenodd" d="M182.619 66.4366C182.619 65.6666 182.619 65.3788 182.564 64.8691H183.422V66.2166H183.449C183.762 65.4338 184.347 64.7041 185.233 64.7041C185.436 64.7041 185.681 64.7444 185.831 64.7866V65.6941C185.654 65.6391 185.423 65.6116 185.206 65.6116C183.843 65.6116 183.477 67.1534 183.477 68.4184V71.8853H182.619V66.4366Z" fill="#1A1919"/>
<mask id="mask0" mask-type="alpha" maskUnits="userSpaceOnUse" x="0" y="1" width="191" height="109">
<path d="M0 1.74902H190.038V109.89H0V1.74902Z" fill="white"/>
</mask>
<g mask="url(#mask0)">
<path fill-rule="evenodd" clip-rule="evenodd" d="M38.5773 4.93719C38.5773 4.93719 31.3771 1.74902 19.3224 1.74902H19.3188C7.2659 1.74902 0.0639127 4.93719 0.0639127 4.93719C0.0639127 4.93719 -0.580094 19.0465 2.15194 27.0252C6.98108 41.052 19.317 44.9919 19.317 44.9919H19.3242C19.3242 44.9919 31.6601 41.052 36.4893 27.0252C39.2231 19.0465 38.5773 4.93719 38.5773 4.93719Z" fill="#D8232A"/>
</g>
<path fill-rule="evenodd" clip-rule="evenodd" d="M32.1185 17.1017V24.8751H23.1442V33.9446H15.4524V24.8751H6.4762V17.1017H15.4524V8.03223H23.1424L23.1442 17.1017H32.1185Z" fill="#FFFFFE"/>
</svg>
