<svg width="83" height="110" viewBox="0 0 83 110" fill="none" xmlns="http://www.w3.org/2000/svg">
<path d="M33.0493 39.0405H26.57V44.4299H16.5246V39.0405H12.0042V44.4299H0.954292V38.3172H5.02267V33.4503H0.954292V27.2774H12.0042V32.6667H16.5246V27.2774H22.5016V22.541H16.5246V17.1516H12.0042V22.541H0.954292V16.4334H5.02267V11.5664H0.954292V5.45882H12.0042V10.7778H16.5246V5.45882H26.57V10.7778H33.0493V39.0405Z" fill="#FF0000"/>
<path d="M50.1867 39.0405H56.6258V44.4299H66.6812V39.0405H71.2167V44.4299H82.2566V38.3172H78.1832V33.4503H82.2566V27.2774H71.2167V32.6667H66.6812V27.2774H60.6992V22.541H66.6812V17.1516H71.2167V22.541H82.2566V16.4334H78.1832V11.5664H82.2566V5.45882H71.2167V10.7778H66.6812V5.45882H56.6258V10.7778H50.1867V39.0405Z" fill="#FF0000"/>
<path d="M40.5784 0.137792L40.5181 65.0811C40.5181 65.1816 40.4327 71.7111 33.7526 71.7111C30.1362 71.7111 28.529 70.5056 27.0222 69.4006C25.3144 68.145 23.6067 66.8893 19.1868 66.8391C17.5795 66.8391 13.8125 67.04 11.3514 69.5011C9.74412 71.1084 8.94049 73.3183 8.94049 76.1813C8.94049 78.7931 10.6482 81.3546 13.4107 82.9117C17.0772 84.8705 21.5474 84.7198 25.1638 82.3089L26.0678 81.7062C28.1271 80.2999 30.9901 78.341 34.3553 79.9985C36.515 81.0533 37.6702 82.8614 37.5196 84.971C37.5196 86.2769 37.1178 87.0303 36.6155 87.8841C35.8621 89.1398 34.958 90.6968 34.958 94.9159C34.958 97.4272 35.7616 101.797 40.9702 102.249C45.144 102.651 48.1878 98.5825 48.2078 94.9159C48.233 90.6968 47.2987 89.1398 46.5704 87.8841C46.0732 87.0303 45.6463 86.2769 45.6463 85.0212C45.5107 82.8614 46.6709 81.0533 48.8357 79.9985C52.1908 78.341 55.0186 80.2999 57.108 81.7062L58.0021 82.3089C61.6536 84.7701 66.0987 84.8705 69.7451 82.9117C72.5227 81.3546 74.2454 78.7931 74.2454 76.1813C74.2454 73.3183 73.4318 71.1084 71.8346 69.5011C69.3534 67.04 65.5914 66.8391 64.0896 66.8391C59.5742 66.8893 57.8464 68.145 56.1738 69.4006C54.6218 70.5056 53.0196 71.7111 49.4284 71.7111C42.7432 71.7111 42.6578 65.1816 42.6578 65.0811L42.6025 0.137792L50.8046 0.103638V61.732C50.8046 62.837 51.1059 63.5904 51.6584 63.8415C52.2963 64.1429 53.2808 63.7411 54.3506 62.7868C57.1834 60.2252 61.965 59.07 65.4457 59.07C68.9515 59.07 82.0557 61.9329 82.0557 76.0969C82.0557 83.6811 76.355 91.8681 63.8284 91.8681C59.986 91.8681 56.2693 89.9093 54.2602 88.5029C55.3049 90.3613 56.0031 92.5211 56.0031 94.8315C56.0031 96.7904 55.6364 98.7994 54.878 100.758C52.8287 105.932 48.5695 109.297 43.1952 109.9C42.7281 110 42.0048 110 41.5377 110C41.0756 110 40.6286 110 40.2218 109.95C34.6064 109.297 30.3371 105.932 28.2778 100.758C27.5244 98.8496 27.1728 96.7904 27.1728 94.8817C27.1728 92.5211 27.876 90.3613 28.9308 88.5029C26.9217 89.9093 23.2049 91.8681 19.3374 91.8681C6.83096 91.8681 1.10509 83.6811 1.10509 76.0969C1.10509 61.9329 14.2143 59.07 17.7302 59.07C21.1958 59.07 26.0176 60.2252 28.8303 62.7868C29.8851 63.7411 30.8896 64.1429 31.5426 63.8415C32.0448 63.5904 32.3462 62.837 32.3462 61.732V0.103638L40.5784 0.137792Z" fill="#FF0000"/>
<path d="M28.3281 53.2447C28.3281 54.7012 29.4833 55.8565 30.8896 55.8565H52.221C53.6575 55.8565 54.8177 54.7012 54.8177 53.2447C54.8177 51.7881 53.6575 50.6329 52.221 50.6329H30.8896C29.4833 50.6329 28.3281 51.7881 28.3281 53.2447Z" fill="#FF0000"/>
</svg>
