
<svg xmlns="http://www.w3.org/2000/svg" viewBox="0 0 24 24" fill="currentColor"><path d="M.507 24c-.132 0-.26-.053-.354-.146-.135-.135-.181-.331-.121-.511l2.121-6.364c.005-.014.014-.034.021-.047.02-.047.05-.093.087-.133.003-.003.006-.007.009-.01L18.033 1.025c.661-.639 1.524-.989 2.433-.989l.065.001c.935.016 1.807.396 2.457 1.068 1.317 1.364 1.317 3.5 0 4.863l-.698.698c-.005.006-.01.011-.015.016l-15.05 15.05c-.01.01-.021.019-.033.028-.035.029-.072.052-.112.071-.001 0-.003.001-.005.002-.012.007-.03.016-.054.023L.665 23.974c-.05.017-.103.026-.158.026zm.791-1.291l4.648-1.549-3.099-3.099-1.549 4.648zm5.574-2.037L21.215 6.329l-3.536-3.536L3.336 17.136l3.536 3.536zM21.921 5.621l.354-.354c.936-.969.934-2.494-.006-3.467-.464-.48-1.087-.751-1.755-.763h-.045c-.65 0-1.267.249-1.736.702l-.347.347 3.535 3.535z"/></svg>
