<svg width="40" height="40" viewBox="0 0 40 40" fill="none" xmlns="http://www.w3.org/2000/svg">
<path d="M16.25 3.75C9.36125 3.75 3.75 9.36125 3.75 16.25C3.75 23.1388 9.36125 28.75 16.25 28.75C19.2456 28.75 21.9968 27.6862 24.1529 25.9204L34.1163 35.8838C34.2315 36.0035 34.3695 36.099 34.522 36.1648C34.6746 36.2305 34.8388 36.2652 35.005 36.2668C35.1711 36.2684 35.3359 36.2368 35.4898 36.174C35.6436 36.1111 35.7833 36.0182 35.9008 35.9007C36.0183 35.7832 36.1112 35.6435 36.1741 35.4896C36.2369 35.3358 36.2685 35.171 36.2669 35.0049C36.2653 34.8387 36.2307 34.6745 36.1649 34.5219C36.0991 34.3693 36.0036 34.2314 35.8839 34.1161L25.9205 24.1528C27.6864 21.9966 28.7501 19.2455 28.7501 16.2499C28.7501 9.36113 23.1389 3.74988 16.2501 3.74988L16.25 3.75ZM16.25 6.25C21.7876 6.25 26.25 10.7124 26.25 16.25C26.25 21.7876 21.7876 26.25 16.25 26.25C10.7124 26.25 6.25 21.7876 6.25 16.25C6.25 10.7124 10.7124 6.25 16.25 6.25Z" fill="#FF0000"/>
</svg>
