<svg width="116" height="137" viewBox="0 0 116 137" fill="none" xmlns="http://www.w3.org/2000/svg">
<path d="M24.2693 56.0711C23.7479 52.9123 23.477 49.3469 23.7614 46.9405C24.1745 43.4903 25.2986 39.9519 26.9982 38.4946C26.145 37.3084 21.8044 31.4179 28.7114 28.5981M91.4026 56.0711C91.8766 52.9123 92.1475 49.3469 91.8766 46.9405C91.4703 43.4903 90.3191 39.9519 88.6262 38.4946C89.5065 37.3084 93.8403 31.4179 86.9334 28.5981L91.4026 56.0711Z" stroke="white" stroke-width="25.19" stroke-linecap="round" stroke-linejoin="round"/>
<path d="M44.6245 113.891H70.4784" stroke="white" stroke-width="14.2"/>
<path d="M89.3034 42.0397L68.1084 56.6676L68.0407 84.3372C68.0407 84.3372 68.3116 88.3365 69.395 90.7089C70.0044 91.9968 73.6611 95.0471 74.9477 95.4539M26.0096 42.0397L47.2181 56.6676L47.3129 84.3372C47.3129 84.3372 47.0691 88.3365 45.9383 90.7089C45.3153 91.9968 41.6654 95.0471 40.3924 95.4539L26.0096 42.0397Z" stroke="white" stroke-width="25.19" stroke-linecap="round"/>
<path d="M28.4001 28.0151C28.4001 28.0151 24.9127 26.4968 19.509 12.5535C14.1053 -1.39654 5.35643 0.0337104 5.27517 0.0472673C5.00431 0.108273 4.36101 0.162501 4.20527 0.969136C4.06306 1.78255 4.69959 2.13503 4.90274 2.21637C5.10589 2.30449 10.2387 3.63984 12.5817 18.105C15.1752 34.1564 23.8699 38.0879 25.6914 38.5556C21.2493 29.9538 28.4001 28.0151 28.4001 28.0151Z" fill="#FF0000"/>
<path d="M96.075 12.5535C101.492 -1.39654 110.228 0.0337104 110.295 0.0472673C110.566 0.108273 111.243 0.162501 111.379 0.969136C111.514 1.78255 110.905 2.13503 110.702 2.21637C110.498 2.30449 105.352 3.63984 102.982 18.105C100.409 34.1564 91.6735 38.0879 89.9129 38.5556C94.3144 29.9538 87.2043 28.0151 87.2043 28.0151" fill="#FF0000"/>
<path d="M90.6578 40.4604C90.6578 40.4604 94.0436 46.8389 92.0798 56.0711C92.3507 56.4982 96.075 59.7315 102.711 57.6031C109.347 55.4746 109.686 47.7946 115.442 45.917C111.785 39.7757 103.524 31.9263 90.6578 40.4604Z" fill="#FF0000"/>
<path d="M25.3023 40.1502C25.3023 40.1502 21.8822 46.4438 23.879 55.5627C23.6164 55.9845 19.8231 59.1848 13.045 57.0825C6.25994 54.9735 5.91447 47.3945 0 45.5332C3.738 39.474 12.1744 31.7209 25.3023 40.1502Z" fill="#FF0000"/>
<path d="M44.6315 114.366H70.4785C70.4785 114.366 70.9526 119.043 67.3636 119.043H47.2182C44.4351 119.043 44.6315 114.366 44.6315 114.366Z" fill="#FF0000"/>
<path d="M25.346 42.5278L46.7035 57.0879L46.778 84.405C46.778 84.405 46.1957 87.9976 45.2138 90.709C44.7195 91.9969 40.9342 95.115 39.6137 95.115C38.8485 95.0472 35.9841 86.5063 34.3657 83.5916C33.587 82.1681 27.4046 77.0165 31.3118 71.3904C19.9558 53.963 25.346 42.5278 25.346 42.5278Z" fill="#FF0000"/>
<path d="M90.116 42.5278L68.7179 57.0879L68.6502 84.405C68.6502 84.405 69.2596 87.9976 70.2076 90.709C70.7494 91.9969 74.5414 95.115 75.828 95.115C76.6406 95.0472 79.4847 86.5063 81.1099 83.5916C81.8547 82.1681 88.0169 77.0165 84.1571 71.3904C95.4656 53.963 90.116 42.5278 90.116 42.5278Z" fill="#FF0000"/>
<path d="M34.0609 52.8446C34.0609 56.1118 36.8711 58.7621 40.3381 58.7621C42.0649 58.7621 43.6156 58.1046 44.7532 57.0472L34.7719 50.1061C34.325 50.9263 34.0609 51.8549 34.0609 52.8446Z" fill="white"/>
<path d="M35.9502 52.8445C35.9502 55.1289 37.914 56.9862 40.3382 56.9862C41.5232 56.9862 42.5931 56.5388 43.3922 55.8203L36.4174 50.9737C36.1195 51.5363 35.9502 52.1667 35.9502 52.8445Z" fill="#FF0000"/>
<path d="M81.2454 52.8446C81.2454 56.1118 78.469 58.7621 74.9478 58.7621C73.2549 58.7621 71.6975 58.1046 70.5463 57.0472L80.5005 50.1061C80.9745 50.9263 81.2454 51.8549 81.2454 52.8446Z" fill="white"/>
<path d="M79.3492 52.8445C79.3492 55.1289 77.3855 56.9862 74.9477 56.9862C73.7965 56.9862 72.7131 56.5388 71.9005 55.8203L78.8752 50.9737C79.1461 51.5363 79.3492 52.1667 79.3492 52.8445Z" fill="#FF0000"/>
<path d="M78.1304 97.2162C77.8596 97.0807 75.2864 97.3518 71.2911 93.6237C70.3431 92.6747 68.6502 90.5734 68.5825 90.1667C67.7699 87.1842 67.4991 83.9305 67.5668 78.7789C67.6345 72.8139 67.5668 56.41 67.5668 56.41L89.8452 40.9619C89.8452 40.9619 88.2201 37.4982 85.6469 37.3829C84.3603 37.3287 64.181 37.41 57.7345 37.4439C51.2744 37.41 31.0883 37.3287 29.8356 37.3829C27.2421 37.4982 25.6034 40.9619 25.6034 40.9619L47.8818 56.41C47.8818 56.41 47.8141 72.8139 47.9089 78.7789C47.9766 83.9305 47.7058 87.1842 46.9067 90.1667C46.8052 90.5734 45.1393 92.6747 44.1507 93.6237C40.2029 97.3518 37.65 97.0807 37.3453 97.2162C35.8014 97.7585 34.0069 98.9786 35.8014 105.96C37.589 112.874 40.6904 113.417 40.6904 113.417H74.8124C74.8124 113.417 77.8596 112.874 79.6879 105.96C81.4485 98.9786 79.6879 97.7585 78.1304 97.2162Z" fill="#FF0000"/>
<path d="M28.2104 28.0422C26.1925 28.8285 24.8043 30.0757 24.249 31.6212C24.0662 32.1499 23.9646 32.699 23.9646 33.2819C23.9646 34.8003 24.5064 36.8203 25.7997 38.6505C29.4158 43.7885 33.8985 43.192 36.0113 42.2227C36.018 42.2295 36.018 42.2295 36.0248 42.2295C36.702 43.5242 37.3588 44.3511 38.8485 45.029C39.9185 45.5035 41.2863 45.1103 42.6135 44.7307C43.074 44.5952 43.7376 44.4054 44.0153 44.3986C44.2049 44.5003 44.6315 44.9002 44.9294 45.1713C45.7014 45.8966 46.5817 46.7236 47.6245 46.8321C48.4506 46.9134 49.3038 46.588 50.218 46.2491C50.9358 45.978 51.7348 45.6729 52.2292 45.7204C52.2292 45.7204 52.3307 45.7272 52.3375 45.7272C52.3375 45.7407 52.412 45.8017 52.412 45.8017C53.184 46.4457 54.1049 46.9744 57.7615 47.0083C61.4724 46.9676 62.3527 46.405 63.0298 45.7339V45.7272L63.0975 45.7204C63.5715 45.6729 64.3841 45.978 65.129 46.2491C66.0093 46.588 66.8896 46.9134 67.7022 46.8321C68.7179 46.7236 69.5982 45.8966 70.4108 45.1713C70.6817 44.9002 71.088 44.507 71.2911 44.3986C71.562 44.4054 72.2391 44.5952 72.7132 44.7307C73.9998 45.1103 75.4218 45.5035 76.4375 45.029C77.9273 44.3511 78.6044 43.5242 79.2816 42.2295V42.2159C80.5682 42.7582 85.7823 43.8156 89.7775 38.6505C90.9964 37.0643 91.335 34.8003 91.335 33.2819C91.335 32.7126 91.2673 32.1635 91.0641 31.6483C90.4547 29.791 88.8295 28.7201 87.272 28.0897" fill="white"/>
<path d="M85.7822 28.815C85.9854 28.2998 86.0531 27.7372 86.0531 27.161C86.0531 24.1446 83.5476 21.7044 80.5004 21.7044C79.7555 21.7044 79.1461 21.8332 78.4689 22.0636C77.7918 19.881 75.6926 18.3016 73.1871 18.3016C71.9682 18.3016 70.8171 18.7151 69.8691 19.4133C68.8533 17.8678 67.1604 16.8307 65.1967 16.8307C63.9778 16.8307 62.8943 17.217 61.9463 17.8746C60.7816 18.7422 57.8428 16.8917 57.8428 16.8917C57.8428 16.8917 54.2132 18.4372 52.6828 17.5492C51.8702 17.095 50.9493 16.8307 49.9539 16.8307C48.0375 16.8307 46.3514 17.8068 45.3763 19.2845C44.4689 18.6337 43.3584 18.2406 42.1463 18.2406C39.7017 18.2406 37.6296 19.8403 36.9322 22.0501C36.2956 21.7857 35.6049 21.6434 34.8804 21.6434C31.8535 21.6434 29.3954 24.0904 29.3954 27.1068C29.3954 27.6897 29.4834 28.2524 29.6595 28.7743C27.3165 29.425 22.7322 31.9737 26.9441 37.9523C31.156 43.9377 35.7878 40.8467 35.7878 40.8467C35.7878 40.8467 36.553 40.4332 37.1421 41.5517C37.7177 42.6701 38.1849 43.2531 39.3699 43.775C40.5414 44.3105 43.4193 42.7786 44.3538 43.0768C45.295 43.3683 46.629 45.3679 47.7531 45.4832C48.8704 45.5984 50.8613 44.2495 52.3307 44.3647C53.8001 44.4867 52.5 45.5984 57.775 45.6594C63.0298 45.5984 61.54 44.4867 62.9621 44.3647C64.4518 44.2495 66.4156 45.5984 67.5667 45.4832C68.6502 45.3679 70.0045 43.3683 70.9525 43.0768C71.9005 42.7786 74.7446 44.3105 75.9635 43.775C77.1146 43.2531 77.5886 42.6701 78.1981 41.5517C78.7398 40.4332 79.4847 40.8467 79.4847 40.8467C79.4847 40.8467 84.3602 43.8496 88.5586 37.8642C92.6892 32.0008 88.1523 29.5131 85.7822 28.815Z" fill="#FF0000"/>
<path d="M48.8975 105.825C49.3241 106.706 49.06 107.723 48.2881 108.062L47.0489 108.672C46.2769 109.079 45.3086 108.672 44.882 107.858L42.3968 102.91C41.9634 102.029 42.2275 101.012 42.9927 100.605L44.2319 99.9954C44.9971 99.6565 45.9722 99.9954 46.4056 100.877L48.8975 105.825Z" fill="white"/>
<path d="M66.2801 108.825C65.8738 109.706 66.0769 110.723 66.8895 111.062L68.1084 111.672C68.8532 112.079 69.869 111.672 70.2753 110.858L72.7808 105.91C73.1871 105.029 72.9162 104.012 72.1713 103.605L70.8847 102.995C70.1398 102.656 69.1918 102.995 68.7855 103.877L66.2801 108.825Z" fill="white"/>
<path d="M48.6282 105.409C49.0556 106.264 48.791 107.25 48.0176 107.579L46.7762 108.171C46.0028 108.565 45.0327 108.171 44.6053 107.382L42.1156 102.581C41.6815 101.726 41.946 100.74 42.7126 100.345L43.9541 99.7533C44.7207 99.4245 45.6975 99.7533 46.1317 100.608L48.6282 105.409ZM66.0425 105.409C65.6355 106.264 65.839 107.25 66.6531 107.579L67.8742 108.171C68.6204 108.565 69.638 108.171 70.0451 107.382L72.5551 102.581C72.9622 101.726 72.6908 100.74 71.9446 100.345L70.6556 99.7533C69.9094 99.4245 68.9596 99.7533 68.5526 100.608L66.0425 105.409Z" stroke="white" stroke-width="2"/>
<path d="M68.2197 103.827C69.3783 101.99 69.719 102.058 69.7872 102.058C74.4215 105.527 77.4884 110.969 77.4884 117.023C77.4884 127.498 68.4241 136 57.3154 136C46.1861 136 37.1628 127.498 37.1628 117.023C37.1628 110.969 40.1751 105.527 44.8572 102.058C45.0071 101.99 45.6818 101.65 46.3906 103.895C47.113 106.14 47.0925 106.48 47.0312 106.548C43.9644 109.132 42.022 112.873 42.022 117.023C42.022 124.845 48.8781 131.171 57.3154 131.171C65.7662 131.171 72.5814 124.845 72.5814 117.023C72.5814 112.805 70.605 109.064 67.47 106.412C67.47 106.412 66.9248 105.936 68.2197 103.827Z" stroke="#FF0000" stroke-width="2"/>
</svg>
